<svg width="107" height="17" viewBox="0 0 107 17" fill="none" xmlns="http://www.w3.org/2000/svg">
<path d="M2.20126 16.3635C1.52939 16.3635 0.990124 16.169 0.583466 15.78C0.194489 15.3734 0 14.8341 0 14.1622V2.43994C0 1.76807 0.194489 1.23765 0.583466 0.848674C0.990124 0.442018 1.52939 0.23869 2.20126 0.23869H10.9798C11.0859 0.415497 11.1831 0.636505 11.2715 0.901716C11.3599 1.16693 11.4041 1.4675 11.4041 1.80343C11.4041 2.3869 11.2715 2.82007 11.0063 3.10296C10.7588 3.38585 10.4051 3.5273 9.94545 3.5273H4.05774V6.49766H10.2107C10.3167 6.67447 10.414 6.89548 10.5024 7.16069C10.5908 7.4259 10.635 7.72647 10.635 8.0624C10.635 8.64587 10.5112 9.07904 10.2637 9.36193C10.0162 9.62714 9.66255 9.75975 9.20285 9.75975H4.05774V13.0749H11.0859C11.1919 13.2517 11.2892 13.4815 11.3776 13.7644C11.466 14.0473 11.5102 14.3567 11.5102 14.6927C11.5102 15.2761 11.3776 15.7005 11.1124 15.9657C10.8648 16.2309 10.5201 16.3635 10.0781 16.3635H2.20126Z" fill="#DA3832"/>
<path d="M22.135 12.7832H16.9369C16.7424 13.4197 16.5567 14.0473 16.3799 14.6661C16.2208 15.285 16.0794 15.8331 15.9556 16.3105C15.7258 16.3812 15.4871 16.4431 15.2395 16.4961C14.992 16.5491 14.6914 16.5757 14.3378 16.5757C13.5599 16.5757 12.9675 16.4431 12.5609 16.1778C12.1719 15.895 11.9774 15.4971 11.9774 14.9844C11.9774 14.7369 12.0128 14.4982 12.0835 14.2683C12.1542 14.0385 12.2338 13.7733 12.3222 13.4727C12.446 12.9953 12.6228 12.403 12.8526 11.6958C13.0825 10.9886 13.33 10.2283 13.5952 9.41498C13.8781 8.58398 14.1698 7.73531 14.4704 6.86896C14.771 6.0026 15.0627 5.18045 15.3456 4.4025C15.6285 3.60686 15.8849 2.88195 16.1147 2.22777C16.3446 1.57358 16.5391 1.052 16.6982 0.663026C16.9634 0.503899 17.3701 0.353613 17.9182 0.212167C18.484 0.0707225 19.0409 0 19.589 0C20.3846 0 21.083 0.114924 21.6842 0.344772C22.303 0.556941 22.7008 0.919396 22.8776 1.43214C23.2136 2.36921 23.576 3.45658 23.965 4.69423C24.354 5.93188 24.743 7.20489 25.1319 8.51326C25.5386 9.82163 25.9276 11.1123 26.2989 12.3853C26.6702 13.6583 26.9973 14.7988 27.2801 15.8066C27.0857 16.0364 26.7939 16.222 26.4049 16.3635C26.0337 16.5049 25.5828 16.5757 25.0524 16.5757C24.2921 16.5757 23.7528 16.4431 23.4346 16.1778C23.134 15.9126 22.913 15.4971 22.7715 14.9314L22.135 12.7832ZM19.5625 3.71295C19.3149 4.50858 19.0055 5.41914 18.6342 6.44462C18.2806 7.45242 17.9447 8.48674 17.6264 9.54758H21.419C21.1184 8.4337 20.809 7.37285 20.4907 6.36505C20.1902 5.33957 19.9338 4.45554 19.7216 3.71295H19.5625Z" fill="#DA3832"/>
<path d="M34.5206 3.58034V16.2839C34.3261 16.337 34.0521 16.3812 33.6985 16.4165C33.3449 16.4696 32.9736 16.4961 32.5846 16.4961C31.7536 16.4961 31.1701 16.3547 30.8342 16.0718C30.4983 15.7889 30.3303 15.2761 30.3303 14.5335V3.58034H26.1665C26.0604 3.40354 25.9543 3.17369 25.8482 2.89079C25.7598 2.6079 25.7156 2.29849 25.7156 1.96256C25.7156 1.36141 25.8482 0.928236 26.1134 0.663026C26.3786 0.380135 26.7411 0.23869 27.2008 0.23869H38.7905C38.9143 0.415497 39.0204 0.645345 39.1088 0.928236C39.1972 1.21113 39.2414 1.52054 39.2414 1.85647C39.2414 2.43994 39.1088 2.87311 38.8436 3.15601C38.5784 3.4389 38.2159 3.58034 37.7562 3.58034H34.5206Z" fill="#DA3832"/>
<path d="M51.0909 0.477379C51.197 0.654186 51.2942 0.884035 51.3827 1.16693C51.4711 1.44982 51.5153 1.75923 51.5153 2.09516C51.5153 2.67863 51.3827 3.1118 51.1174 3.3947C50.8699 3.67759 50.5163 3.81903 50.0566 3.81903H44.1689V7.29329H50.1892C50.2953 7.48778 50.3925 7.71763 50.4809 7.98284C50.587 8.24805 50.6401 8.55746 50.6401 8.91108C50.6401 9.49454 50.5075 9.92772 50.2422 10.2106C49.977 10.4758 49.6234 10.6084 49.1814 10.6084H44.2219V16.5226C44.0274 16.5757 43.7534 16.6199 43.3998 16.6552C43.0462 16.7083 42.6749 16.7348 42.2859 16.7348C41.4549 16.7348 40.8714 16.5933 40.5355 16.3105C40.2172 16.0276 40.0581 15.5148 40.0581 14.7722V2.67863C40.0581 2.00676 40.2526 1.47634 40.6416 1.08736C41.0482 0.680707 41.5875 0.477379 42.2594 0.477379H51.0909Z" fill="black"/>
<path d="M65.3148 5.64899C65.3148 6.67447 65.0407 7.59386 64.4926 8.40718C63.9622 9.22049 63.2373 9.86583 62.3179 10.3432C63.0428 11.298 63.7323 12.1997 64.3865 13.0484C65.0584 13.8794 65.5535 14.5512 65.8717 15.064C65.7126 15.6297 65.412 16.0629 64.97 16.3635C64.5457 16.6464 64.0771 16.7878 63.5644 16.7878C62.8925 16.7878 62.3798 16.6464 62.0261 16.3635C61.6725 16.0629 61.3366 15.6563 61.0183 15.1435L58.4723 11.1919H56.6423V16.5226C56.4479 16.5757 56.1738 16.6199 55.8202 16.6552C55.4666 16.7083 55.0953 16.7348 54.7063 16.7348C53.8753 16.7348 53.2918 16.5933 52.9559 16.3105C52.6376 16.0276 52.4785 15.5148 52.4785 14.7722V1.90952C52.4785 1.5559 52.5669 1.28185 52.7437 1.08736C52.9382 0.892875 53.2123 0.742589 53.5659 0.636505C54.1317 0.424336 54.8124 0.27405 55.608 0.185647C56.4037 0.0972432 57.2346 0.0530414 58.101 0.0530414C60.5056 0.0530414 62.309 0.556942 63.5113 1.56474C64.7136 2.55486 65.3148 3.91628 65.3148 5.64899ZM58.2336 7.98284C59.0823 7.98284 59.7718 7.79719 60.3023 7.4259C60.8327 7.03692 61.0979 6.45346 61.0979 5.67551C61.0979 4.15497 60.0813 3.3947 58.048 3.3947C57.7651 3.3947 57.5087 3.41238 57.2788 3.44774C57.049 3.46542 56.8191 3.49194 56.5893 3.5273V7.98284H58.2336Z" fill="black"/>
<path d="M69.1462 16.6022C68.4744 16.6022 67.9351 16.4077 67.5285 16.0187C67.1395 15.6121 66.945 15.0728 66.945 14.4009V2.67863C66.945 2.00676 67.1395 1.47634 67.5285 1.08736C67.9351 0.680707 68.4744 0.477379 69.1462 0.477379H77.9248C78.0308 0.654186 78.1281 0.875195 78.2165 1.14041C78.3049 1.40562 78.3491 1.70619 78.3491 2.04212C78.3491 2.62558 78.2165 3.05876 77.9513 3.34165C77.7038 3.62454 77.3501 3.76599 76.8904 3.76599H71.0027V6.73635H77.1556C77.2617 6.91316 77.359 7.13416 77.4474 7.39937C77.5358 7.66459 77.58 7.96516 77.58 8.30109C77.58 8.88455 77.4562 9.31773 77.2087 9.60062C76.9612 9.86583 76.6075 9.99844 76.1478 9.99844H71.0027V13.3136H78.0308C78.1369 13.4904 78.2342 13.7202 78.3226 14.0031C78.411 14.286 78.4552 14.5954 78.4552 14.9314C78.4552 15.5148 78.3226 15.9392 78.0574 16.2044C77.8098 16.4696 77.4651 16.6022 77.023 16.6022H69.1462Z" fill="black"/>
<path d="M84.7102 13.6053C85.6473 13.6053 86.3104 13.4462 86.6993 13.1279C87.106 12.792 87.3093 12.3942 87.3093 11.9345C87.3093 11.5101 87.1502 11.1742 86.832 10.9267C86.5314 10.6615 86.0717 10.4316 85.4529 10.2371L84.1003 9.81279C83.3577 9.58294 82.6858 9.33541 82.0847 9.0702C81.4835 8.78731 80.9708 8.46022 80.5464 8.08892C80.1221 7.69995 79.7861 7.24909 79.5386 6.73635C79.3088 6.20593 79.1938 5.56942 79.1938 4.82683C79.1938 3.34165 79.7508 2.16589 80.8647 1.29953C81.9963 0.433177 83.561 0 85.5589 0C86.3192 0 87.0176 0.053042 87.6541 0.159126C88.3083 0.26521 88.8652 0.433176 89.3249 0.663026C89.7846 0.875195 90.1471 1.14041 90.4123 1.45866C90.6775 1.77691 90.8101 2.14821 90.8101 2.57254C90.8101 2.9792 90.704 3.34165 90.4919 3.65991C90.2974 3.96048 90.0675 4.21685 89.8023 4.42902C89.3957 4.14613 88.8564 3.90744 88.1845 3.71295C87.5127 3.51846 86.7789 3.42122 85.9833 3.42122C85.1346 3.42122 84.5069 3.55382 84.1003 3.81903C83.6936 4.08424 83.4903 4.42018 83.4903 4.82683C83.4903 5.18045 83.6229 5.4545 83.8881 5.64899C84.1533 5.82579 84.5688 6.01144 85.1346 6.20593L86.5667 6.68331C87.3977 6.9662 88.1226 7.27561 88.7415 7.61154C89.378 7.9298 89.9084 8.30109 90.3327 8.72543C90.7571 9.13208 91.0753 9.60946 91.2875 10.1576C91.4997 10.688 91.6058 11.298 91.6058 11.9875C91.6058 12.7301 91.4555 13.4108 91.1549 14.0296C90.872 14.6308 90.4388 15.1524 89.8554 15.5944C89.2896 16.0364 88.5823 16.3812 87.7337 16.6287C86.9027 16.8762 85.9391 17 84.8429 17C84.0295 17 83.2781 16.9293 82.5886 16.7878C81.899 16.6641 81.2979 16.4784 80.7851 16.2309C80.2901 15.9834 79.8922 15.6828 79.5917 15.3292C79.3088 14.9579 79.1673 14.5424 79.1673 14.0827C79.1673 13.6053 79.2999 13.2075 79.5651 12.8892C79.848 12.571 80.1574 12.3146 80.4934 12.1201C80.9708 12.5091 81.5631 12.8539 82.2703 13.1544C82.9952 13.455 83.8085 13.6053 84.7102 13.6053Z" fill="black"/>
<path d="M96.9338 16.5226C96.7393 16.5757 96.4653 16.6199 96.1117 16.6552C95.758 16.7083 95.3868 16.7348 94.9978 16.7348C94.1668 16.7348 93.5833 16.5933 93.2474 16.3105C92.9291 16.0276 92.77 15.5148 92.77 14.7722V0.424336C92.9645 0.388975 93.2385 0.344774 93.5922 0.291731C93.9634 0.238689 94.3259 0.212167 94.6795 0.212167C95.4752 0.212167 96.0498 0.344773 96.4034 0.609984C96.757 0.875195 96.9338 1.39678 96.9338 2.17473V6.84243H102.636V0.424336C102.83 0.388975 103.104 0.344774 103.458 0.291731C103.829 0.238689 104.201 0.212167 104.572 0.212167C105.35 0.212167 105.916 0.353613 106.269 0.636505C106.623 0.919396 106.8 1.44982 106.8 2.22777V16.5226C106.605 16.5757 106.331 16.6199 105.978 16.6552C105.624 16.7083 105.253 16.7348 104.864 16.7348C104.033 16.7348 103.449 16.5933 103.113 16.3105C102.795 16.0276 102.636 15.5148 102.636 14.7722V10.131H96.9338V16.5226Z" fill="black"/>
</svg>
