<svg width="175" height="28" viewBox="0 0 175 28" fill="none" xmlns="http://www.w3.org/2000/svg">
<path d="M0 8.73635H6.45052V26.9953C6.18901 27.0536 5.78222 27.1264 5.23015 27.2137C4.70714 27.3011 4.14054 27.3448 3.53035 27.3448C2.45527 27.3448 1.5981 27.0244 0.958861 26.3838C0.31962 25.7431 0 24.884 0 23.8066V8.73635ZM6.45052 19.3073H0V4.32449C0 3.21789 0.31962 2.35881 0.958861 1.74727C1.5981 1.1066 2.45527 0.786272 3.53035 0.786272C4.14054 0.786272 4.70714 0.829953 5.23015 0.917315C5.78222 1.00468 6.18901 1.07748 6.45052 1.13572V19.3073ZM3.53035 16.3807V11.1388H16.6929C16.8672 11.4301 17.0271 11.7941 17.1723 12.2309C17.3176 12.6677 17.3903 13.1482 17.3903 13.6724C17.3903 14.6043 17.1723 15.2886 16.7365 15.7254C16.3297 16.1622 15.7776 16.3807 15.0803 16.3807H3.53035ZM3.53035 27.3448V22.0593H18.1312C18.3055 22.3214 18.4653 22.6854 18.6106 23.1513C18.7559 23.6173 18.8285 24.1123 18.8285 24.6365C18.8285 25.5684 18.6106 26.2527 18.1748 26.6895C17.768 27.1264 17.2159 27.3448 16.5186 27.3448H3.53035ZM3.53035 6.02808V0.786272H17.9133C18.1167 1.04836 18.2765 1.39782 18.3927 1.83463C18.538 2.27145 18.6106 2.75195 18.6106 3.27613C18.6106 4.20801 18.4072 4.90692 18.0004 5.37285C17.5937 5.80967 17.0271 6.02808 16.3006 6.02808H3.53035Z" fill="#DA3832"/>
<path d="M32.2805 6.29017H32.019C31.7285 7.22205 31.3798 8.25585 30.973 9.39157C30.5953 10.5273 30.203 11.7213 29.7962 12.9735C29.3894 14.1966 28.9972 15.4197 28.6194 16.6427L27.8349 20.5741C27.6606 21.1274 27.4862 21.7098 27.3119 22.3214C27.1666 22.9329 27.0068 23.5299 26.8325 24.1123C26.6581 24.6947 26.4983 25.248 26.353 25.7722C26.2077 26.2964 26.0625 26.7915 25.9172 27.2574C25.5976 27.3448 25.2343 27.4321 24.8276 27.5195C24.4208 27.636 23.9413 27.6942 23.3893 27.6942C22.1689 27.6942 21.2391 27.4758 20.5999 27.039C19.9606 26.6022 19.641 25.9615 19.641 25.117C19.641 24.7675 19.6846 24.4035 19.7717 24.025C19.888 23.6464 20.0187 23.2096 20.164 22.7145C20.4255 21.7535 20.7887 20.545 21.2536 19.0889C21.7476 17.6329 22.2706 16.0603 22.8227 14.3713C23.4038 12.6531 23.9849 10.9641 24.5661 9.30421C25.1762 7.6443 25.7283 6.11544 26.2223 4.71763C26.7453 3.31981 27.1666 2.22777 27.4862 1.4415C27.893 1.17941 28.5322 0.946437 29.4039 0.742588C30.3047 0.50962 31.1909 0.393136 32.0626 0.393136C33.312 0.393136 34.4307 0.582423 35.4186 0.960996C36.4065 1.31045 37.0312 1.87831 37.2928 2.66459C37.8448 4.20801 38.4405 5.99896 39.0797 8.03744C39.748 10.0468 40.4163 12.1581 41.0846 14.3713C41.7529 16.5845 42.3922 18.7395 43.0023 20.8362C43.6416 22.9038 44.1936 24.7675 44.6586 26.4275C44.3389 26.7769 43.874 27.0681 43.2638 27.3011C42.6537 27.5632 41.9272 27.6942 41.0846 27.6942C39.8933 27.6942 39.0507 27.4758 38.5567 27.039C38.0627 26.6022 37.685 25.947 37.4235 25.0733L36.0288 20.181L35.2879 16.468C34.9392 15.1576 34.576 13.8908 34.1982 12.6677C33.8205 11.4446 33.4718 10.2943 33.1522 9.21685C32.8326 8.11024 32.542 7.13468 32.2805 6.29017ZM24.9147 21.3604L27.4862 16.2059H37.685L38.5567 21.3604H24.9147Z" fill="#DA3832"/>
<path d="M50.1516 6.11544L50.108 0.786272H63.5756C63.75 1.04836 63.9098 1.41238 64.0551 1.87831C64.2003 2.34425 64.273 2.83931 64.273 3.36349C64.273 4.29537 64.0551 4.99428 63.6192 5.46022C63.2124 5.89704 62.6458 6.11544 61.9194 6.11544H50.1516ZM56.297 0.786272L56.3406 6.11544H42.8729C42.6695 5.85335 42.4952 5.48934 42.3499 5.0234C42.2337 4.55746 42.1756 4.0624 42.1756 3.53822C42.1756 2.57722 42.379 1.87831 42.7858 1.4415C43.2216 1.00468 43.7882 0.786272 44.4856 0.786272H56.297ZM49.8029 4.93604H56.4713V27.2137C56.1808 27.3011 55.7449 27.3739 55.1638 27.4321C54.5827 27.5195 53.987 27.5632 53.3768 27.5632C52.0693 27.5632 51.1395 27.3302 50.5874 26.8643C50.0644 26.3983 49.8029 25.5829 49.8029 24.4181V4.93604Z" fill="#DA3832"/>
<path d="M72.2425 16.3807H65.6612V4.32449C65.6612 3.21789 65.9808 2.35881 66.6201 1.74727C67.2593 1.1066 68.1165 0.786272 69.1916 0.786272C69.8018 0.786272 70.3829 0.829953 70.935 0.917315C71.5161 1.00468 71.9519 1.07748 72.2425 1.13572V16.3807ZM69.1044 17.3853V12.0562H82.2234C82.3977 12.3474 82.5575 12.7259 82.7028 13.1919C82.8481 13.6287 82.9207 14.1092 82.9207 14.6334C82.9207 15.5653 82.7028 16.2642 82.267 16.7301C81.8602 17.1669 81.2936 17.3853 80.5672 17.3853H69.1044ZM69.1916 6.11544V0.786272H83.7052C83.8796 1.04836 84.0394 1.41238 84.1847 1.87831C84.33 2.34425 84.4026 2.83931 84.4026 3.36349C84.4026 4.29537 84.1847 4.99428 83.7488 5.46022C83.342 5.89704 82.7754 6.11544 82.049 6.11544H69.1916ZM65.6612 13.8034H72.2861V27.2137C72.0246 27.3011 71.6033 27.3739 71.0221 27.4321C70.441 27.5195 69.8453 27.5632 69.2352 27.5632C67.9276 27.5632 66.9978 27.3302 66.4457 26.8643C65.9227 26.3983 65.6612 25.5975 65.6612 24.4618V13.8034Z" fill="white"/>
<path d="M92.654 13.1919H95.487C96.9399 13.1919 98.1021 12.8716 98.9738 12.2309C99.8746 11.5611 100.325 10.5855 100.325 9.30421C100.325 8.052 99.9036 7.10556 99.061 6.4649C98.2184 5.79511 96.9253 5.46022 95.182 5.46022C94.688 5.46022 94.2376 5.47478 93.8308 5.5039C93.424 5.53302 93.0318 5.59126 92.654 5.67863V13.1919ZM96.0972 18.3463H86.0728V3.1014C86.0728 2.5481 86.2326 2.11128 86.5522 1.79095C86.8718 1.47062 87.2931 1.22309 87.8162 1.04836C88.775 0.698907 89.8937 0.451377 91.1722 0.305771C92.4797 0.160165 93.8308 0.0873624 95.2255 0.0873624C99.1482 0.0873624 102.097 0.917316 104.073 2.57722C106.049 4.20801 107.037 6.43578 107.037 9.26053C107.037 11.0078 106.558 12.5803 105.599 13.9782C104.669 15.3469 103.376 16.4243 101.72 17.2106C100.092 17.9678 98.2183 18.3463 96.0972 18.3463ZM94.8769 16.7738L100.804 15.376C101.473 16.3079 102.155 17.2252 102.853 18.1279C103.579 19.0307 104.262 19.9043 104.901 20.7488C105.57 21.5933 106.165 22.3796 106.688 23.1076C107.211 23.8065 107.633 24.4035 107.952 24.8986C107.691 25.7722 107.226 26.4566 106.558 26.9516C105.889 27.4176 105.134 27.6505 104.291 27.6505C103.216 27.6505 102.388 27.4176 101.807 26.9516C101.255 26.4566 100.732 25.8159 100.238 25.0296L94.8769 16.7738ZM86.0728 15.8565H92.6976V27.2137C92.4361 27.3011 92.0148 27.3739 91.4337 27.4321C90.8525 27.5195 90.2569 27.5632 89.6467 27.5632C88.3392 27.5632 87.4094 27.3302 86.8573 26.8643C86.3343 26.3983 86.0728 25.5829 86.0728 24.4181V15.8565Z" fill="white"/>
<path d="M109.762 8.73635H116.212V26.9953C115.951 27.0536 115.544 27.1264 114.992 27.2137C114.469 27.3011 113.902 27.3448 113.292 27.3448C112.217 27.3448 111.36 27.0244 110.721 26.3838C110.081 25.7431 109.762 24.884 109.762 23.8066V8.73635ZM116.212 19.3073H109.762V4.32449C109.762 3.21789 110.081 2.35881 110.721 1.74727C111.36 1.1066 112.217 0.786272 113.292 0.786272C113.902 0.786272 114.469 0.829953 114.992 0.917315C115.544 1.00468 115.951 1.07748 116.212 1.13572V19.3073ZM113.292 16.3807V11.1388H126.455C126.629 11.4301 126.789 11.7941 126.934 12.2309C127.079 12.6677 127.152 13.1482 127.152 13.6724C127.152 14.6043 126.934 15.2886 126.498 15.7254C126.091 16.1622 125.539 16.3807 124.842 16.3807H113.292ZM113.292 27.3448V22.0593H127.893C128.067 22.3214 128.227 22.6854 128.372 23.1513C128.518 23.6173 128.59 24.1123 128.59 24.6365C128.59 25.5684 128.372 26.2527 127.936 26.6895C127.53 27.1264 126.978 27.3448 126.28 27.3448H113.292ZM113.292 6.02808V0.786272H127.675C127.878 1.04836 128.038 1.39782 128.154 1.83463C128.3 2.27145 128.372 2.75195 128.372 3.27613C128.372 4.20801 128.169 4.90692 127.762 5.37285C127.355 5.80967 126.789 6.02808 126.062 6.02808H113.292Z" fill="white"/>
<path d="M138.871 22.5835C140.44 22.5835 141.558 22.3068 142.227 21.7535C142.924 21.1711 143.273 20.4867 143.273 19.7005C143.273 18.9724 142.997 18.39 142.445 17.9532C141.922 17.4873 141.137 17.0941 140.091 16.7738L137.781 16.0312C136.212 15.507 134.817 14.9246 133.597 14.2839C132.406 13.6433 131.476 12.8133 130.808 11.7941C130.168 10.7748 129.849 9.47894 129.849 7.9064C129.849 5.48934 130.764 3.56734 132.595 2.1404C134.425 0.713468 136.968 0 140.222 0C141.878 0 143.345 0.160166 144.624 0.480498C145.931 0.80083 146.948 1.28133 147.675 1.922C148.43 2.53354 148.808 3.29069 148.808 4.19345C148.808 4.86323 148.648 5.44566 148.329 5.94072C148.038 6.40665 147.66 6.81435 147.195 7.16381C146.527 6.69787 145.641 6.30473 144.537 5.9844C143.433 5.63494 142.212 5.46022 140.876 5.46022C139.481 5.46022 138.435 5.69319 137.738 6.15913C137.04 6.59594 136.692 7.17837 136.692 7.9064C136.692 8.48882 136.924 8.96932 137.389 9.34789C137.854 9.69735 138.551 10.0177 139.481 10.3089L141.878 11.0515C144.522 11.8669 146.556 12.9589 147.98 14.3276C149.404 15.6672 150.116 17.4727 150.116 19.7441C150.116 22.1903 149.171 24.1851 147.283 25.7285C145.394 27.2428 142.663 28 139.089 28C137.316 28 135.733 27.8107 134.338 27.4321C132.943 27.0536 131.825 26.5003 130.982 25.7722C130.168 25.0442 129.762 24.1997 129.762 23.2387C129.762 22.4815 129.979 21.8409 130.415 21.3167C130.88 20.7634 131.389 20.3557 131.941 20.0936C132.725 20.7343 133.699 21.3167 134.861 21.8409C136.052 22.3359 137.389 22.5835 138.871 22.5835Z" fill="white"/>
<path d="M152.074 8.78003H158.699V27.2137C158.438 27.3011 158.017 27.3739 157.435 27.4321C156.854 27.5195 156.259 27.5632 155.648 27.5632C154.341 27.5632 153.411 27.3302 152.859 26.8643C152.336 26.3983 152.074 25.5829 152.074 24.4181V8.78003ZM158.699 17.1669H152.074V0.698907C152.365 0.640665 152.801 0.567862 153.382 0.480498C153.992 0.393134 154.573 0.349452 155.125 0.349452C156.404 0.349452 157.319 0.567861 157.871 1.00468C158.423 1.4415 158.699 2.27145 158.699 3.49454V17.1669ZM168.332 8.78003H175V27.2137C174.709 27.3011 174.274 27.3739 173.692 27.4321C173.111 27.5195 172.516 27.5632 171.905 27.5632C170.598 27.5632 169.668 27.3302 169.116 26.8643C168.593 26.3983 168.332 25.5829 168.332 24.4181V8.78003ZM175 17.1669H168.332V0.698907C168.651 0.640665 169.102 0.567862 169.683 0.480498C170.264 0.393134 170.845 0.349452 171.426 0.349452C172.675 0.349452 173.576 0.582422 174.128 1.04836C174.709 1.48518 175 2.31513 175 3.53822V17.1669ZM172.123 16.5991H155.082V11.3136H172.123V16.5991Z" fill="white"/>
</svg>
