<svg width="1280" height="292" viewBox="0 0 1280 292" fill="none" xmlns="http://www.w3.org/2000/svg">
<path d="M25.3837 220.233C22.0674 216.902 19.4471 212.936 17.6734 208.562C15.8996 204.189 15.0064 199.492 15.0456 194.743C15.0826 189.993 16.0513 185.283 17.8952 180.88C19.7393 176.477 22.4234 172.468 25.7937 169.083C50.2159 144.55 108.63 138.414 138.106 152.651L138.098 152.766L60.5677 230.647L60.5691 230.537L50.7588 230.617C46.0305 230.656 41.3552 229.759 37.0013 227.977C32.6476 226.196 28.7 223.564 25.3837 220.233Z" fill="#6DAF20"/>
<path d="M70.7422 266.055C74.0586 269.386 78.0066 272.018 82.3604 273.8C86.7143 275.581 91.3891 276.478 96.1173 276.439C100.845 276.402 105.535 275.429 109.918 273.577C114.301 271.724 118.292 269.028 121.662 265.643C146.085 241.11 152.193 182.432 138.021 152.824L137.949 152.828L60.4158 230.711L60.484 230.71L60.4048 240.565C60.3656 245.314 61.2582 250.01 63.0319 254.384C64.8056 258.757 67.4259 262.723 70.7422 266.055Z" fill="#426F0D"/>
<path d="M25.4096 70.8772C22.0931 74.2086 19.4736 78.1749 17.6998 82.5484C15.9262 86.9218 15.0329 91.6172 15.072 96.3665C15.109 101.116 16.0776 105.827 17.9217 110.23C19.7657 114.633 22.4494 118.641 25.8195 122.027C50.2421 146.559 108.658 152.694 138.134 138.458L138.133 138.456L60.5954 60.5701L60.5961 60.5722L50.7849 60.4933C46.0568 60.454 41.3825 61.3512 37.0286 63.1329C32.6746 64.9146 28.7261 67.5458 25.4096 70.8772Z" fill="#E0643A"/>
<path d="M70.6472 25.3687C73.9637 22.0374 77.9116 19.4054 82.2656 17.6236C86.6195 15.842 91.2943 14.9454 96.0225 14.9847C100.751 15.0219 105.441 15.9941 109.824 17.8465C114.207 19.6989 118.198 22.3951 121.568 25.7805C145.99 50.313 152.098 108.991 137.926 138.599L137.856 138.595L60.3228 60.7126L60.3882 60.7133L60.3097 50.8581C60.2705 46.1086 61.1631 41.4128 62.9368 37.0393C64.7105 32.6657 67.3308 28.7001 70.6472 25.3687Z" fill="#E9983E"/>
<path d="M266.015 220.307C269.332 216.976 271.952 213.01 273.726 208.637C275.499 204.263 276.392 199.567 276.353 194.818C276.316 190.068 275.348 185.357 273.504 180.955C271.66 176.552 268.976 172.543 265.605 169.157C241.183 144.625 182.768 138.489 153.292 152.725L153.297 152.797L230.83 230.679L230.83 230.612L240.64 230.691C245.368 230.73 250.043 229.834 254.397 228.052C258.751 226.271 262.699 223.639 266.015 220.307Z" fill="#7F1810"/>
<path d="M220.725 265.984C217.408 269.315 213.46 271.946 209.106 273.728C204.752 275.51 200.077 276.406 195.349 276.367C190.621 276.33 185.931 275.357 181.548 273.505C177.165 271.653 173.174 268.957 169.804 265.571C145.381 241.039 139.273 182.361 153.445 152.753L153.511 152.757L231.044 230.64L230.982 230.639L231.062 240.493C231.101 245.243 230.208 249.939 228.435 254.312C226.661 258.686 224.041 262.652 220.725 265.984Z" fill="#DA3832"/>
<path d="M265.996 70.8894C269.313 74.2207 271.933 78.1863 273.707 82.5599C275.48 86.9335 276.373 91.6292 276.334 96.3787C276.297 101.128 275.329 105.839 273.485 110.242C271.641 114.645 268.957 118.654 265.586 122.039C241.164 146.571 182.75 152.707 153.274 138.471L230.812 60.5843L240.621 60.5054C245.349 60.466 250.024 61.3626 254.378 63.1443C258.732 64.926 262.68 67.558 265.996 70.8894Z" fill="#1592E6"/>
<path d="M220.715 25.4238C217.398 22.0924 213.45 19.4605 209.096 17.6788C204.742 15.8971 200.067 15.0006 195.339 15.0399C190.611 15.0771 185.921 16.0493 181.538 17.9016C177.155 19.754 173.164 22.4508 169.794 25.8362C145.372 50.3686 139.263 109.046 153.435 138.654L153.507 138.649L231.04 60.7679L230.973 60.7686L231.051 50.9135C231.091 46.164 230.198 41.4684 228.424 37.0949C226.651 32.7213 224.031 28.7552 220.715 25.4238Z" fill="#1F72E6"/>
<path d="M489.663 92.9449C489.663 85.4499 487.299 79.8285 482.572 76.081C477.845 72.1631 471.176 70.2042 462.565 70.2042H419.259V115.43H462.312C470.922 115.43 477.591 113.556 482.319 109.809C487.215 105.891 489.663 100.27 489.663 92.9449ZM385.07 220.191V41.3311H467.377C479.702 41.3311 490.085 43.4603 498.527 47.7189C506.968 51.8071 513.3 57.4285 517.521 64.5829C521.91 71.5669 524.105 79.4879 524.105 88.3457C524.105 96.1815 522.67 102.825 519.8 108.276C516.93 113.727 512.962 118.071 507.897 121.307C503.001 124.373 497.345 126.502 490.929 127.695V129.739C498.696 130.761 505.364 132.976 510.936 136.382C516.508 139.619 520.813 144.218 523.852 150.18C526.891 156.142 528.41 163.382 528.41 171.899C528.41 181.268 526.131 189.615 521.573 196.939C517.014 204.094 510.345 209.8 501.566 214.059C492.955 218.147 482.572 220.191 470.416 220.191H385.07ZM419.259 191.318H465.857C474.806 191.318 481.728 189.359 486.624 185.441C491.689 181.353 494.221 175.476 494.221 167.811C494.221 159.805 491.52 153.757 486.117 149.669C480.884 145.581 473.877 143.537 465.098 143.537H419.259V191.318Z" fill="white"/>
<path d="M597.728 221.98C585.065 221.98 573.922 219.169 564.299 213.548C554.675 207.926 547.162 200.091 541.759 190.04C536.526 179.99 533.909 168.407 533.909 155.29C533.909 142.685 536.526 131.528 541.759 121.818C546.993 112.109 554.253 104.528 563.539 99.0773C572.994 93.456 583.715 90.6453 595.702 90.6453C607.858 90.6453 618.579 93.2856 627.865 98.5663C637.151 103.847 644.326 111.257 649.391 120.796C654.625 130.165 657.242 141.152 657.242 153.757C657.242 155.631 657.073 157.76 656.735 160.145C656.566 162.36 656.313 164.744 655.976 167.3H568.857C569.533 172.751 571.221 177.435 573.922 181.353C576.792 185.1 580.254 188.081 584.306 190.296C588.526 192.34 593.254 193.362 598.488 193.362C604.734 193.362 610.306 192.085 615.202 189.529C620.267 186.804 623.897 183.312 626.092 179.053L654.963 187.741C649.898 198.643 642.3 207.075 632.17 213.037C622.209 218.999 610.728 221.98 597.728 221.98ZM621.787 143.537C621.618 138.767 620.352 134.509 617.988 130.761C615.624 126.843 612.501 123.862 608.618 121.818C604.734 119.604 600.429 118.496 595.702 118.496C591.481 118.496 587.513 119.604 583.799 121.818C580.085 124.033 576.877 127.014 574.176 130.761C571.643 134.338 569.955 138.597 569.111 143.537H621.787Z" fill="white"/>
<path d="M666.757 92.4339H696.134L698.413 105.465C702.465 100.866 707.361 97.2887 713.102 94.7335C719.011 92.0081 725.342 90.6453 732.095 90.6453C742.057 90.6453 750.498 92.7746 757.42 97.0332C764.511 101.292 769.914 107.509 773.628 115.686C777.512 123.692 779.453 133.657 779.453 145.581V220.191H746.784V149.925C746.784 140.045 744.842 132.635 740.959 127.695C737.076 122.755 731.251 120.285 723.485 120.285C715.55 120.285 709.472 122.84 705.251 127.95C701.199 132.89 699.173 140.3 699.173 150.18V220.191H666.757V92.4339Z" fill="white"/>
<path d="M867.976 220.191L865.444 204.605C861.223 209.885 856.411 214.059 851.009 217.125C845.775 220.191 838.684 221.724 829.735 221.724C821.294 221.724 813.865 220.276 807.449 217.38C801.203 214.314 796.306 210.141 792.761 204.86C789.215 199.409 787.443 193.021 787.443 185.697C787.443 174.965 791.241 166.107 798.839 159.123C806.605 151.969 818.255 147.455 833.787 145.581L865.444 142.004V133.061C865.444 129.483 863.84 126.162 860.632 123.096C857.424 120.029 852.359 118.496 845.437 118.496C839.359 118.496 834.041 120.029 829.482 123.096C825.092 125.991 822.138 130.42 820.618 136.382L792.761 126.162C796.137 114.749 802.553 105.976 812.008 99.8438C821.463 93.7115 833.112 90.6453 846.957 90.6453C863.84 90.6453 876.502 94.9039 884.944 103.421C893.555 111.768 897.86 122.84 897.86 136.638V220.191H867.976ZM865.444 164.744L838.093 168.322C832.521 169.003 828.3 170.706 825.43 173.432C822.56 175.987 821.125 179.138 821.125 182.886C821.125 186.463 822.56 189.529 825.43 192.084C828.3 194.469 832.352 195.662 837.586 195.662C843.495 195.662 848.476 194.554 852.528 192.34C856.749 190.126 859.957 186.889 862.152 182.63C864.346 178.372 865.444 173.091 865.444 166.789V164.744Z" fill="white"/>
<path d="M1003.29 92.4339H1032.66V201.283C1032.66 215.762 1029.12 228.197 1022.03 238.588C1014.94 249.149 1004.64 257.241 991.131 262.862C977.794 268.483 961.754 271.294 943.014 271.294L937.949 243.698C958.378 243.358 973.826 239.695 984.294 232.711C994.93 225.727 1000.25 215.677 1000.25 202.561V202.05L1004.55 200.516C1000.5 206.478 994.93 211.589 987.839 215.847C980.748 219.936 972.307 221.98 962.514 221.98C951.371 221.98 941.579 219.254 933.137 213.803C924.695 208.352 918.026 200.772 913.13 191.062C908.403 181.183 906.039 169.599 906.039 156.312C906.039 143.026 908.403 131.442 913.13 121.563C918.026 111.683 924.695 104.102 933.137 98.8218C941.579 93.3708 951.371 90.6453 962.514 90.6453C968.254 90.6453 973.573 91.497 978.469 93.2005C983.534 94.7335 987.924 96.8628 991.638 99.5883C995.521 102.143 998.729 105.039 1001.26 108.276L1003.29 92.4339ZM940.988 156.312C940.988 167.044 943.689 175.732 949.092 182.375C954.495 188.848 961.754 192.084 970.871 192.084C976.105 192.084 980.917 190.722 985.307 187.996C989.696 185.1 993.242 180.927 995.943 175.476C998.813 170.025 1000.25 163.637 1000.25 156.312C1000.25 148.647 998.813 142.174 995.943 136.893C993.242 131.613 989.612 127.61 985.053 124.884C980.664 121.988 975.936 120.54 970.871 120.54C961.754 120.54 954.495 123.862 949.092 130.506C943.689 136.979 940.988 145.581 940.988 156.312Z" fill="white"/>
<path d="M1106.02 221.98C1093.7 221.98 1082.72 219.339 1073.1 214.059C1063.47 208.608 1055.88 201.027 1050.31 191.318C1044.9 181.438 1042.2 169.855 1042.2 156.568C1042.2 143.111 1044.99 131.442 1050.56 121.563C1056.3 111.683 1064.07 104.102 1073.86 98.8218C1083.65 93.3708 1094.62 90.6453 1106.78 90.6453C1118.94 90.6453 1129.91 93.3708 1139.7 98.8218C1149.5 104.102 1157.26 111.683 1163 121.563C1168.74 131.272 1171.61 142.77 1171.61 156.057C1171.61 169.514 1168.66 181.183 1162.75 191.062C1157.01 200.942 1149.16 208.608 1139.2 214.059C1129.4 219.339 1118.35 221.98 1106.02 221.98ZM1105.77 192.596C1111 192.596 1115.98 191.318 1120.71 188.763C1125.44 186.037 1129.32 182.034 1132.36 176.754C1135.4 171.303 1136.92 164.404 1136.92 156.057C1136.92 148.051 1135.48 141.407 1132.61 136.127C1129.74 130.676 1125.94 126.673 1121.22 124.118C1116.66 121.392 1111.68 120.029 1106.27 120.029C1101.04 120.029 1096.14 121.392 1091.59 124.118C1087.2 126.673 1083.65 130.676 1080.95 136.127C1078.42 141.407 1077.15 148.221 1077.15 156.568C1077.15 164.574 1078.42 171.303 1080.95 176.754C1083.48 182.034 1086.94 186.037 1091.33 188.763C1095.72 191.318 1100.53 192.596 1105.77 192.596Z" fill="white"/>
<path d="M1204.02 178.542C1205.04 182.801 1206.73 186.037 1209.09 188.252C1211.62 190.466 1214.41 192.085 1217.45 193.107C1220.65 193.958 1223.86 194.384 1227.07 194.384C1232.98 194.384 1237.62 193.277 1241 191.062C1244.38 188.678 1246.06 185.697 1246.06 182.119C1246.06 179.053 1244.88 176.668 1242.52 174.965C1240.16 173.091 1237.12 171.729 1233.4 170.877C1229.69 169.855 1225.89 168.833 1222.01 167.811C1217.45 166.618 1212.55 165.341 1207.32 163.978C1202.25 162.445 1197.44 160.316 1192.88 157.59C1188.32 154.865 1184.52 151.373 1181.49 147.114C1178.45 142.685 1176.93 137.149 1176.93 130.506C1176.93 122.67 1179.04 115.771 1183.26 109.809C1187.65 103.847 1193.64 99.1625 1201.24 95.7556C1209.01 92.3487 1217.95 90.6453 1228.08 90.6453C1240.07 90.6453 1250.2 93.2005 1258.47 98.3107C1266.75 103.421 1272.74 110.746 1276.45 120.285L1247.84 128.461C1246.99 126.077 1245.56 124.118 1243.53 122.585C1241.51 121.052 1239.06 119.944 1236.19 119.263C1233.49 118.582 1230.7 118.241 1227.83 118.241C1222.93 118.241 1218.88 119.263 1215.67 121.307C1212.47 123.181 1210.86 125.821 1210.86 129.228C1210.86 131.272 1211.45 132.976 1212.64 134.338C1213.82 135.531 1215.42 136.553 1217.45 137.404C1219.64 138.256 1222.09 139.023 1224.79 139.704C1227.66 140.385 1230.78 141.152 1234.16 142.004C1239.4 143.366 1244.63 144.985 1249.86 146.858C1255.27 148.562 1260.16 150.776 1264.55 153.502C1269.11 156.227 1272.74 159.89 1275.44 164.489C1278.14 169.088 1279.66 174.88 1280 181.864C1280 189.359 1277.89 196.173 1273.67 202.305C1269.45 208.267 1263.37 213.037 1255.43 216.614C1247.5 220.191 1237.88 221.98 1226.56 221.98C1213.39 221.98 1202.17 219.169 1192.88 213.548C1183.76 207.926 1177.77 199.154 1174.9 187.23L1204.02 178.542Z" fill="white"/>
</svg>
