<svg width="162" height="150" viewBox="0 0 162 150" fill="none" xmlns="http://www.w3.org/2000/svg">
<rect width="162" height="149.633" rx="12" fill="white"/>
<mask id="path-2-inside-1_61_1629" fill="white">
<path d="M10.422 10.4221H151.578V96.1561H10.422V10.4221Z"/>
</mask>
<path d="M151.578 96.1561V95.5047H10.422V96.1561V96.8074H151.578V96.1561Z" fill="#F2F5FA" mask="url(#path-2-inside-1_61_1629)"/>
<rect x="10.422" y="20.8442" width="64.844" height="22.8165" rx="11.4083" fill="#F2F5FA"/>
<path d="M21.5462 30.4481L22.5767 30.4208C22.601 30.6518 22.6192 30.895 22.6314 31.1503C22.6496 31.4057 22.6588 31.658 22.6588 31.9072C22.6648 32.1565 22.6679 32.3966 22.6679 32.6277V34.7433C22.6253 34.7555 22.5524 34.7676 22.449 34.7798C22.3517 34.798 22.2545 34.8072 22.1572 34.8072C21.9383 34.8072 21.7803 34.7707 21.683 34.6977C21.5918 34.6187 21.5462 34.4819 21.5462 34.2874V30.4481ZM26.2426 33.5031L25.203 33.5305C25.1544 33.0623 25.127 32.6064 25.121 32.1626C25.1149 31.7127 25.1118 31.278 25.1118 30.8585V29.217C25.1666 29.2049 25.2395 29.1897 25.3307 29.1715C25.428 29.1532 25.5313 29.1441 25.6408 29.1441C25.8535 29.1441 26.0055 29.1836 26.0967 29.2626C26.194 29.3417 26.2426 29.4754 26.2426 29.6639V33.5031ZM26.2426 33.1292V34.6065C26.1697 34.6673 26.0724 34.716 25.9508 34.7524C25.8292 34.795 25.6894 34.8163 25.5313 34.8163C25.3429 34.8163 25.1726 34.7859 25.0206 34.7251C24.8747 34.6643 24.7501 34.5305 24.6468 34.3238L23.3062 31.9255C23.2333 31.7796 23.1542 31.6276 23.0691 31.4695C22.9901 31.3114 22.9141 31.1564 22.8411 31.0044C22.7682 30.8524 22.7013 30.7126 22.6405 30.5849L21.5462 30.8403V29.4086C21.6131 29.3234 21.7104 29.2596 21.838 29.217C21.9718 29.1745 22.1146 29.1532 22.2666 29.1532C22.449 29.1532 22.6162 29.1836 22.7682 29.2444C22.9202 29.3052 23.0478 29.4359 23.1512 29.6365L24.4917 32.0349C24.5708 32.1808 24.6498 32.3328 24.7288 32.4909C24.8139 32.6489 24.8899 32.804 24.9568 32.9559C25.0298 33.1079 25.0936 33.2478 25.1483 33.3754L26.2426 33.1292ZM28.0204 33.1657L27.9748 32.3814L30.4188 32.0167C30.4005 31.7856 30.3124 31.585 30.1543 31.4148C29.9962 31.2446 29.7652 31.1595 29.4612 31.1595C29.1512 31.1595 28.8928 31.2689 28.6861 31.4877C28.4794 31.7005 28.373 32.0075 28.3669 32.4088L28.3943 32.883C28.449 33.2721 28.5979 33.5578 28.8411 33.7402C29.0904 33.9226 29.4035 34.0138 29.7804 34.0138C30.0357 34.0138 30.2728 33.9773 30.4917 33.9043C30.7106 33.8253 30.8838 33.7402 31.0115 33.649C31.0966 33.7037 31.1635 33.7736 31.2121 33.8588C31.2668 33.9378 31.2942 34.0259 31.2942 34.1232C31.2942 34.2813 31.2243 34.4181 31.0845 34.5336C30.9446 34.643 30.7562 34.7281 30.5191 34.7889C30.282 34.8497 30.0114 34.8801 29.7075 34.8801C29.2393 34.8801 28.8229 34.795 28.4581 34.6248C28.0994 34.4485 27.8167 34.187 27.61 33.8405C27.4094 33.494 27.3091 33.0623 27.3091 32.5456C27.3091 32.1747 27.3668 31.8495 27.4824 31.5698C27.5979 31.2902 27.7529 31.0591 27.9474 30.8768C28.1481 30.6883 28.3791 30.5485 28.6405 30.4573C28.9019 30.36 29.1755 30.3114 29.4612 30.3114C29.8625 30.3114 30.2121 30.3934 30.5099 30.5576C30.8139 30.7156 31.051 30.9375 31.2213 31.2233C31.3976 31.509 31.4857 31.8373 31.4857 32.2082C31.4857 32.3784 31.4401 32.5061 31.3489 32.5912C31.2638 32.6702 31.1422 32.7188 30.9841 32.7371L28.0204 33.1657ZM35.2547 31.9255C35.1756 32.2598 35.0814 32.6003 34.972 32.9468C34.8625 33.2873 34.7592 33.6095 34.6619 33.9135C34.5646 34.2114 34.4795 34.4576 34.4066 34.6521C34.3458 34.7068 34.2637 34.7494 34.1604 34.7798C34.057 34.8102 33.9293 34.8254 33.7774 34.8254C33.6132 34.8254 33.4643 34.8011 33.3305 34.7524C33.2028 34.6977 33.1147 34.6217 33.066 34.5245C33.0113 34.4029 32.9475 34.2296 32.8745 34.0047C32.8016 33.7736 32.7256 33.5122 32.6466 33.2204C32.5736 32.9286 32.4976 32.6246 32.4186 32.3085C32.3456 31.9923 32.2757 31.6853 32.2088 31.3874C32.148 31.0895 32.0964 30.8251 32.0538 30.5941C32.1207 30.5272 32.2028 30.4694 32.3 30.4208C32.4034 30.3722 32.5189 30.3478 32.6466 30.3478C32.8107 30.3478 32.9414 30.3874 33.0387 30.4664C33.136 30.5454 33.1968 30.6761 33.2211 30.8585C33.2819 31.2111 33.3396 31.5455 33.3943 31.8616C33.4491 32.1717 33.5038 32.4544 33.5585 32.7097C33.6132 32.9651 33.6588 33.1839 33.6953 33.3663C33.7378 33.5426 33.7682 33.6764 33.7865 33.7676H33.8229C33.8655 33.6277 33.9293 33.4058 34.0145 33.1019C34.0996 32.7979 34.1999 32.4513 34.3154 32.0623C34.437 31.6671 34.5555 31.2658 34.671 30.8585C34.7562 30.816 34.8443 30.7825 34.9355 30.7582C35.0328 30.7278 35.1422 30.7126 35.2638 30.7126C35.4219 30.7126 35.5556 30.74 35.665 30.7947C35.7745 30.8433 35.8474 30.9223 35.8839 31.0318C36.0055 31.4209 36.118 31.8008 36.2213 32.1717C36.3307 32.5365 36.425 32.8617 36.504 33.1475C36.5891 33.4271 36.6499 33.6369 36.6864 33.7767H36.732C36.8353 33.2721 36.9448 32.7371 37.0603 32.1717C37.1758 31.6063 37.2731 31.0439 37.3521 30.4846C37.5041 30.3934 37.6713 30.3478 37.8537 30.3478C38.0117 30.3478 38.1394 30.3843 38.2367 30.4573C38.3339 30.5241 38.3826 30.6366 38.3826 30.7947C38.3826 30.8798 38.3643 31.0166 38.3279 31.205C38.2975 31.3935 38.2519 31.6124 38.1911 31.8616C38.1364 32.1109 38.0725 32.3754 37.9996 32.655C37.9266 32.9347 37.8506 33.2052 37.7716 33.4666C37.6986 33.728 37.6287 33.9621 37.5618 34.1688C37.495 34.3755 37.4372 34.5366 37.3886 34.6521C37.3339 34.7008 37.2457 34.7403 37.1241 34.7707C37.0025 34.8072 36.8688 34.8254 36.7229 34.8254C36.3459 34.8254 36.1271 34.7342 36.0663 34.5518C35.9933 34.3694 35.9082 34.1354 35.8109 33.8496C35.7198 33.5639 35.6255 33.2538 35.5283 32.9195C35.4371 32.5851 35.3459 32.2538 35.2547 31.9255ZM46.4439 31.9802C46.4439 32.6125 46.3223 33.1444 46.0791 33.5761C45.842 34.0077 45.5137 34.336 45.0942 34.5609C44.6808 34.7798 44.2096 34.8892 43.6807 34.8892C43.1579 34.8892 42.6867 34.7798 42.2672 34.5609C41.8538 34.336 41.5255 34.0077 41.2824 33.5761C41.0453 33.1444 40.9267 32.6125 40.9267 31.9802C40.9267 31.3479 41.0483 30.816 41.2915 30.3843C41.5407 29.9527 41.8721 29.6274 42.2855 29.4086C42.705 29.1836 43.1701 29.0711 43.6807 29.0711C44.2036 29.0711 44.6717 29.1836 45.0851 29.4086C45.5046 29.6274 45.8359 29.9527 46.0791 30.3843C46.3223 30.816 46.4439 31.3479 46.4439 31.9802ZM45.2675 31.9802C45.2675 31.3418 45.1216 30.8555 44.8298 30.5211C44.544 30.1867 44.161 30.0195 43.6807 30.0195C43.2126 30.0195 42.8326 30.1867 42.5408 30.5211C42.2551 30.8555 42.1122 31.3418 42.1122 31.9802C42.1122 32.6246 42.2551 33.114 42.5408 33.4484C42.8266 33.7828 43.2096 33.9499 43.6899 33.9499C44.1701 33.9499 44.5531 33.7828 44.8389 33.4484C45.1246 33.114 45.2675 32.6246 45.2675 31.9802ZM48.5713 31.4695V32.7188H47.4496V31.3783C47.4496 31.2263 47.4861 31.0987 47.5591 30.9953C47.632 30.8859 47.7354 30.7856 47.8691 30.6944C48.0515 30.5849 48.2825 30.4937 48.5622 30.4208C48.8418 30.3478 49.1428 30.3114 49.465 30.3114C50.0365 30.3114 50.3222 30.4877 50.3222 30.8403C50.3222 30.9254 50.31 31.0044 50.2857 31.0774C50.2614 31.1443 50.231 31.205 50.1945 31.2598C50.1337 31.2476 50.0577 31.2385 49.9665 31.2324C49.8753 31.2202 49.7781 31.2142 49.6747 31.2142C49.4559 31.2142 49.2492 31.2385 49.0546 31.2871C48.8662 31.3297 48.705 31.3905 48.5713 31.4695ZM47.4496 32.345L48.5713 32.3997V34.7342C48.5227 34.7524 48.4527 34.7676 48.3616 34.7798C48.2704 34.798 48.17 34.8072 48.0606 34.8072C47.8539 34.8072 47.6989 34.7707 47.5955 34.6977C47.4983 34.6187 47.4496 34.4819 47.4496 34.2874V32.345ZM53.7949 33.804V30.9406H54.9166V33.9226C54.9166 34.0563 54.8862 34.1688 54.8254 34.26C54.7707 34.3451 54.6795 34.4272 54.5518 34.5062C54.4059 34.6035 54.2053 34.6886 53.95 34.7616C53.7007 34.8406 53.415 34.8801 53.0927 34.8801C52.6125 34.8801 52.193 34.8011 51.8343 34.643C51.4817 34.4789 51.2081 34.2296 51.0135 33.8952C50.819 33.5548 50.7217 33.1262 50.7217 32.6094C50.7217 32.0805 50.819 31.6458 51.0135 31.3054C51.2142 30.9649 51.4817 30.7156 51.816 30.5576C52.1504 30.3934 52.5213 30.3114 52.9286 30.3114C53.1535 30.3114 53.3572 30.3387 53.5396 30.3934C53.728 30.4481 53.88 30.512 53.9955 30.5849V31.5425C53.8983 31.4513 53.7706 31.3722 53.6125 31.3054C53.4545 31.2385 53.2721 31.205 53.0654 31.205C52.8404 31.205 52.6368 31.2537 52.4544 31.351C52.272 31.4421 52.1291 31.5941 52.0258 31.8069C51.9224 32.0136 51.8708 32.2842 51.8708 32.6185C51.8708 33.0927 51.9802 33.4393 52.1991 33.6581C52.4179 33.877 52.7128 33.9864 53.0836 33.9864C53.2478 33.9864 53.3876 33.9682 53.5031 33.9317C53.6186 33.8952 53.7159 33.8527 53.7949 33.804ZM54.9166 31.1686L53.7949 31.1777V28.8249C53.8375 28.8128 53.9044 28.7976 53.9955 28.7793C54.0928 28.7611 54.1931 28.752 54.2965 28.752C54.5153 28.752 54.6734 28.7915 54.7707 28.8705C54.868 28.9435 54.9166 29.0772 54.9166 29.2718V31.1686ZM56.5982 33.1657L56.5526 32.3814L58.9966 32.0167C58.9784 31.7856 58.8902 31.585 58.7322 31.4148C58.5741 31.2446 58.3431 31.1595 58.0391 31.1595C57.729 31.1595 57.4707 31.2689 57.264 31.4877C57.0572 31.7005 56.9509 32.0075 56.9448 32.4088L56.9721 32.883C57.0268 33.2721 57.1758 33.5578 57.419 33.7402C57.6682 33.9226 57.9813 34.0138 58.3583 34.0138C58.6136 34.0138 58.8507 33.9773 59.0696 33.9043C59.2884 33.8253 59.4617 33.7402 59.5894 33.649C59.6745 33.7037 59.7414 33.7736 59.79 33.8588C59.8447 33.9378 59.8721 34.0259 59.8721 34.1232C59.8721 34.2813 59.8021 34.4181 59.6623 34.5336C59.5225 34.643 59.334 34.7281 59.0969 34.7889C58.8598 34.8497 58.5893 34.8801 58.2853 34.8801C57.8172 34.8801 57.4007 34.795 57.036 34.6248C56.6773 34.4485 56.3946 34.187 56.1879 33.8405C55.9873 33.494 55.8869 33.0623 55.8869 32.5456C55.8869 32.1747 55.9447 31.8495 56.0602 31.5698C56.1757 31.2902 56.3307 31.0591 56.5253 30.8768C56.7259 30.6883 56.9569 30.5485 57.2184 30.4573C57.4798 30.36 57.7534 30.3114 58.0391 30.3114C58.4403 30.3114 58.7899 30.3934 59.0878 30.5576C59.3918 30.7156 59.6289 30.9375 59.7991 31.2233C59.9754 31.509 60.0636 31.8373 60.0636 32.2082C60.0636 32.3784 60.018 32.5061 59.9268 32.5912C59.8417 32.6702 59.7201 32.7188 59.562 32.7371L56.5982 33.1657ZM62.0899 31.4695V32.7188H60.9682V31.3783C60.9682 31.2263 61.0047 31.0987 61.0777 30.9953C61.1506 30.8859 61.254 30.7856 61.3877 30.6944C61.5701 30.5849 61.8011 30.4937 62.0808 30.4208C62.3604 30.3478 62.6614 30.3114 62.9836 30.3114C63.5551 30.3114 63.8408 30.4877 63.8408 30.8403C63.8408 30.9254 63.8286 31.0044 63.8043 31.0774C63.78 31.1443 63.7496 31.205 63.7131 31.2598C63.6523 31.2476 63.5763 31.2385 63.4851 31.2324C63.3939 31.2202 63.2967 31.2142 63.1933 31.2142C62.9745 31.2142 62.7678 31.2385 62.5732 31.2871C62.3847 31.3297 62.2236 31.3905 62.0899 31.4695ZM60.9682 32.345L62.0899 32.3997V34.7342C62.0413 34.7524 61.9713 34.7676 61.8801 34.7798C61.789 34.798 61.6886 34.8072 61.5792 34.8072C61.3725 34.8072 61.2175 34.7707 61.1141 34.6977C61.0169 34.6187 60.9682 34.4819 60.9682 34.2874V32.345Z" fill="#6E6D7A"/>
<g clip-path="url(#clip0_61_1629)">
<path d="M19.7041 66.3259H12.8647C12.3251 66.3259 11.8876 66.7634 11.8876 67.303V74.1424C11.8876 74.6821 12.3251 75.1195 12.8647 75.1195H19.7041C20.2438 75.1195 20.6812 74.6821 20.6812 74.1424V67.303C20.6812 66.7634 20.2438 66.3259 19.7041 66.3259Z" stroke="#6E6D7A" stroke-width="1.30275" stroke-linecap="round" stroke-linejoin="round"/>
<path d="M18.2386 65.3489V67.303" stroke="#6E6D7A" stroke-width="1.30275" stroke-linecap="round" stroke-linejoin="round"/>
<path d="M14.3303 65.3489V67.303" stroke="#6E6D7A" stroke-width="1.30275" stroke-linecap="round" stroke-linejoin="round"/>
<path d="M11.8876 69.2571H20.6812" stroke="#6E6D7A" stroke-width="1.30275" stroke-linecap="round" stroke-linejoin="round"/>
</g>
<path d="M29.5256 61.7217H30.599V65.6508C30.5643 65.6647 30.4983 65.6855 30.401 65.7133C30.3107 65.7341 30.2134 65.7446 30.1092 65.7446C29.9355 65.7446 29.7931 65.689 29.6819 65.5778C29.5777 65.4666 29.5256 65.3242 29.5256 65.1505V61.7217ZM30.599 63.3788L29.5256 63.3683V59.9916C29.5256 59.811 29.5777 59.6685 29.6819 59.5643C29.7931 59.4531 29.9355 59.3975 30.1092 59.3975C30.2134 59.3975 30.3107 59.408 30.401 59.4288C30.4983 59.4497 30.5643 59.4705 30.599 59.4913V63.3788ZM30.1092 62.9306V62.0447H33.2567C33.2845 62.0864 33.3088 62.1455 33.3296 62.2219C33.3574 62.2983 33.3713 62.3817 33.3713 62.472C33.3713 62.6179 33.3366 62.7326 33.2671 62.816C33.1976 62.8924 33.1003 62.9306 32.9753 62.9306H30.1092ZM30.1092 65.7446V64.8483H33.6214C33.6492 64.8899 33.6735 64.949 33.6944 65.0254C33.7222 65.1019 33.7361 65.1852 33.7361 65.2756C33.7361 65.4215 33.7013 65.5361 33.6319 65.6195C33.5624 65.7029 33.4651 65.7446 33.34 65.7446H30.1092ZM30.1092 60.2938V59.3975H33.5693C33.5971 59.4392 33.6214 59.4983 33.6423 59.5747C33.6701 59.6511 33.684 59.7345 33.684 59.8248C33.684 59.9708 33.6492 60.0854 33.5797 60.1688C33.5103 60.2521 33.413 60.2938 33.2879 60.2938H30.1092ZM38.1159 64.3897C38.1159 64.8552 37.9422 65.22 37.5948 65.484C37.2544 65.748 36.7576 65.88 36.1045 65.88C35.5625 65.88 35.1179 65.7967 34.7705 65.6299C34.4231 65.4632 34.2494 65.2617 34.2494 65.0254C34.2494 64.9212 34.2737 64.8274 34.3223 64.744C34.3779 64.6537 34.4509 64.5808 34.5412 64.5252C34.7357 64.6502 34.9581 64.7649 35.2082 64.8691C35.4653 64.9733 35.7536 65.0254 36.0732 65.0254C36.7263 65.0254 37.0529 64.817 37.0529 64.4001C37.0529 64.2195 36.9973 64.077 36.8861 63.9728C36.775 63.8616 36.6082 63.7783 36.3859 63.7227L35.6563 63.5351C35.1908 63.4309 34.8469 63.2641 34.6246 63.0348C34.4022 62.8055 34.291 62.5103 34.291 62.149C34.291 61.746 34.4543 61.4055 34.7809 61.1276C35.1144 60.8497 35.5973 60.7107 36.2295 60.7107C36.5561 60.7107 36.8444 60.7455 37.0946 60.8149C37.3516 60.8775 37.5497 60.9678 37.6886 61.0859C37.8345 61.204 37.9075 61.336 37.9075 61.4819C37.9075 61.5862 37.8832 61.68 37.8345 61.7633C37.7859 61.8467 37.7234 61.9093 37.6469 61.9509C37.5636 61.9023 37.4524 61.8467 37.3134 61.7842C37.1745 61.7217 37.0147 61.6695 36.834 61.6279C36.6603 61.5862 36.4797 61.5653 36.2921 61.5653C36.0003 61.5653 35.7675 61.6174 35.5938 61.7217C35.427 61.8189 35.3437 61.9614 35.3437 62.149C35.3437 62.281 35.3923 62.3991 35.4896 62.5033C35.5869 62.6006 35.7501 62.6735 35.9794 62.7222L36.5943 62.8785C37.1154 62.9966 37.4976 63.1807 37.7407 63.4309C37.9909 63.674 38.1159 63.9937 38.1159 64.3897ZM38.8768 62.9827H39.9399V64.3167C39.9399 64.5669 40.0128 64.744 40.1587 64.8483C40.3046 64.9525 40.5096 65.0046 40.7736 65.0046C40.8848 65.0046 41.0099 64.9872 41.1488 64.9525C41.2878 64.9177 41.4024 64.8761 41.4927 64.8274C41.5414 64.8761 41.5831 64.9386 41.6178 65.015C41.6595 65.0845 41.6803 65.1644 41.6803 65.2547C41.6803 65.4354 41.5865 65.5847 41.3989 65.7029C41.2183 65.814 40.9439 65.8696 40.5756 65.8696C40.0615 65.8696 39.648 65.755 39.3354 65.5257C39.0297 65.2964 38.8768 64.9143 38.8768 64.3793V62.9827ZM39.4813 61.8155V60.9608H41.5553C41.5831 61.0025 41.6074 61.0616 41.6282 61.138C41.656 61.2144 41.6699 61.2944 41.6699 61.3777C41.6699 61.5236 41.6352 61.6348 41.5657 61.7112C41.5032 61.7807 41.4128 61.8155 41.2947 61.8155H39.4813ZM39.9399 63.2745H38.8768V59.5122C38.9185 59.4983 38.9845 59.4809 39.0748 59.4601C39.1652 59.4392 39.2624 59.4288 39.3667 59.4288C39.5612 59.4288 39.7036 59.467 39.794 59.5435C39.8912 59.6199 39.9399 59.7449 39.9399 59.9186V63.2745ZM42.3154 59.3663C42.3154 59.1856 42.3779 59.0362 42.5029 58.9181C42.628 58.8 42.7809 58.741 42.9615 58.741C43.1561 58.741 43.3124 58.8 43.4305 58.9181C43.5486 59.0362 43.6077 59.1856 43.6077 59.3663C43.6077 59.54 43.5486 59.6894 43.4305 59.8144C43.3124 59.9325 43.1561 59.9916 42.9615 59.9916C42.7809 59.9916 42.628 59.9325 42.5029 59.8144C42.3779 59.6894 42.3154 59.54 42.3154 59.3663ZM42.43 62.9827H43.5035V65.7133C43.4548 65.7272 43.3853 65.7446 43.295 65.7654C43.2116 65.7862 43.1178 65.7967 43.0136 65.7967C42.8191 65.7967 42.6732 65.7584 42.5759 65.682C42.4786 65.6056 42.43 65.4805 42.43 65.3068V62.9827ZM43.5035 63.5142H42.43V60.8879C42.4786 60.874 42.5481 60.8601 42.6384 60.8462C42.7288 60.8254 42.826 60.8149 42.9302 60.8149C43.1248 60.8149 43.2672 60.8532 43.3576 60.9296C43.4548 60.9991 43.5035 61.1241 43.5035 61.3048V63.5142ZM48.683 62.3574V63.5559H47.6199V62.472C47.6199 62.1594 47.5296 61.9336 47.3489 61.7946C47.1683 61.6487 46.9355 61.5757 46.6507 61.5757C46.4561 61.5757 46.2685 61.607 46.0879 61.6695C45.9142 61.7321 45.7683 61.8016 45.6502 61.878V63.5559H44.5767V61.8571C44.5767 61.7043 44.608 61.5757 44.6705 61.4715C44.74 61.3673 44.8477 61.27 44.9936 61.1797C45.1881 61.0477 45.4382 60.9365 45.744 60.8462C46.0497 60.7559 46.3588 60.7107 46.6715 60.7107C47.0189 60.7107 47.3316 60.7663 47.6095 60.8775C47.8874 60.9817 48.1063 61.1311 48.2661 61.3256C48.3147 61.3673 48.3564 61.409 48.3911 61.4507C48.4259 61.4854 48.4571 61.5306 48.4849 61.5862C48.5405 61.6834 48.5857 61.7981 48.6204 61.9301C48.6621 62.0621 48.683 62.2045 48.683 62.3574ZM51.7158 62.4199V63.5559H50.6527V62.472C50.6527 62.1594 50.5659 61.9336 50.3922 61.7946C50.2185 61.6487 49.9857 61.5757 49.6939 61.5757C49.4785 61.5757 49.2701 61.6209 49.0686 61.7112C48.874 61.8016 48.7003 61.9231 48.5475 62.076L48.0472 61.3777C48.2487 61.1971 48.4954 61.0407 48.7872 60.9087C49.079 60.7767 49.4194 60.7107 49.8085 60.7107C50.1768 60.7107 50.5033 60.7733 50.7882 60.8983C51.08 61.0164 51.3058 61.204 51.4656 61.4611C51.6324 61.7112 51.7158 62.0308 51.7158 62.4199ZM44.5767 63.0244H45.6502V65.7133C45.6015 65.7272 45.532 65.7446 45.4417 65.7654C45.3583 65.7862 45.2645 65.7967 45.1603 65.7967C44.9658 65.7967 44.8199 65.7584 44.7226 65.682C44.6253 65.6056 44.5767 65.4805 44.5767 65.3068V63.0244ZM47.6199 63.0244H48.683V65.7133C48.6413 65.7272 48.5753 65.7446 48.4849 65.7654C48.3946 65.7862 48.2973 65.7967 48.1931 65.7967C47.9986 65.7967 47.8527 65.7584 47.7554 65.682C47.6651 65.6056 47.6199 65.4805 47.6199 65.3068V63.0244ZM50.6527 63.0244H51.7158V65.7133C51.6741 65.7272 51.6081 65.7446 51.5177 65.7654C51.4274 65.7862 51.3336 65.7967 51.2364 65.7967C51.0349 65.7967 50.8855 65.7584 50.7882 65.682C50.6979 65.6056 50.6527 65.4805 50.6527 65.3068V63.0244ZM54.5841 65.0463C54.8342 65.0463 55.0461 65.022 55.2198 64.9733C55.4005 64.9177 55.5325 64.8656 55.6159 64.817V63.4726L54.459 63.5872C54.1394 63.615 53.8962 63.6879 53.7295 63.8061C53.5697 63.9172 53.4898 64.084 53.4898 64.3063C53.4898 64.5356 53.5801 64.7162 53.7608 64.8483C53.9414 64.9803 54.2159 65.0463 54.5841 65.0463ZM54.5528 60.7107C55.199 60.7107 55.7097 60.8532 56.0849 61.138C56.467 61.4159 56.6581 61.8571 56.6581 62.4616V64.8899C56.6581 65.0498 56.6233 65.1748 56.5539 65.2651C56.4844 65.3555 56.3871 65.4354 56.262 65.5048C56.0814 65.6091 55.8452 65.6959 55.5533 65.7654C55.2685 65.8418 54.9454 65.88 54.5841 65.88C53.9101 65.88 53.3821 65.7515 53 65.4944C52.6248 65.2304 52.4372 64.8448 52.4372 64.3376C52.4372 63.879 52.5865 63.5281 52.8853 63.285C53.1841 63.0348 53.6079 62.8854 54.1568 62.8368L55.6159 62.6909V62.4512C55.6159 62.1385 55.5151 61.9127 55.3136 61.7738C55.1121 61.6348 54.8377 61.5653 54.4903 61.5653C54.2124 61.5653 53.9414 61.6035 53.6774 61.68C53.4203 61.7564 53.191 61.8432 52.9895 61.9405C52.927 61.8849 52.8714 61.8189 52.8228 61.7425C52.7741 61.6591 52.7498 61.5723 52.7498 61.4819C52.7498 61.2666 52.8679 61.1033 53.1042 60.9921C53.2987 60.9018 53.5211 60.8323 53.7712 60.7837C54.0283 60.735 54.2888 60.7107 54.5528 60.7107ZM57.6666 62.9827H58.7296V64.3167C58.7296 64.5669 58.8026 64.744 58.9485 64.8483C59.0944 64.9525 59.2994 65.0046 59.5634 65.0046C59.6746 65.0046 59.7996 64.9872 59.9386 64.9525C60.0775 64.9177 60.1922 64.8761 60.2825 64.8274C60.3311 64.8761 60.3728 64.9386 60.4076 65.015C60.4493 65.0845 60.4701 65.1644 60.4701 65.2547C60.4701 65.4354 60.3763 65.5847 60.1887 65.7029C60.0081 65.814 59.7336 65.8696 59.3654 65.8696C58.8512 65.8696 58.4378 65.755 58.1251 65.5257C57.8194 65.2964 57.6666 64.9143 57.6666 64.3793V62.9827ZM58.2711 61.8155V60.9608H60.345C60.3728 61.0025 60.3971 61.0616 60.418 61.138C60.4458 61.2144 60.4597 61.2944 60.4597 61.3777C60.4597 61.5236 60.4249 61.6348 60.3555 61.7112C60.2929 61.7807 60.2026 61.8155 60.0845 61.8155H58.2711ZM58.7296 63.2745H57.6666V59.5122C57.7083 59.4983 57.7743 59.4809 57.8646 59.4601C57.9549 59.4392 58.0522 59.4288 58.1564 59.4288C58.351 59.4288 58.4934 59.467 58.5837 59.5435C58.681 59.6199 58.7296 59.7449 58.7296 59.9186V63.2745ZM61.4937 63.8894L61.4415 63.1078L64.4014 62.6909C64.3806 62.3643 64.2659 62.0934 64.0575 61.878C63.849 61.6556 63.5537 61.5445 63.1716 61.5445C62.7825 61.5445 62.4594 61.6834 62.2024 61.9614C61.9453 62.2393 61.8133 62.6353 61.8063 63.1495L61.8272 63.5455C61.8827 64.0388 62.0599 64.4105 62.3587 64.6607C62.6574 64.9038 63.05 65.0254 63.5364 65.0254C63.8282 65.0254 64.0957 64.9803 64.3389 64.8899C64.582 64.7996 64.7766 64.7024 64.9225 64.5981C65.0059 64.6468 65.0719 64.7128 65.1205 64.7961C65.1761 64.8795 65.2039 64.9698 65.2039 65.0671C65.2039 65.22 65.1275 65.3589 64.9746 65.484C64.8218 65.6091 64.6133 65.7063 64.3493 65.7758C64.0922 65.8453 63.8004 65.88 63.4738 65.88C62.9388 65.88 62.4699 65.7828 62.0669 65.5882C61.6639 65.3867 61.3512 65.0914 61.1289 64.7024C60.9065 64.3063 60.7954 63.8234 60.7954 63.2537C60.7954 62.8438 60.8544 62.4825 60.9726 62.1698C61.0976 61.8502 61.2678 61.5827 61.4832 61.3673C61.6986 61.1519 61.9522 60.9886 62.244 60.8775C62.5359 60.7663 62.8485 60.7107 63.182 60.7107C63.6197 60.7107 64.0054 60.8045 64.3389 60.9921C64.6793 61.1728 64.9433 61.4264 65.1309 61.7529C65.3185 62.0795 65.4123 62.4512 65.4123 62.8681C65.4123 63.0418 65.3706 63.1703 65.2873 63.2537C65.2039 63.3301 65.0858 63.3788 64.9329 63.3996L61.4937 63.8894ZM69.3971 64.7753V61.3881H70.4706V64.8587C70.4706 65.0046 70.4393 65.1227 70.3768 65.213C70.3143 65.3034 70.2135 65.3902 70.0746 65.4736C69.9217 65.5709 69.7098 65.6612 69.4388 65.7446C69.1678 65.8349 68.8552 65.88 68.5008 65.88C67.9728 65.88 67.5107 65.7897 67.1147 65.6091C66.7256 65.4284 66.4199 65.1505 66.1976 64.7753C65.9822 64.3932 65.8745 63.9068 65.8745 63.3162C65.8745 62.7117 65.9822 62.2184 66.1976 61.8363C66.413 61.4542 66.7082 61.1728 67.0834 60.9921C67.4586 60.8045 67.8686 60.7107 68.3132 60.7107C68.5773 60.7107 68.8239 60.7455 69.0532 60.8149C69.2825 60.8844 69.4631 60.9713 69.5951 61.0755V62.0135C69.4701 61.8954 69.3103 61.7946 69.1157 61.7112C68.9212 61.6209 68.6954 61.5757 68.4383 61.5757C68.1673 61.5757 67.9172 61.6348 67.6879 61.7529C67.4656 61.8641 67.2884 62.0482 67.1564 62.3053C67.0244 62.5624 66.9584 62.9028 66.9584 63.3266C66.9584 63.9103 67.0973 64.3376 67.3753 64.6086C67.6532 64.8795 68.0249 65.015 68.4904 65.015C68.7058 65.015 68.883 64.9907 69.0219 64.9421C69.1678 64.8934 69.2929 64.8378 69.3971 64.7753ZM70.4706 61.6279H69.3971V58.9702C69.4458 58.9563 69.5152 58.939 69.6056 58.9181C69.6959 58.8973 69.7897 58.8869 69.887 58.8869C70.0885 58.8869 70.2344 58.9251 70.3247 59.0015C70.422 59.071 70.4706 59.1961 70.4706 59.3767V61.6279ZM77.6601 62.5137C77.6601 61.9648 77.5559 61.5202 77.3474 61.1797C77.139 60.8323 76.8611 60.5787 76.5137 60.4189C76.1663 60.2521 75.7737 60.1688 75.336 60.1688C75.1484 60.1688 74.9781 60.1757 74.8253 60.1896C74.6794 60.2035 74.5404 60.2209 74.4084 60.2417V64.8691C74.5543 64.9038 74.7141 64.9282 74.8878 64.9421C75.0615 64.956 75.2352 64.9629 75.4089 64.9629C76.1315 64.9629 76.6874 64.7579 77.0764 64.348C77.4655 63.9311 77.6601 63.3197 77.6601 62.5137ZM78.7752 62.5137C78.7752 63.2641 78.6363 63.8894 78.3584 64.3897C78.0804 64.883 77.6879 65.2512 77.1807 65.4944C76.6804 65.7376 76.0898 65.8592 75.4089 65.8592C75.1866 65.8592 74.926 65.8488 74.6273 65.8279C74.3285 65.8071 74.0506 65.755 73.7935 65.6716C73.4808 65.5674 73.3245 65.3833 73.3245 65.1192V59.8874C73.3245 59.7693 73.3558 59.6789 73.4183 59.6164C73.4878 59.5469 73.5816 59.4948 73.6997 59.4601C73.9359 59.3836 74.1965 59.335 74.4814 59.3142C74.7662 59.2864 75.0442 59.2725 75.3151 59.2725C76.003 59.2725 76.604 59.3941 77.1181 59.6372C77.6392 59.8735 78.0457 60.2313 78.3375 60.7107C78.6293 61.1832 78.7752 61.7842 78.7752 62.5137ZM80.0697 63.8894L80.0176 63.1078L82.9774 62.6909C82.9566 62.3643 82.8419 62.0934 82.6335 61.878C82.4251 61.6556 82.1298 61.5445 81.7476 61.5445C81.3585 61.5445 81.0355 61.6834 80.7784 61.9614C80.5213 62.2393 80.3893 62.6353 80.3823 63.1495L80.4032 63.5455C80.4588 64.0388 80.6359 64.4105 80.9347 64.6607C81.2335 64.9038 81.626 65.0254 82.1124 65.0254C82.4042 65.0254 82.6717 64.9803 82.9149 64.8899C83.1581 64.7996 83.3526 64.7024 83.4985 64.5981C83.5819 64.6468 83.6479 64.7128 83.6965 64.7961C83.7521 64.8795 83.7799 64.9698 83.7799 65.0671C83.7799 65.22 83.7035 65.3589 83.5506 65.484C83.3978 65.6091 83.1893 65.7063 82.9253 65.7758C82.6682 65.8453 82.3764 65.88 82.0499 65.88C81.5149 65.88 81.0459 65.7828 80.6429 65.5882C80.2399 65.3867 79.9272 65.0914 79.7049 64.7024C79.4826 64.3063 79.3714 63.8234 79.3714 63.2537C79.3714 62.8438 79.4305 62.4825 79.5486 62.1698C79.6736 61.8502 79.8439 61.5827 80.0593 61.3673C80.2746 61.1519 80.5283 60.9886 80.8201 60.8775C81.1119 60.7663 81.4245 60.7107 81.758 60.7107C82.1958 60.7107 82.5814 60.8045 82.9149 60.9921C83.2553 61.1728 83.5194 61.4264 83.707 61.7529C83.8946 62.0795 83.9884 62.4512 83.9884 62.8681C83.9884 63.0418 83.9467 63.1703 83.8633 63.2537C83.7799 63.3301 83.6618 63.3788 83.5089 63.3996L80.0697 63.8894ZM84.784 62.9827L85.8471 63.0765V65.7133C85.8054 65.7272 85.7394 65.7446 85.649 65.7654C85.5587 65.7862 85.4614 65.7967 85.3572 65.7967C85.1627 65.7967 85.0168 65.7584 84.9195 65.682C84.8292 65.6056 84.784 65.4805 84.784 65.3068V62.9827ZM85.8471 63.608L84.784 63.5142V58.9702C84.8257 58.9563 84.8917 58.939 84.982 58.9181C85.0724 58.8973 85.1662 58.8869 85.2634 58.8869C85.4649 58.8869 85.6108 58.9251 85.7012 59.0015C85.7984 59.071 85.8471 59.1961 85.8471 59.3767V63.608ZM86.9082 59.3663C86.9082 59.1856 86.9707 59.0362 87.0958 58.9181C87.2208 58.8 87.3737 58.741 87.5543 58.741C87.7489 58.741 87.9052 58.8 88.0233 58.9181C88.1414 59.0362 88.2005 59.1856 88.2005 59.3663C88.2005 59.54 88.1414 59.6894 88.0233 59.8144C87.9052 59.9325 87.7489 59.9916 87.5543 59.9916C87.3737 59.9916 87.2208 59.9325 87.0958 59.8144C86.9707 59.6894 86.9082 59.54 86.9082 59.3663ZM87.0228 62.9827H88.0963V65.7133C88.0476 65.7272 87.9781 65.7446 87.8878 65.7654C87.8044 65.7862 87.7107 65.7967 87.6064 65.7967C87.4119 65.7967 87.266 65.7584 87.1687 65.682C87.0714 65.6056 87.0228 65.4805 87.0228 65.3068V62.9827ZM88.0963 63.5142H87.0228V60.8879C87.0714 60.874 87.1409 60.8601 87.2312 60.8462C87.3216 60.8254 87.4188 60.8149 87.5231 60.8149C87.7176 60.8149 87.86 60.8532 87.9504 60.9296C88.0476 60.9991 88.0963 61.1241 88.0963 61.3048V63.5142ZM92.8797 60.7628C93.0326 60.7628 93.1576 60.801 93.2549 60.8775C93.3522 60.947 93.4008 61.0581 93.4008 61.211C93.4008 61.3082 93.3626 61.4854 93.2862 61.7425C93.2098 61.9996 93.109 62.3018 92.9839 62.6492C92.8658 62.9897 92.7338 63.3475 92.5879 63.7227C92.442 64.0979 92.2926 64.4557 92.1398 64.7961C91.9939 65.1366 91.8584 65.4249 91.7333 65.6612C91.6847 65.7029 91.6013 65.7376 91.4832 65.7654C91.372 65.7932 91.2504 65.8071 91.1184 65.8071C90.9655 65.8071 90.8301 65.7828 90.7119 65.7341C90.5938 65.6924 90.5139 65.6264 90.4722 65.5361C90.3958 65.3902 90.2985 65.1852 90.1804 64.9212C90.0623 64.6572 89.9338 64.355 89.7948 64.0145C89.6628 63.674 89.5273 63.3232 89.3883 62.9619C89.2563 62.5936 89.1313 62.2428 89.0132 61.9093C88.902 61.5757 88.8117 61.2805 88.7422 61.0234C88.7978 60.947 88.8777 60.8844 88.9819 60.8358C89.0861 60.7871 89.1938 60.7628 89.305 60.7628C89.4578 60.7628 89.5794 60.7976 89.6697 60.867C89.767 60.9365 89.8434 61.0616 89.899 61.2422L90.4827 63.0453C90.5382 63.212 90.6043 63.4065 90.6807 63.6289C90.7641 63.8512 90.844 64.0701 90.9204 64.2855C90.9968 64.5009 91.0593 64.6815 91.108 64.8274H91.1497C91.3929 64.1674 91.6221 63.5038 91.8375 62.8368C92.0599 62.1629 92.2509 61.5063 92.4107 60.867C92.5427 60.7976 92.6991 60.7628 92.8797 60.7628ZM94.4219 63.8894L94.3698 63.1078L97.3297 62.6909C97.3088 62.3643 97.1942 62.0934 96.9858 61.878C96.7773 61.6556 96.482 61.5445 96.0999 61.5445C95.7108 61.5445 95.3877 61.6834 95.1306 61.9614C94.8736 62.2393 94.7416 62.6353 94.7346 63.1495L94.7554 63.5455C94.811 64.0388 94.9882 64.4105 95.287 64.6607C95.5857 64.9038 95.9783 65.0254 96.4647 65.0254C96.7565 65.0254 97.024 64.9803 97.2672 64.8899C97.5103 64.7996 97.7049 64.7024 97.8508 64.5981C97.9342 64.6468 98.0002 64.7128 98.0488 64.7961C98.1044 64.8795 98.1322 64.9698 98.1322 65.0671C98.1322 65.22 98.0558 65.3589 97.9029 65.484C97.75 65.6091 97.5416 65.7063 97.2776 65.7758C97.0205 65.8453 96.7287 65.88 96.4021 65.88C95.8671 65.88 95.3981 65.7828 94.9952 65.5882C94.5922 65.3867 94.2795 65.0914 94.0572 64.7024C93.8348 64.3063 93.7237 63.8234 93.7237 63.2537C93.7237 62.8438 93.7827 62.4825 93.9008 62.1698C94.0259 61.8502 94.1961 61.5827 94.4115 61.3673C94.6269 61.1519 94.8805 60.9886 95.1723 60.8775C95.4641 60.7663 95.7768 60.7107 96.1103 60.7107C96.548 60.7107 96.9336 60.8045 97.2672 60.9921C97.6076 61.1728 97.8716 61.4264 98.0592 61.7529C98.2468 62.0795 98.3406 62.4512 98.3406 62.8681C98.3406 63.0418 98.2989 63.1703 98.2156 63.2537C98.1322 63.3301 98.0141 63.3788 97.8612 63.3996L94.4219 63.8894ZM100.126 61.8988V63.4309H99.0529V61.878C99.0529 61.7112 99.0876 61.5757 99.1571 61.4715C99.2335 61.3604 99.3447 61.2561 99.4906 61.1589C99.6852 61.0338 99.9388 60.9296 100.251 60.8462C100.571 60.7628 100.918 60.7211 101.294 60.7211C101.898 60.7211 102.2 60.8914 102.2 61.2318C102.2 61.3152 102.186 61.3916 102.159 61.4611C102.138 61.5306 102.11 61.5931 102.075 61.6487C102.006 61.6348 101.915 61.6209 101.804 61.607C101.7 61.5931 101.592 61.5862 101.481 61.5862C101.196 61.5862 100.936 61.6174 100.7 61.68C100.47 61.7355 100.279 61.8085 100.126 61.8988ZM99.0529 62.9827L100.126 63.0765V65.7133C100.078 65.7272 100.008 65.7446 99.9179 65.7654C99.8345 65.7862 99.7408 65.7967 99.6365 65.7967C99.442 65.7967 99.2961 65.7584 99.1988 65.682C99.1015 65.6056 99.0529 65.4805 99.0529 65.3068V62.9827ZM103.788 64.6086C103.669 64.3793 103.534 64.084 103.381 63.7227C103.228 63.3614 103.068 62.9515 102.902 62.4929C102.735 62.0343 102.575 61.5445 102.422 61.0234C102.478 60.947 102.554 60.8844 102.652 60.8358C102.756 60.7871 102.867 60.7628 102.985 60.7628C103.138 60.7628 103.263 60.7976 103.36 60.867C103.458 60.9365 103.534 61.0616 103.59 61.2422C103.777 61.805 103.975 62.3609 104.184 62.9098C104.392 63.4587 104.614 64.0249 104.851 64.6086H104.892C105.031 64.3098 105.174 63.9485 105.32 63.5247C105.466 63.1008 105.604 62.6562 105.737 62.1906C105.875 61.7251 105.987 61.2839 106.07 60.867C106.139 60.8393 106.212 60.8149 106.289 60.7941C106.365 60.7732 106.445 60.7628 106.529 60.7628C106.681 60.7628 106.806 60.7976 106.904 60.867C107.008 60.9365 107.06 61.0477 107.06 61.2006C107.06 61.3395 107.029 61.5445 106.966 61.8155C106.911 62.0795 106.827 62.3817 106.716 62.7222C106.612 63.0626 106.49 63.4204 106.351 63.7956C106.219 64.1639 106.073 64.5252 105.914 64.8795C105.754 65.2339 105.594 65.5535 105.434 65.8384C105.101 66.4498 104.792 66.9153 104.507 67.2349C104.229 67.5545 103.965 67.7143 103.715 67.7143C103.52 67.7143 103.367 67.6587 103.256 67.5476C103.145 67.4433 103.079 67.3148 103.058 67.1619C103.204 67.0299 103.367 66.8632 103.548 66.6617C103.729 66.4671 103.902 66.2518 104.069 66.0155C104.243 65.7862 104.385 65.5674 104.496 65.3589C104.378 65.3242 104.264 65.2582 104.152 65.1609C104.041 65.0567 103.92 64.8726 103.788 64.6086Z" fill="#6E6D7A"/>
<path d="M30.244 78.6426L29.3634 78.6341V76.0683C29.3634 75.9215 29.4057 75.8058 29.4904 75.7211C29.5807 75.6308 29.6965 75.5857 29.8376 75.5857C29.9223 75.5857 30.0013 75.5941 30.0747 75.6111C30.1537 75.628 30.2102 75.6449 30.244 75.6619V78.6426ZM29.8376 78.6172V77.8805H32.361C32.3836 77.92 32.4034 77.9708 32.4203 78.0329C32.4429 78.0893 32.4542 78.1542 32.4542 78.2276C32.4542 78.3462 32.4259 78.4422 32.3695 78.5155C32.313 78.5833 32.234 78.6172 32.1324 78.6172H29.8376ZM29.8376 76.3224V75.5857H32.6574C32.68 75.6195 32.6997 75.6703 32.7167 75.7381C32.7393 75.8002 32.7505 75.8651 32.7505 75.9328C32.7505 76.057 32.7223 76.153 32.6659 76.2207C32.6094 76.2885 32.5276 76.3224 32.4203 76.3224H29.8376ZM29.3634 77.855H30.2525V80.7257C30.2186 80.7313 30.1622 80.7426 30.0832 80.7595C30.0098 80.7765 29.9307 80.7849 29.8461 80.7849C29.6823 80.7849 29.561 80.7539 29.4819 80.6918C29.4029 80.624 29.3634 80.5196 29.3634 80.3785V77.855ZM34.0619 77.6179V78.8627H33.1897V77.601C33.1897 77.4655 33.2179 77.3554 33.2744 77.2708C33.3365 77.1804 33.4268 77.0958 33.5453 77.0167C33.7034 76.9151 33.9095 76.8304 34.1635 76.7627C34.4232 76.6949 34.7054 76.6611 35.0103 76.6611C35.5014 76.6611 35.747 76.7994 35.747 77.076C35.747 77.1437 35.7357 77.2058 35.7131 77.2623C35.6962 77.3187 35.6736 77.3696 35.6454 77.4147C35.5889 77.4034 35.5155 77.3921 35.4252 77.3808C35.3405 77.3696 35.253 77.3639 35.1627 77.3639C34.9312 77.3639 34.7195 77.3893 34.5276 77.4401C34.3413 77.4853 34.1861 77.5446 34.0619 77.6179ZM33.1897 78.4986L34.0619 78.5748V80.7172C34.0224 80.7285 33.9659 80.7426 33.8925 80.7595C33.8248 80.7765 33.7486 80.7849 33.6639 80.7849C33.5058 80.7849 33.3873 80.7539 33.3082 80.6918C33.2292 80.6297 33.1897 80.5281 33.1897 80.3869V78.4986ZM36.0914 75.5603C36.0914 75.4135 36.1422 75.2921 36.2438 75.1961C36.3454 75.1002 36.4696 75.0522 36.6164 75.0522C36.7745 75.0522 36.9015 75.1002 36.9975 75.1961C37.0934 75.2921 37.1414 75.4135 37.1414 75.5603C37.1414 75.7014 37.0934 75.8228 36.9975 75.9244C36.9015 76.0203 36.7745 76.0683 36.6164 76.0683C36.4696 76.0683 36.3454 76.0203 36.2438 75.9244C36.1422 75.8228 36.0914 75.7014 36.0914 75.5603ZM36.1845 78.4986H37.0567V80.7172C37.0172 80.7285 36.9608 80.7426 36.8874 80.7595C36.8196 80.7765 36.7434 80.7849 36.6587 80.7849C36.5007 80.7849 36.3821 80.7539 36.3031 80.6918C36.2241 80.6297 36.1845 80.5281 36.1845 80.3869V78.4986ZM37.0567 78.9305H36.1845V76.7966C36.2241 76.7853 36.2805 76.774 36.3539 76.7627C36.4273 76.7458 36.5063 76.7373 36.591 76.7373C36.7491 76.7373 36.8648 76.7683 36.9382 76.8304C37.0172 76.8869 37.0567 76.9885 37.0567 77.1353V78.9305ZM40.5876 79.9551V77.203H41.4598V80.0228C41.4598 80.1414 41.4344 80.2373 41.3836 80.3107C41.3328 80.3841 41.251 80.4547 41.1381 80.5224C41.0139 80.6015 40.8417 80.6749 40.6215 80.7426C40.4013 80.816 40.1473 80.8527 39.8594 80.8527C39.4304 80.8527 39.055 80.7793 38.7332 80.6325C38.417 80.4857 38.1686 80.2599 37.988 79.9551C37.813 79.6446 37.7255 79.2494 37.7255 78.7696C37.7255 78.2784 37.813 77.8776 37.988 77.5671C38.163 77.2567 38.4029 77.028 38.7078 76.8812C39.0126 76.7288 39.3457 76.6526 39.707 76.6526C39.9215 76.6526 40.1219 76.6808 40.3082 76.7373C40.4945 76.7937 40.6413 76.8643 40.7485 76.949V77.7111C40.6469 77.6151 40.5171 77.5333 40.359 77.4655C40.2009 77.3921 40.0175 77.3554 39.8086 77.3554C39.5884 77.3554 39.3852 77.4034 39.1989 77.4994C39.0183 77.5897 38.8743 77.7393 38.767 77.9482C38.6598 78.1571 38.6062 78.4337 38.6062 78.778C38.6062 79.2523 38.7191 79.5994 38.9449 79.8196C39.1707 80.0398 39.4727 80.1498 39.8509 80.1498C40.0259 80.1498 40.1699 80.1301 40.2828 80.0906C40.4013 80.0511 40.503 80.0059 40.5876 79.9551ZM41.4598 77.3978H40.5876V75.2385C40.6272 75.2272 40.6836 75.2131 40.757 75.1961C40.8304 75.1792 40.9066 75.1707 40.9856 75.1707C41.1493 75.1707 41.2679 75.2018 41.3413 75.2639C41.4203 75.3203 41.4598 75.4219 41.4598 75.5687V77.3978ZM43.7939 80.1753C43.9972 80.1753 44.1693 80.1555 44.3105 80.116C44.4572 80.0708 44.5645 80.0285 44.6322 79.989V78.8966L43.6923 78.9897C43.4326 79.0123 43.235 79.0716 43.0996 79.1676C42.9697 79.2579 42.9048 79.3934 42.9048 79.574C42.9048 79.7603 42.9782 79.9071 43.125 80.0144C43.2717 80.1216 43.4947 80.1753 43.7939 80.1753ZM43.7685 76.6526C44.2935 76.6526 44.7085 76.7683 45.0133 76.9998C45.3238 77.2256 45.479 77.5841 45.479 78.0752V80.0482C45.479 80.1781 45.4508 80.2797 45.3944 80.3531C45.3379 80.4265 45.2589 80.4914 45.1573 80.5478C45.0105 80.6325 44.8185 80.7031 44.5814 80.7595C44.35 80.8216 44.0875 80.8527 43.7939 80.8527C43.2463 80.8527 42.8173 80.7482 42.5068 80.5394C42.202 80.3248 42.0495 80.0115 42.0495 79.5994C42.0495 79.2268 42.1709 78.9418 42.4137 78.7442C42.6564 78.5409 43.0008 78.4196 43.4467 78.3801L44.6322 78.2615V78.0667C44.6322 77.8127 44.5504 77.6292 44.3867 77.5163C44.223 77.4034 44 77.347 43.7177 77.347C43.4919 77.347 43.2717 77.378 43.0572 77.4401C42.8483 77.5022 42.6621 77.5728 42.4983 77.6518C42.4475 77.6067 42.4024 77.553 42.3629 77.4909C42.3233 77.4232 42.3036 77.3526 42.3036 77.2792C42.3036 77.1042 42.3995 76.9716 42.5915 76.8812C42.7496 76.8079 42.9302 76.7514 43.1334 76.7119C43.3423 76.6724 43.554 76.6526 43.7685 76.6526ZM46.9444 79.8196C46.8484 79.6333 46.7383 79.3934 46.6141 79.0998C46.4899 78.8063 46.3601 78.4732 46.2246 78.1006C46.0891 77.728 45.9593 77.33 45.8351 76.9066C45.8802 76.8445 45.9423 76.7937 46.0214 76.7542C46.1061 76.7147 46.1964 76.6949 46.2924 76.6949C46.4165 76.6949 46.5182 76.7232 46.5972 76.7796C46.6762 76.8361 46.7383 76.9377 46.7835 77.0845C46.9359 77.5417 47.0968 77.9934 47.2662 78.4393C47.4355 78.8853 47.6162 79.3454 47.8081 79.8196H47.842C47.9549 79.5769 48.0706 79.2833 48.1892 78.9389C48.3077 78.5946 48.4206 78.2333 48.5279 77.855C48.6408 77.4768 48.7311 77.1183 48.7988 76.7796C48.8553 76.757 48.9146 76.7373 48.9767 76.7204C49.0388 76.7034 49.1037 76.6949 49.1714 76.6949C49.2956 76.6949 49.3972 76.7232 49.4763 76.7796C49.561 76.8361 49.6033 76.9264 49.6033 77.0506C49.6033 77.1635 49.5779 77.33 49.5271 77.5502C49.4819 77.7647 49.4142 78.0103 49.3239 78.2869C49.2392 78.5635 49.1404 78.8543 49.0275 79.1591C48.9202 79.4583 48.8017 79.7519 48.6718 80.0398C48.542 80.3277 48.4121 80.5874 48.2823 80.8188C48.0113 81.3156 47.7601 81.6938 47.5287 81.9535C47.3029 82.2132 47.0883 82.343 46.8851 82.343C46.727 82.343 46.6028 82.2979 46.5125 82.2075C46.4222 82.1229 46.3686 82.0184 46.3516 81.8942C46.4702 81.787 46.6028 81.6515 46.7496 81.4878C46.8964 81.3297 47.0375 81.1547 47.173 80.9628C47.3141 80.7765 47.4299 80.5986 47.5202 80.4293C47.4242 80.4011 47.3311 80.3474 47.2408 80.2684C47.1504 80.1837 47.0516 80.0341 46.9444 79.8196ZM49.9407 81.4878C49.8278 81.6571 49.6867 81.7418 49.5173 81.7418C49.3649 81.7418 49.235 81.6882 49.1278 81.5809C49.1899 81.4172 49.252 81.2281 49.3141 81.0136C49.3818 80.8047 49.4411 80.593 49.4919 80.3785C49.5483 80.1583 49.5935 79.9664 49.6274 79.8027C49.6838 79.7744 49.7488 79.7519 49.8221 79.7349C49.8955 79.7123 49.9717 79.701 50.0508 79.701C50.175 79.701 50.2738 79.7293 50.3471 79.7857C50.4205 79.8422 50.4572 79.9381 50.4572 80.0736C50.4572 80.2035 50.4262 80.3644 50.3641 80.5563C50.3076 80.7426 50.2371 80.9204 50.1524 81.0898C50.0734 81.2648 50.0028 81.3974 49.9407 81.4878ZM55.4373 79.4131C55.3922 79.447 55.3301 79.4781 55.2511 79.5063C55.172 79.5345 55.0845 79.5486 54.9885 79.5486C54.87 79.5486 54.7684 79.5317 54.6837 79.4978C54.599 79.4639 54.5397 79.4075 54.5059 79.3285C54.2405 78.7301 54.0119 78.1966 53.82 77.728C53.628 77.2538 53.4756 76.8587 53.3627 76.5425H53.3204C53.3034 76.9433 53.2865 77.3159 53.2696 77.6603C53.2526 78.0046 53.2357 78.3377 53.2188 78.6595C53.2018 78.9813 53.1849 79.3115 53.1679 79.6502C53.151 79.9833 53.1313 80.3418 53.1087 80.7257C53.0635 80.737 53.0042 80.7482 52.9308 80.7595C52.8631 80.7765 52.7925 80.7849 52.7192 80.7849C52.5611 80.7849 52.4454 80.7567 52.372 80.7003C52.2986 80.6382 52.2619 80.5478 52.2619 80.4293C52.2619 80.3446 52.2675 80.1809 52.2788 79.9381C52.2958 79.6898 52.3127 79.3934 52.3296 79.049C52.3522 78.7047 52.3748 78.3405 52.3974 77.9567C52.4256 77.5671 52.4538 77.1833 52.4821 76.805C52.5159 76.4268 52.5441 76.0824 52.5667 75.7719C52.6119 75.7268 52.6853 75.6816 52.7869 75.6365C52.8885 75.5857 53.0155 75.5603 53.1679 75.5603C53.3373 75.5603 53.4756 75.5913 53.5829 75.6534C53.6958 75.7155 53.7805 75.8115 53.8369 75.9413C53.9668 76.2066 54.0966 76.4974 54.2264 76.8135C54.3563 77.124 54.4833 77.4401 54.6075 77.7619C54.7317 78.078 54.8502 78.3716 54.9631 78.6426H55.0055C55.2256 78.078 55.443 77.5333 55.6575 77.0083C55.8777 76.4776 56.064 76.0288 56.2164 75.6619C56.2785 75.6336 56.3547 75.6111 56.445 75.5941C56.541 75.5715 56.6341 75.5603 56.7245 75.5603C56.8882 75.5603 57.0208 75.5885 57.1225 75.6449C57.2241 75.6957 57.2862 75.7748 57.3087 75.882C57.3313 75.9836 57.3567 76.1502 57.385 76.3816C57.4132 76.6131 57.4414 76.8841 57.4696 77.1946C57.4979 77.505 57.5233 77.8296 57.5458 78.1684C57.5741 78.5071 57.5995 78.8401 57.6221 79.1676C57.6503 79.4894 57.6729 79.7829 57.6898 80.0482C57.7067 80.3079 57.718 80.5168 57.7237 80.6749C57.6616 80.7144 57.5967 80.7426 57.5289 80.7595C57.4612 80.7765 57.3793 80.7849 57.2833 80.7849C57.1704 80.7849 57.0688 80.7624 56.9785 80.7172C56.8938 80.6664 56.8458 80.5704 56.8345 80.4293C56.8063 79.9156 56.7781 79.416 56.7499 78.9305C56.7216 78.4393 56.6991 77.9905 56.6821 77.5841C56.6652 77.172 56.6483 76.8333 56.6313 76.5679H56.5974C56.4902 76.8558 56.3406 77.2256 56.1486 77.6772C55.9624 78.1232 55.7253 78.7018 55.4373 79.4131ZM60.0285 80.1753C60.2317 80.1753 60.4039 80.1555 60.545 80.116C60.6918 80.0708 60.799 80.0285 60.8668 79.989V78.8966L59.9268 78.9897C59.6672 79.0123 59.4696 79.0716 59.3341 79.1676C59.2043 79.2579 59.1393 79.3934 59.1393 79.574C59.1393 79.7603 59.2127 79.9071 59.3595 80.0144C59.5063 80.1216 59.7293 80.1753 60.0285 80.1753ZM60.0031 76.6526C60.5281 76.6526 60.943 76.7683 61.2478 76.9998C61.5583 77.2256 61.7136 77.5841 61.7136 78.0752V80.0482C61.7136 80.1781 61.6853 80.2797 61.6289 80.3531C61.5724 80.4265 61.4934 80.4914 61.3918 80.5478C61.245 80.6325 61.0531 80.7031 60.816 80.7595C60.5845 80.8216 60.322 80.8527 60.0285 80.8527C59.4809 80.8527 59.0518 80.7482 58.7413 80.5394C58.4365 80.3248 58.2841 80.0115 58.2841 79.5994C58.2841 79.2268 58.4054 78.9418 58.6482 78.7442C58.8909 78.5409 59.2353 78.4196 59.6813 78.3801L60.8668 78.2615V78.0667C60.8668 77.8127 60.7849 77.6292 60.6212 77.5163C60.4575 77.4034 60.2345 77.347 59.9523 77.347C59.7264 77.347 59.5063 77.378 59.2918 77.4401C59.0829 77.5022 58.8966 77.5728 58.7329 77.6518C58.6821 77.6067 58.6369 77.553 58.5974 77.4909C58.5579 77.4232 58.5381 77.3526 58.5381 77.2792C58.5381 77.1042 58.6341 76.9716 58.826 76.8812C58.9841 76.8079 59.1647 76.7514 59.368 76.7119C59.5768 76.6724 59.7885 76.6526 60.0031 76.6526ZM63.3882 77.6179V78.8627H62.516V77.601C62.516 77.4655 62.5443 77.3554 62.6007 77.2708C62.6628 77.1804 62.7531 77.0958 62.8717 77.0167C63.0298 76.9151 63.2358 76.8304 63.4898 76.7627C63.7495 76.6949 64.0318 76.6611 64.3366 76.6611C64.8278 76.6611 65.0733 76.7994 65.0733 77.076C65.0733 77.1437 65.062 77.2058 65.0395 77.2623C65.0225 77.3187 65 77.3696 64.9717 77.4147C64.9153 77.4034 64.8419 77.3921 64.7516 77.3808C64.6669 77.3696 64.5794 77.3639 64.4891 77.3639C64.2576 77.3639 64.0459 77.3893 63.854 77.4401C63.6677 77.4853 63.5124 77.5446 63.3882 77.6179ZM62.516 78.4986L63.3882 78.5748V80.7172C63.3487 80.7285 63.2923 80.7426 63.2189 80.7595C63.1511 80.7765 63.0749 80.7849 62.9902 80.7849C62.8322 80.7849 62.7136 80.7539 62.6346 80.6918C62.5556 80.6297 62.516 80.5281 62.516 80.3869V78.4986ZM67.3085 77.3639C66.9528 77.3639 66.6536 77.4853 66.4109 77.728C66.1681 77.9651 66.0467 78.3095 66.0467 78.7611C66.0467 79.2071 66.1625 79.5486 66.3939 79.7857C66.631 80.0228 66.9359 80.1414 67.3085 80.1414C67.5286 80.1414 67.7149 80.1132 67.8673 80.0567C68.0198 79.9946 68.1524 79.9269 68.2653 79.8535C68.3387 79.8986 68.398 79.9523 68.4432 80.0144C68.4883 80.0765 68.5109 80.1498 68.5109 80.2345C68.5109 80.4095 68.3952 80.5563 68.1637 80.6749C67.9323 80.7878 67.6331 80.8442 67.2661 80.8442C66.854 80.8442 66.4899 80.768 66.1738 80.6156C65.8576 80.4632 65.6092 80.2317 65.4286 79.9212C65.2536 79.6107 65.1661 79.224 65.1661 78.7611C65.1661 78.2926 65.2592 77.903 65.4455 77.5925C65.6318 77.2821 65.883 77.0478 66.1992 76.8897C66.5153 76.7316 66.8625 76.6526 67.2407 76.6526C67.602 76.6526 67.8956 76.7175 68.1214 76.8474C68.3528 76.9716 68.4686 77.1183 68.4686 77.2877C68.4686 77.3667 68.446 77.4373 68.4008 77.4994C68.3613 77.5615 68.3105 77.6123 68.2484 77.6518C68.1299 77.5728 67.9972 77.505 67.8504 77.4486C67.7036 77.3921 67.523 77.3639 67.3085 77.3639ZM72.6724 79.0321H71.8087V78.2615C71.8087 77.951 71.7212 77.7224 71.5462 77.5756C71.3768 77.4288 71.1595 77.3554 70.8942 77.3554C70.6853 77.3554 70.4933 77.395 70.3183 77.474C70.1433 77.553 69.9966 77.6462 69.878 77.7534L69.7849 77.0506C69.9147 76.9603 70.0869 76.8728 70.3014 76.7881C70.5159 76.6978 70.7587 76.6526 71.0296 76.6526C71.5208 76.6526 71.9159 76.7853 72.2151 77.0506C72.52 77.3103 72.6724 77.7026 72.6724 78.2276V79.0321ZM69.1244 78.4986H69.9966V80.7172C69.957 80.7285 69.9006 80.7426 69.8272 80.7595C69.7595 80.7765 69.6832 80.7849 69.5986 80.7849C69.4405 80.7849 69.3219 80.7539 69.2429 80.6918C69.1639 80.6297 69.1244 80.5281 69.1244 80.3869V78.4986ZM71.8087 78.5071H72.6724V80.7172C72.6385 80.7285 72.5849 80.7426 72.5115 80.7595C72.4381 80.7765 72.3591 80.7849 72.2744 80.7849C72.1164 80.7849 71.9978 80.7539 71.9188 80.6918C71.8454 80.6297 71.8087 80.5281 71.8087 80.3869V78.5071ZM69.9966 78.9305H69.1244V75.2385C69.1639 75.2272 69.2203 75.2131 69.2937 75.1961C69.3671 75.1792 69.4461 75.1707 69.5308 75.1707C69.6889 75.1707 69.8046 75.2018 69.878 75.2639C69.957 75.3203 69.9966 75.4219 69.9966 75.5687V78.9305ZM74.7705 76.1699C74.7705 76.0457 74.8354 75.93 74.9652 75.8228C75.0951 75.7155 75.2701 75.6308 75.4902 75.5687C75.7104 75.5066 75.9588 75.4756 76.2354 75.4756C76.6136 75.4756 76.9382 75.5405 77.2092 75.6703C77.4802 75.7945 77.6862 75.9695 77.8274 76.1953C77.9741 76.4155 78.0475 76.6752 78.0475 76.9744C78.0475 77.2849 77.96 77.5869 77.785 77.8805C77.6157 78.174 77.3334 78.4986 76.9382 78.8543L75.6257 80.0313H78.0221C78.0447 80.0652 78.0645 80.1132 78.0814 80.1753C78.104 80.2317 78.1153 80.2994 78.1153 80.3785C78.1153 80.497 78.0871 80.5874 78.0306 80.6495C77.9741 80.7059 77.8979 80.7341 77.802 80.7341H74.8213C74.7479 80.6833 74.6914 80.6184 74.6519 80.5394C74.6124 80.4603 74.5926 80.3728 74.5926 80.2769C74.5926 80.164 74.6152 80.0652 74.6604 79.9805C74.7112 79.8902 74.7733 79.814 74.8467 79.7519L76.2777 78.397C76.6165 78.0921 76.8479 77.8381 76.9721 77.6349C77.0963 77.426 77.1584 77.2143 77.1584 76.9998C77.1584 76.7627 77.0737 76.5708 76.9044 76.424C76.735 76.2716 76.4866 76.1953 76.1592 76.1953C75.9164 76.1953 75.6991 76.2377 75.5072 76.3224C75.3152 76.4014 75.1572 76.4861 75.033 76.5764C74.9596 76.5369 74.8975 76.4832 74.8467 76.4155C74.7959 76.3478 74.7705 76.2659 74.7705 76.1699Z" fill="#6E6D7A"/>
<rect x="10.422" y="106.578" width="141.156" height="32.633" rx="16.3165" fill="#DA3832"/>
<path d="M49.1263 124.279C49.5015 124.279 49.769 124.213 49.9288 124.081C50.0956 123.942 50.179 123.779 50.179 123.591C50.179 123.418 50.113 123.279 49.981 123.174C49.8559 123.063 49.6683 122.969 49.4182 122.893L48.8658 122.716C48.4906 122.591 48.1571 122.452 47.8653 122.299C47.5804 122.146 47.3581 121.948 47.1983 121.705C47.0454 121.462 46.969 121.153 46.969 120.777C46.969 120.201 47.1879 119.742 47.6256 119.402C48.0633 119.061 48.6713 118.891 49.4494 118.891C49.8455 118.891 50.1963 118.929 50.5021 119.006C50.8147 119.082 51.0579 119.197 51.2316 119.35C51.4122 119.495 51.5026 119.676 51.5026 119.891C51.5026 120.051 51.4644 120.19 51.3879 120.308C51.3184 120.42 51.2281 120.517 51.117 120.6C50.9571 120.489 50.7452 120.395 50.4812 120.319C50.2172 120.235 49.9254 120.194 49.6058 120.194C49.2723 120.194 49.0221 120.249 48.8554 120.36C48.6886 120.465 48.6052 120.604 48.6052 120.777C48.6052 120.916 48.6608 121.031 48.772 121.121C48.8832 121.205 49.0499 121.281 49.2723 121.351L49.8455 121.528C50.4777 121.722 50.9641 121.983 51.3046 122.309C51.645 122.629 51.8152 123.06 51.8152 123.602C51.8152 124.185 51.5894 124.661 51.1378 125.03C50.6862 125.391 50.0331 125.571 49.1785 125.571C48.7546 125.571 48.376 125.526 48.0425 125.436C47.709 125.346 47.4415 125.214 47.24 125.04C47.0454 124.866 46.9481 124.665 46.9481 124.435C46.9481 124.255 47.0003 124.102 47.1045 123.977C47.2156 123.845 47.3372 123.748 47.4692 123.685C47.6568 123.838 47.8896 123.977 48.1675 124.102C48.4524 124.22 48.772 124.279 49.1263 124.279ZM52.5755 122.643H54.1075V123.758C54.1075 123.953 54.17 124.095 54.2951 124.185C54.4202 124.276 54.5973 124.321 54.8266 124.321C54.9308 124.321 55.042 124.31 55.1601 124.29C55.2852 124.262 55.3894 124.23 55.4728 124.196C55.5284 124.258 55.577 124.335 55.6187 124.425C55.6673 124.515 55.6917 124.62 55.6917 124.738C55.6917 124.974 55.5944 125.168 55.3998 125.321C55.2053 125.474 54.8787 125.551 54.4202 125.551C53.8365 125.551 53.3814 125.419 53.0549 125.155C52.7353 124.891 52.5755 124.46 52.5755 123.862V122.643ZM53.5551 121.694V120.506H55.5562C55.5909 120.562 55.6256 120.642 55.6604 120.746C55.6951 120.85 55.7125 120.965 55.7125 121.09C55.7125 121.298 55.6639 121.451 55.5666 121.549C55.4763 121.646 55.3512 121.694 55.1914 121.694H53.5551ZM54.1075 122.903H52.5755V119.162C52.6449 119.141 52.7422 119.12 52.8673 119.099C52.9923 119.072 53.1244 119.058 53.2633 119.058C53.5621 119.058 53.7775 119.11 53.9095 119.214C54.0415 119.318 54.1075 119.509 54.1075 119.787V122.903ZM58.491 124.404C58.6508 124.404 58.8072 124.39 58.96 124.363C59.1198 124.328 59.2345 124.29 59.3039 124.248V123.247L58.4285 123.331C58.1923 123.345 58.0047 123.393 57.8657 123.477C57.7267 123.56 57.6573 123.685 57.6573 123.852C57.6573 124.019 57.7233 124.154 57.8553 124.258C57.9873 124.356 58.1992 124.404 58.491 124.404ZM58.4285 120.235C59.1511 120.235 59.7278 120.388 60.1585 120.694C60.5893 120.993 60.8047 121.458 60.8047 122.091V124.456C60.8047 124.63 60.7595 124.772 60.6692 124.884C60.5789 124.988 60.4643 125.078 60.3253 125.155C60.1169 125.28 59.8563 125.377 59.5436 125.446C59.2379 125.523 58.8871 125.561 58.491 125.561C57.7823 125.561 57.2161 125.422 56.7922 125.144C56.3754 124.866 56.1669 124.453 56.1669 123.904C56.1669 123.431 56.3128 123.07 56.6046 122.82C56.8965 122.563 57.3307 122.407 57.9074 122.351L59.2935 122.205V122.08C59.2935 121.844 59.1997 121.674 59.0121 121.569C58.8315 121.465 58.5709 121.413 58.2305 121.413C57.9664 121.413 57.7059 121.444 57.4488 121.507C57.1987 121.569 56.9729 121.642 56.7714 121.726C56.688 121.67 56.6151 121.587 56.5525 121.476C56.4969 121.357 56.4691 121.236 56.4691 121.111C56.4691 120.819 56.629 120.607 56.9486 120.475C57.1501 120.392 57.3828 120.333 57.6468 120.298C57.9178 120.256 58.1784 120.235 58.4285 120.235ZM63.329 121.736V123.039H61.7865V121.549C61.7865 121.354 61.8317 121.191 61.922 121.059C62.0193 120.92 62.1513 120.798 62.318 120.694C62.5473 120.555 62.8217 120.447 63.1414 120.371C63.4679 120.287 63.8084 120.246 64.1627 120.246C64.8714 120.246 65.2258 120.482 65.2258 120.955C65.2258 121.066 65.2084 121.17 65.1737 121.267C65.1459 121.364 65.1111 121.448 65.0694 121.517C65 121.503 64.9131 121.493 64.8089 121.486C64.7116 121.472 64.6039 121.465 64.4858 121.465C64.2774 121.465 64.0689 121.49 63.8605 121.538C63.652 121.587 63.4749 121.653 63.329 121.736ZM61.7865 122.643L63.329 122.674V125.384C63.2595 125.405 63.1622 125.422 63.0371 125.436C62.9121 125.457 62.7766 125.467 62.6307 125.467C62.3389 125.467 62.1235 125.415 61.9845 125.311C61.8525 125.207 61.7865 125.019 61.7865 124.748V122.643ZM65.8021 122.643H67.3341V123.758C67.3341 123.953 67.3966 124.095 67.5217 124.185C67.6468 124.276 67.8239 124.321 68.0532 124.321C68.1574 124.321 68.2686 124.31 68.3867 124.29C68.5118 124.262 68.616 124.23 68.6994 124.196C68.755 124.258 68.8036 124.335 68.8453 124.425C68.8939 124.515 68.9182 124.62 68.9182 124.738C68.9182 124.974 68.821 125.168 68.6264 125.321C68.4319 125.474 68.1053 125.551 67.6468 125.551C67.0631 125.551 66.608 125.419 66.2815 125.155C65.9619 124.891 65.8021 124.46 65.8021 123.862V122.643ZM66.7817 121.694V120.506H68.7828C68.8175 120.562 68.8522 120.642 68.887 120.746C68.9217 120.85 68.9391 120.965 68.9391 121.09C68.9391 121.298 68.8905 121.451 68.7932 121.549C68.7029 121.646 68.5778 121.694 68.418 121.694H66.7817ZM67.3341 122.903H65.8021V119.162C65.8715 119.141 65.9688 119.12 66.0939 119.099C66.2189 119.072 66.351 119.058 66.4899 119.058C66.7887 119.058 67.0041 119.11 67.1361 119.214C67.2681 119.318 67.3341 119.509 67.3341 119.787V122.903ZM73.2415 122.111H73.8668C74.2212 122.111 74.4991 122.028 74.7006 121.861C74.909 121.694 75.0133 121.455 75.0133 121.142C75.0133 120.829 74.916 120.593 74.7214 120.433C74.5269 120.274 74.2455 120.194 73.8773 120.194C73.7522 120.194 73.6376 120.197 73.5333 120.204C73.4361 120.211 73.3388 120.221 73.2415 120.235V122.111ZM73.9711 123.362H71.6678V119.631C71.6678 119.499 71.706 119.395 71.7824 119.318C71.8589 119.242 71.9596 119.183 72.0847 119.141C72.314 119.058 72.5884 118.999 72.908 118.964C73.2276 118.929 73.516 118.912 73.773 118.912C74.711 118.912 75.4197 119.113 75.8991 119.516C76.3855 119.912 76.6287 120.454 76.6287 121.142C76.6287 121.587 76.521 121.976 76.3056 122.309C76.0971 122.643 75.7949 122.903 75.3989 123.091C75.0028 123.272 74.5269 123.362 73.9711 123.362ZM71.6678 122.664H73.2519V125.384C73.1894 125.405 73.0887 125.422 72.9497 125.436C72.8107 125.457 72.6683 125.467 72.5224 125.467C72.2097 125.467 71.9874 125.412 71.8554 125.3C71.7303 125.189 71.6678 124.995 71.6678 124.717V122.664ZM78.688 121.736V123.039H77.1455V121.549C77.1455 121.354 77.1907 121.191 77.281 121.059C77.3783 120.92 77.5103 120.798 77.6771 120.694C77.9063 120.555 78.1808 120.447 78.5004 120.371C78.827 120.287 79.1674 120.246 79.5218 120.246C80.2305 120.246 80.5848 120.482 80.5848 120.955C80.5848 121.066 80.5674 121.17 80.5327 121.267C80.5049 121.364 80.4702 121.448 80.4285 121.517C80.359 121.503 80.2721 121.493 80.1679 121.486C80.0706 121.472 79.963 121.465 79.8448 121.465C79.6364 121.465 79.428 121.49 79.2195 121.538C79.0111 121.587 78.8339 121.653 78.688 121.736ZM77.1455 122.643L78.688 122.674V125.384C78.6185 125.405 78.5212 125.422 78.3962 125.436C78.2711 125.457 78.1356 125.467 77.9897 125.467C77.6979 125.467 77.4825 125.415 77.3436 125.311C77.2115 125.207 77.1455 125.019 77.1455 124.748V122.643ZM81.6968 123.623L81.6343 122.58L84.2189 122.174C84.205 121.979 84.1216 121.799 83.9688 121.632C83.8159 121.465 83.5901 121.382 83.2914 121.382C82.9787 121.382 82.7181 121.49 82.5097 121.705C82.3013 121.913 82.1901 122.212 82.1762 122.601L82.2283 123.32C82.2908 123.702 82.4541 123.977 82.7181 124.144C82.9822 124.303 83.2948 124.383 83.6561 124.383C83.9479 124.383 84.2224 124.342 84.4795 124.258C84.7365 124.175 84.945 124.088 85.1048 123.998C85.209 124.06 85.2924 124.147 85.3549 124.258C85.4244 124.369 85.4591 124.488 85.4591 124.613C85.4591 124.821 85.3758 124.995 85.209 125.134C85.0492 125.273 84.8234 125.377 84.5316 125.446C84.2467 125.516 83.9201 125.551 83.5519 125.551C83.0169 125.551 82.534 125.45 82.1032 125.248C81.6794 125.047 81.3459 124.745 81.1027 124.342C80.8595 123.939 80.738 123.435 80.738 122.83C80.738 122.386 80.8074 122 80.9464 121.674C81.0923 121.347 81.2834 121.08 81.5196 120.871C81.7628 120.656 82.0338 120.496 82.3325 120.392C82.6382 120.287 82.9544 120.235 83.2809 120.235C83.7603 120.235 84.1772 120.333 84.5316 120.527C84.8929 120.715 85.1743 120.972 85.3758 121.298C85.5772 121.625 85.678 122.004 85.678 122.434C85.678 122.65 85.6189 122.813 85.5008 122.924C85.3827 123.035 85.2194 123.105 85.011 123.133L81.6968 123.623ZM88.8983 125.551C88.6343 125.551 88.3981 125.516 88.1896 125.446C87.9812 125.384 87.8005 125.311 87.6477 125.228V123.925C87.7658 124.022 87.9082 124.112 88.075 124.196C88.2487 124.279 88.4432 124.321 88.6586 124.321C89.0408 124.321 89.336 124.199 89.5445 123.956C89.7599 123.713 89.8676 123.348 89.8676 122.862C89.8676 122.528 89.8189 122.261 89.7217 122.059C89.6313 121.851 89.4993 121.698 89.3256 121.601C89.1519 121.503 88.947 121.455 88.7107 121.455C88.5509 121.455 88.405 121.476 88.273 121.517C88.1479 121.552 88.0402 121.597 87.9499 121.653V124.842H86.4179V121.434C86.4179 121.26 86.4526 121.118 86.5221 121.007C86.5916 120.889 86.6993 120.784 86.8452 120.694C87.0536 120.562 87.3176 120.454 87.6373 120.371C87.9569 120.281 88.3147 120.235 88.7107 120.235C89.2457 120.235 89.7182 120.329 90.1281 120.517C90.545 120.697 90.8681 120.982 91.0974 121.371C91.3266 121.754 91.4413 122.25 91.4413 122.862C91.4413 123.452 91.3301 123.946 91.1078 124.342C90.8854 124.738 90.5832 125.04 90.2011 125.248C89.8189 125.45 89.3847 125.551 88.8983 125.551ZM87.9603 124.446V127.249C87.8909 127.27 87.7936 127.291 87.6685 127.312C87.5435 127.333 87.408 127.343 87.2621 127.343C86.9702 127.343 86.7549 127.291 86.6159 127.187C86.4839 127.083 86.4179 126.892 86.4179 126.614V124.446H87.9603ZM94.2878 124.404C94.4476 124.404 94.6039 124.39 94.7568 124.363C94.9166 124.328 95.0312 124.29 95.1007 124.248V123.247L94.2253 123.331C93.989 123.345 93.8014 123.393 93.6625 123.477C93.5235 123.56 93.454 123.685 93.454 123.852C93.454 124.019 93.52 124.154 93.6521 124.258C93.7841 124.356 93.996 124.404 94.2878 124.404ZM94.2253 120.235C94.9479 120.235 95.5245 120.388 95.9553 120.694C96.3861 120.993 96.6015 121.458 96.6015 122.091V124.456C96.6015 124.63 96.5563 124.772 96.466 124.884C96.3757 124.988 96.261 125.078 96.1221 125.155C95.9136 125.28 95.6531 125.377 95.3404 125.446C95.0347 125.523 94.6838 125.561 94.2878 125.561C93.5791 125.561 93.0128 125.422 92.589 125.144C92.1721 124.866 91.9637 124.453 91.9637 123.904C91.9637 123.431 92.1096 123.07 92.4014 122.82C92.6932 122.563 93.1275 122.407 93.7042 122.351L95.0903 122.205V122.08C95.0903 121.844 94.9965 121.674 94.8089 121.569C94.6283 121.465 94.3677 121.413 94.0273 121.413C93.7632 121.413 93.5027 121.444 93.2456 121.507C92.9955 121.569 92.7697 121.642 92.5682 121.726C92.4848 121.67 92.4118 121.587 92.3493 121.476C92.2937 121.357 92.2659 121.236 92.2659 121.111C92.2659 120.819 92.4257 120.607 92.7453 120.475C92.9468 120.392 93.1796 120.333 93.4436 120.298C93.7146 120.256 93.9751 120.235 94.2253 120.235ZM99.1257 121.736V123.039H97.5833V121.549C97.5833 121.354 97.6284 121.191 97.7188 121.059C97.816 120.92 97.948 120.798 98.1148 120.694C98.3441 120.555 98.6185 120.447 98.9381 120.371C99.2647 120.287 99.6051 120.246 99.9595 120.246C100.668 120.246 101.023 120.482 101.023 120.955C101.023 121.066 101.005 121.17 100.97 121.267C100.943 121.364 100.908 121.448 100.866 121.517C100.797 121.503 100.71 121.493 100.606 121.486C100.508 121.472 100.401 121.465 100.283 121.465C100.074 121.465 99.8657 121.49 99.6573 121.538C99.4488 121.587 99.2716 121.653 99.1257 121.736ZM97.5833 122.643L99.1257 122.674V125.384C99.0563 125.405 98.959 125.422 98.8339 125.436C98.7089 125.457 98.5734 125.467 98.4275 125.467C98.1356 125.467 97.9203 125.415 97.7813 125.311C97.6493 125.207 97.5833 125.019 97.5833 124.748V122.643ZM101.536 118.953C101.536 118.717 101.616 118.519 101.776 118.359C101.943 118.2 102.151 118.12 102.401 118.12C102.658 118.12 102.867 118.2 103.027 118.359C103.186 118.519 103.266 118.717 103.266 118.953C103.266 119.183 103.186 119.381 103.027 119.548C102.867 119.714 102.658 119.798 102.401 119.798C102.151 119.798 101.943 119.714 101.776 119.548C101.616 119.381 101.536 119.183 101.536 118.953ZM101.63 122.643H103.173V125.384C103.11 125.405 103.016 125.422 102.891 125.436C102.766 125.457 102.631 125.467 102.485 125.467C102.186 125.467 101.967 125.415 101.828 125.311C101.696 125.207 101.63 125.019 101.63 124.748V122.643ZM103.173 123.445H101.63V120.454C101.693 120.433 101.786 120.413 101.912 120.392C102.044 120.371 102.182 120.36 102.328 120.36C102.627 120.36 102.843 120.413 102.975 120.517C103.107 120.614 103.173 120.805 103.173 121.09V123.445ZM109.003 122.153V123.133H107.45V122.205C107.45 121.948 107.374 121.76 107.221 121.642C107.075 121.517 106.881 121.455 106.637 121.455C106.464 121.455 106.304 121.479 106.158 121.528C106.012 121.569 105.88 121.622 105.762 121.684V123.133H104.22V121.507C104.22 121.333 104.254 121.191 104.324 121.08C104.4 120.961 104.508 120.857 104.647 120.767C104.869 120.614 105.154 120.489 105.501 120.392C105.849 120.287 106.231 120.235 106.648 120.235C107.398 120.235 107.978 120.402 108.388 120.736C108.798 121.062 109.003 121.535 109.003 122.153ZM104.22 122.653H105.762V125.384C105.693 125.405 105.595 125.422 105.47 125.436C105.345 125.457 105.21 125.467 105.064 125.467C104.772 125.467 104.557 125.415 104.418 125.311C104.286 125.207 104.22 125.019 104.22 124.748V122.653ZM107.45 122.653H109.003V125.384C108.934 125.405 108.837 125.422 108.711 125.436C108.586 125.457 108.451 125.467 108.305 125.467C108.013 125.467 107.798 125.415 107.659 125.311C107.52 125.207 107.45 125.019 107.45 124.748V122.653ZM112.069 125.196C111.659 125.196 111.277 125.12 110.923 124.967C110.576 124.807 110.294 124.547 110.079 124.185C109.87 123.817 109.766 123.338 109.766 122.747C109.766 122.198 109.874 121.74 110.089 121.371C110.312 120.996 110.621 120.715 111.017 120.527C111.413 120.333 111.871 120.235 112.392 120.235C112.768 120.235 113.115 120.287 113.435 120.392C113.761 120.489 114.015 120.597 114.195 120.715C114.321 120.798 114.421 120.899 114.498 121.017C114.574 121.128 114.612 121.271 114.612 121.444V124.717H113.122V121.622C113.046 121.58 112.952 121.542 112.841 121.507C112.736 121.472 112.604 121.455 112.445 121.455C112.111 121.455 111.837 121.559 111.621 121.767C111.413 121.976 111.309 122.302 111.309 122.747C111.309 123.233 111.406 123.57 111.6 123.758C111.802 123.939 112.052 124.029 112.351 124.029C112.58 124.029 112.771 123.991 112.924 123.914C113.077 123.831 113.209 123.741 113.32 123.643L113.362 124.873C113.216 124.964 113.039 125.04 112.83 125.102C112.622 125.165 112.368 125.196 112.069 125.196ZM113.153 125.342V124.373H114.612V125.384C114.612 125.87 114.498 126.266 114.268 126.572C114.046 126.878 113.74 127.103 113.351 127.249C112.969 127.395 112.538 127.468 112.059 127.468C111.698 127.468 111.375 127.437 111.09 127.374C110.812 127.312 110.6 127.232 110.454 127.135C110.218 126.982 110.1 126.767 110.1 126.489C110.1 126.343 110.127 126.211 110.183 126.093C110.246 125.981 110.318 125.898 110.402 125.842C110.589 125.954 110.812 126.047 111.069 126.124C111.326 126.207 111.597 126.249 111.882 126.249C112.271 126.249 112.58 126.176 112.809 126.03C113.039 125.891 113.153 125.662 113.153 125.342Z" fill="white"/>
<defs>
<clipPath id="clip0_61_1629">
<rect width="11.7248" height="11.7248" fill="white" transform="translate(10.422 64.3718)"/>
</clipPath>
</defs>
</svg>
