<svg width="141" height="41" viewBox="0 0 141 41" fill="none" xmlns="http://www.w3.org/2000/svg">
<path d="M21.4043 19.0794L30.4723 18.9395C31.2978 18.8809 32.0107 19.5395 31.9926 20.3697C31.7986 28.4722 25.4014 35.3522 17.1635 35.9568C16.1394 36.0335 15.1243 36.0064 14.1408 35.8891C13.5183 35.8169 13.9829 31.1476 13.7213 31.1746C13.5995 31.1882 11.7588 35.4199 11.4881 35.3387C5.89843 33.6695 1.47722 28.9911 0.30425 23.0991C0.245601 22.8104 8.6053 21.6554 8.47898 21.4253C8.3301 21.1546 0.0651427 21.5201 0.0425855 21.1637C-0.31833 16.2417 1.63964 11.64 4.97359 8.44585C5.24428 8.18418 8.99328 11.5723 9.09254 11.5091C9.1963 11.4415 6.45786 7.18264 6.7917 6.94354C9.08803 5.31039 11.84 4.26372 14.8311 4.04265C16.374 3.92987 17.8989 4.04266 19.3606 4.35846C19.744 4.43967 19.0673 7.327 19.1305 7.2864C19.1937 7.24128 21.2779 4.89533 21.6569 5.0397C25.3563 6.44728 28.4827 9.19926 30.3053 12.84C30.6798 13.5844 30.3189 14.4912 29.5429 14.789L21.4088 19.0794H21.4043Z" fill="#426F0D"/>
<path d="M21.1966 32.5138C22.532 31.9589 24.1652 31.81 25.284 30.8491C26.3667 29.9242 26.7728 28.3452 27.5578 27.064C28.3382 25.7827 29.5563 24.7 29.8857 23.3149C30.2195 21.9119 29.6466 20.4231 29.5112 19.011L21.4042 19.0787L29.3037 14.8785C29.2676 14.7567 29.227 14.6349 29.1774 14.5176C28.6225 13.1822 27.2465 12.3025 26.2855 11.1836C25.3607 10.1009 24.7156 8.59855 23.4343 7.81355C22.2613 7.09623 20.7996 7.13231 19.4958 6.88869C19.2793 7.11878 19.1349 7.27668 19.1169 7.2857C19.0988 7.29473 19.1349 7.10976 19.1845 6.82554C19.1665 6.82554 19.1484 6.81652 19.1304 6.812C17.6958 6.46913 16.2837 5.64353 14.8445 5.76083C13.3918 5.87812 12.1286 6.92479 10.7797 7.48421C9.72855 7.92182 8.49692 8.1068 7.47734 8.63464C8.18563 9.92041 9.14206 11.4678 9.0789 11.5039C9.02025 11.54 7.60366 10.2994 6.44873 9.38353C5.54644 10.3264 5.14041 11.7521 4.42309 12.9341C3.64262 14.2153 2.42453 15.2981 2.09519 16.6831C1.75232 18.1177 2.36137 19.6381 2.47866 21.0818C2.48317 21.163 2.48769 21.2487 2.4922 21.3344C4.95093 21.3434 8.37512 21.2532 8.46986 21.4292C8.55106 21.5825 4.94191 22.1329 2.4922 22.5751C2.46513 23.5766 2.43355 24.5872 2.80349 25.485C3.35839 26.8204 4.73438 27.7001 5.69532 28.8189C6.62017 29.9017 7.2653 31.404 8.54655 32.189C9.7872 32.9469 11.3572 32.8657 12.7151 33.159C13.2024 32.1574 13.6535 31.183 13.7121 31.1784C13.843 31.1649 13.7934 32.3063 13.7888 33.4657C14.9032 33.8447 16.0085 34.3274 17.1318 34.2372C18.5845 34.1199 19.8477 33.0733 21.1966 32.5138Z" fill="#6DAF20"/>
<path d="M15.9996 20.2213C15.968 20.2213 15.9364 20.2168 15.9093 20.2033L8.11807 16.7249C8.00528 16.6753 7.95115 16.5399 8.00528 16.4272C8.05491 16.3144 8.19025 16.2602 8.30304 16.3144L15.7469 19.6348L15.3274 14.4376C15.3183 14.3113 15.4086 14.203 15.5349 14.194C15.6612 14.185 15.7695 14.2752 15.7785 14.4015L16.2296 19.9777C16.2342 20.0589 16.1981 20.1356 16.1349 20.1807C16.0943 20.2078 16.0492 20.2213 16.0041 20.2213H15.9996Z" fill="#426F0D"/>
<path d="M12.7649 24.8185C12.7198 24.8185 12.6747 24.805 12.6341 24.7779C12.5303 24.7057 12.5077 24.5658 12.5799 24.4621L15.8101 19.8604C15.8462 19.8062 15.9094 19.7702 15.9725 19.7656C16.0402 19.7566 16.1034 19.7837 16.153 19.8288L20.3171 23.9433C20.4073 24.029 20.4073 24.1733 20.3171 24.2636C20.2313 24.3538 20.087 24.3538 19.9967 24.2636L16.0222 20.3386L12.9454 24.7192C12.9002 24.7824 12.8326 24.814 12.7604 24.814L12.7649 24.8185Z" fill="#426F0D"/>
<path d="M15.9992 20.222C15.9 20.222 15.8098 20.1588 15.7827 20.055C15.7511 19.9332 15.8188 19.8114 15.9406 19.7753L19.7122 18.7196C19.834 18.6881 19.9558 18.7557 19.9919 18.8775C20.0234 18.9994 19.9558 19.1212 19.834 19.1573L16.0624 20.2129C16.0624 20.2129 16.0218 20.222 15.9992 20.222Z" fill="#426F0D"/>
<path d="M42.2969 33V9.16H46.6489V29.16H56.8569V33H42.2969ZM57.3999 33V15.592H61.5919V33H57.3999ZM57.3999 13.64V9.16H61.5919V13.64H57.3999ZM63.5424 33V8.776H67.7344V33H63.5424ZM71.7969 40.04C71.3276 40.04 70.8689 39.9973 70.4209 39.912C69.9729 39.848 69.5676 39.72 69.2049 39.528V36.04C69.4823 36.104 69.8129 36.168 70.1969 36.232C70.6023 36.296 70.9756 36.328 71.3169 36.328C72.2769 36.328 72.9703 36.104 73.3969 35.656C73.8449 35.2293 74.2396 34.6533 74.5809 33.928L75.7329 31.24L75.6689 34.76L68.0849 15.592H72.5969L77.9089 29.736H76.3089L81.5889 15.592H86.1329L78.5489 34.76C78.1009 35.8693 77.5569 36.8187 76.9169 37.608C76.2769 38.3973 75.5303 38.9947 74.6769 39.4C73.8449 39.8267 72.8849 40.04 71.7969 40.04ZM86.8669 33V9.16H95.7629C97.3843 9.16 98.8136 9.45867 100.051 10.056C101.31 10.632 102.291 11.4853 102.995 12.616C103.699 13.7253 104.051 15.08 104.051 16.68C104.051 18.2587 103.688 19.6133 102.963 20.744C102.259 21.8533 101.288 22.7067 100.051 23.304C98.8136 23.9013 97.3843 24.2 95.7629 24.2H91.2189V33H86.8669ZM91.2189 20.36H95.8269C96.6163 20.36 97.2989 20.2107 97.8749 19.912C98.4509 19.592 98.8989 19.1547 99.2189 18.6C99.5389 18.0453 99.6989 17.4053 99.6989 16.68C99.6989 15.9333 99.5389 15.2933 99.2189 14.76C98.8989 14.2053 98.4509 13.7787 97.8749 13.48C97.2989 13.16 96.6163 13 95.8269 13H91.2189V20.36ZM109.594 33.384C108.378 33.384 107.322 33.1813 106.426 32.776C105.53 32.3707 104.836 31.7947 104.346 31.048C103.855 30.28 103.61 29.3947 103.61 28.392C103.61 27.432 103.823 26.5787 104.25 25.832C104.676 25.064 105.338 24.424 106.234 23.912C107.13 23.4 108.26 23.0373 109.626 22.824L115.322 21.896V25.096L110.426 25.928C109.594 26.0773 108.975 26.344 108.57 26.728C108.164 27.112 107.962 27.6133 107.962 28.232C107.962 28.8293 108.186 29.3093 108.634 29.672C109.103 30.0133 109.679 30.184 110.362 30.184C111.236 30.184 112.004 30.0027 112.666 29.64C113.348 29.256 113.871 28.7333 114.234 28.072C114.618 27.4107 114.81 26.6853 114.81 25.896V21.416C114.81 20.6693 114.511 20.0507 113.914 19.56C113.338 19.048 112.57 18.792 111.61 18.792C110.714 18.792 109.914 19.0373 109.21 19.528C108.527 19.9973 108.026 20.6267 107.706 21.416L104.282 19.752C104.623 18.8347 105.156 18.0453 105.882 17.384C106.628 16.7013 107.503 16.168 108.506 15.784C109.508 15.4 110.596 15.208 111.77 15.208C113.199 15.208 114.458 15.4747 115.546 16.008C116.634 16.52 117.476 17.2453 118.074 18.184C118.692 19.1013 119.002 20.1787 119.002 21.416V33H115.034V30.024L115.93 29.96C115.482 30.7067 114.948 31.336 114.33 31.848C113.711 32.3387 113.007 32.7227 112.218 33C111.428 33.256 110.554 33.384 109.594 33.384ZM129.052 33.384C127.367 33.384 125.863 32.9893 124.54 32.2C123.218 31.3893 122.172 30.2907 121.404 28.904C120.636 27.5173 120.252 25.9813 120.252 24.296C120.252 22.5893 120.636 21.0533 121.404 19.688C122.172 18.3227 123.218 17.2347 124.54 16.424C125.884 15.6133 127.378 15.208 129.02 15.208C130.343 15.208 131.516 15.4747 132.54 16.008C133.586 16.52 134.407 17.2453 135.004 18.184L134.364 19.048V8.776H138.556V33H134.588V29.64L135.036 30.472C134.439 31.4107 133.607 32.136 132.54 32.648C131.474 33.1387 130.311 33.384 129.052 33.384ZM129.5 29.544C130.46 29.544 131.303 29.32 132.028 28.872C132.754 28.424 133.319 27.8053 133.724 27.016C134.151 26.2267 134.364 25.32 134.364 24.296C134.364 23.2933 134.151 22.3973 133.724 21.608C133.319 20.7973 132.754 20.168 132.028 19.72C131.303 19.272 130.46 19.048 129.5 19.048C128.562 19.048 127.719 19.2827 126.972 19.752C126.226 20.2 125.639 20.8187 125.212 21.608C124.807 22.376 124.604 23.272 124.604 24.296C124.604 25.32 124.807 26.2267 125.212 27.016C125.639 27.8053 126.226 28.424 126.972 28.872C127.719 29.32 128.562 29.544 129.5 29.544Z" fill="white"/>
</svg>
