<svg width="88" height="25" viewBox="0 0 88 25" fill="none" xmlns="http://www.w3.org/2000/svg">
<path d="M16.0532 11.3095L22.8542 11.2046C23.4734 11.1607 24.008 11.6547 23.9945 12.2772C23.849 18.3542 19.051 23.5142 12.8726 23.9676C12.1046 24.0251 11.3432 24.0048 10.6056 23.9168C10.1387 23.8627 10.4872 20.3607 10.291 20.381C10.1996 20.3911 8.8191 23.5649 8.61608 23.504C4.42383 22.2521 1.10792 18.7433 0.228187 14.3243C0.184201 14.1078 6.45397 13.2416 6.35923 13.069C6.24758 12.866 0.048857 13.1401 0.0319391 12.8728C-0.238747 9.18125 1.22973 5.72998 3.73019 3.33439C3.93321 3.13814 6.74496 5.67922 6.8194 5.63185C6.89722 5.5811 4.84339 2.38698 5.09378 2.20765C6.81602 0.98279 8.88 0.197786 11.1233 0.03199C12.2805 -0.0526 13.4242 0.0319941 14.5204 0.268846C14.808 0.329751 14.3005 2.49525 14.3479 2.4648C14.3952 2.43096 15.9585 0.671498 16.2427 0.779773C19.0172 1.83546 21.362 3.89944 22.729 6.63001C23.0098 7.1883 22.7391 7.86841 22.1572 8.09173L16.0566 11.3095H16.0532Z" fill="#426F0D"/>
<path d="M15.8974 21.3855C16.8989 20.9693 18.1237 20.8577 18.9629 20.1369C19.7749 19.4433 20.0795 18.259 20.6682 17.2981C21.2536 16.3372 22.1671 15.5251 22.4141 14.4863C22.6645 13.434 22.2348 12.3174 22.1333 11.2584L16.053 11.3091L21.9776 8.159C21.9506 8.06765 21.9201 7.97628 21.8829 7.88831C21.4667 6.88676 20.4347 6.22697 19.714 5.38784C19.0204 4.57577 18.5365 3.44903 17.5756 2.86029C16.6959 2.32229 15.5996 2.34936 14.6217 2.16664C14.4593 2.3392 14.3511 2.45763 14.3375 2.4644C14.324 2.47117 14.3511 2.33244 14.3883 2.11928C14.3747 2.11928 14.3612 2.11251 14.3477 2.10913C13.2717 1.85197 12.2126 1.23277 11.1333 1.32074C10.0438 1.40871 9.09635 2.19371 8.08466 2.61328C7.29629 2.94149 6.37257 3.08022 5.60788 3.4761C6.1391 4.44043 6.85642 5.601 6.80905 5.62807C6.76507 5.65514 5.70262 4.72464 4.83643 4.03777C4.15971 4.74494 3.85519 5.81417 3.3172 6.70067C2.73184 7.66162 1.81827 8.47368 1.57127 9.51244C1.31412 10.5884 1.7709 11.7287 1.85888 12.8115C1.86226 12.8724 1.86564 12.9366 1.86903 13.0009C3.71308 13.0077 6.28122 12.94 6.35227 13.072C6.41318 13.187 3.70631 13.5998 1.86903 13.9314C1.84872 14.6826 1.82504 15.4405 2.10249 16.1138C2.51867 17.1154 3.55067 17.7752 4.27137 18.6143C4.965 19.4264 5.44885 20.5531 6.40979 21.1419C7.34028 21.7103 8.51776 21.6494 9.53622 21.8693C9.90164 21.1182 10.24 20.3873 10.284 20.384C10.3821 20.3738 10.3449 21.2298 10.3415 22.0994C11.1773 22.3837 12.0062 22.7457 12.8487 22.678C13.9383 22.5901 14.8857 21.8051 15.8974 21.3855Z" fill="#6DAF20"/>
<path d="M11.9994 12.1659C11.9757 12.1659 11.952 12.1625 11.9317 12.1523L6.08825 9.54357C6.00366 9.50635 5.96305 9.40484 6.00366 9.32025C6.04088 9.23566 6.14239 9.19506 6.22697 9.23566L11.8099 11.726L11.4952 7.82808C11.4884 7.73334 11.5561 7.65213 11.6509 7.64536C11.7456 7.6386 11.8268 7.70628 11.8336 7.80102L12.1719 11.9831C12.1753 12.044 12.1482 12.1016 12.1009 12.1354C12.0704 12.1557 12.0366 12.1659 12.0027 12.1659H11.9994Z" fill="#426F0D"/>
<path d="M9.57357 15.6141C9.53973 15.6141 9.5059 15.6039 9.47544 15.5836C9.39762 15.5295 9.3807 15.4246 9.43484 15.3467L11.8575 11.8955C11.8846 11.8549 11.9319 11.8278 11.9793 11.8244C12.03 11.8176 12.0774 11.838 12.1146 11.8718L15.2377 14.9576C15.3054 15.0219 15.3054 15.1302 15.2377 15.1979C15.1734 15.2655 15.0651 15.2655 14.9974 15.1979L12.0165 12.2541L9.70891 15.5396C9.67508 15.587 9.62432 15.6107 9.57018 15.6107L9.57357 15.6141Z" fill="#426F0D"/>
<path d="M11.9993 12.1662C11.9248 12.1662 11.8572 12.1189 11.8369 12.041C11.8132 11.9497 11.8639 11.8583 11.9553 11.8312L14.7839 11.0395C14.8753 11.0158 14.9667 11.0666 14.9937 11.1579C15.0174 11.2493 14.9667 11.3406 14.8753 11.3677L12.0466 12.1595C12.0466 12.1595 12.0162 12.1662 11.9993 12.1662Z" fill="#426F0D"/>
<path d="M29.245 20V5.80952H31.8354V17.7143H37.9116V20H29.245ZM38.2348 20V9.63809H40.7301V20H38.2348ZM38.2348 8.47619V5.80952H40.7301V8.47619H38.2348ZM41.8911 20V5.58095H44.3863V20H41.8911ZM46.8045 24.1905C46.5251 24.1905 46.2521 24.1651 45.9854 24.1143C45.7188 24.0762 45.4775 24 45.2616 23.8857V21.8095C45.4267 21.8476 45.6235 21.8857 45.8521 21.9238C46.0934 21.9619 46.3156 21.981 46.5188 21.981C47.0902 21.981 47.5029 21.8476 47.7569 21.581C48.0235 21.327 48.2585 20.9841 48.4616 20.5524L49.1473 18.9524L49.1093 21.0476L44.595 9.63809H47.2807L50.4426 18.0571H49.4902L52.6331 9.63809H55.3378L50.8235 21.0476C50.5569 21.7079 50.2331 22.273 49.8521 22.7429C49.4712 23.2127 49.0267 23.5683 48.5188 23.8095C48.0235 24.0635 47.4521 24.1905 46.8045 24.1905ZM55.7747 20V5.80952H61.07C62.035 5.80952 62.8858 5.9873 63.6223 6.34286C64.3716 6.68571 64.9557 7.19365 65.3747 7.86667C65.7938 8.52698 66.0033 9.33333 66.0033 10.2857C66.0033 11.2254 65.7874 12.0317 65.3557 12.7048C64.9366 13.3651 64.3589 13.873 63.6223 14.2286C62.8858 14.5841 62.035 14.7619 61.07 14.7619H58.3652V20H55.7747ZM58.3652 12.4762H61.1081C61.5779 12.4762 61.9843 12.3873 62.3271 12.2095C62.67 12.019 62.9366 11.7587 63.1271 11.4286C63.3176 11.0984 63.4128 10.7175 63.4128 10.2857C63.4128 9.84127 63.3176 9.46032 63.1271 9.14286C62.9366 8.8127 62.67 8.55873 62.3271 8.38095C61.9843 8.19048 61.5779 8.09524 61.1081 8.09524H58.3652V12.4762ZM69.3026 20.2286C68.5787 20.2286 67.9502 20.1079 67.4168 19.8667C66.8835 19.6254 66.4708 19.2825 66.1787 18.8381C65.8867 18.381 65.7406 17.854 65.7406 17.2571C65.7406 16.6857 65.8676 16.1778 66.1216 15.7333C66.3756 15.2762 66.7692 14.8952 67.3026 14.5905C67.8359 14.2857 68.5089 14.0698 69.3216 13.9429L72.7121 13.3905V15.2952L69.7978 15.7905C69.3026 15.8794 68.9343 16.0381 68.693 16.2667C68.4518 16.4952 68.3311 16.7937 68.3311 17.1619C68.3311 17.5175 68.4645 17.8032 68.7311 18.019C69.0105 18.2222 69.3533 18.3238 69.7597 18.3238C70.2803 18.3238 70.7375 18.2159 71.1311 18C71.5375 17.7714 71.8486 17.4603 72.0645 17.0667C72.293 16.673 72.4073 16.2413 72.4073 15.7714V13.1048C72.4073 12.6603 72.2295 12.2921 71.874 12C71.5311 11.6952 71.074 11.5429 70.5026 11.5429C69.9692 11.5429 69.493 11.6889 69.074 11.981C68.6676 12.2603 68.3692 12.6349 68.1787 13.1048L66.1406 12.1143C66.3438 11.5683 66.6613 11.0984 67.093 10.7048C67.5375 10.2984 68.0581 9.98095 68.6549 9.75238C69.2518 9.52381 69.8994 9.40952 70.5978 9.40952C71.4486 9.40952 72.1978 9.56825 72.8454 9.88571C73.493 10.1905 73.9946 10.6222 74.3502 11.181C74.7184 11.727 74.9026 12.3683 74.9026 13.1048V20H72.5406V18.2286L73.074 18.1905C72.8073 18.6349 72.4899 19.0095 72.1216 19.3143C71.7533 19.6063 71.3343 19.8349 70.8645 20C70.3946 20.1524 69.874 20.2286 69.3026 20.2286ZM80.885 20.2286C79.8818 20.2286 78.9866 19.9937 78.1993 19.5238C77.412 19.0413 76.7898 18.3873 76.3326 17.5619C75.8755 16.7365 75.6469 15.8222 75.6469 14.819C75.6469 13.8032 75.8755 12.8889 76.3326 12.0762C76.7898 11.2635 77.412 10.6159 78.1993 10.1333C78.9993 9.65079 79.8882 9.40952 80.8659 9.40952C81.6532 9.40952 82.3517 9.56825 82.9612 9.88571C83.5834 10.1905 84.0723 10.6222 84.4279 11.181L84.0469 11.6952V5.58095H86.5421V20H84.1802V18L84.4469 18.4952C84.0913 19.054 83.5961 19.4857 82.9612 19.7905C82.3263 20.0825 81.6342 20.2286 80.885 20.2286ZM81.1517 17.9429C81.7231 17.9429 82.2247 17.8095 82.6564 17.5429C83.0882 17.2762 83.4247 16.9079 83.6659 16.4381C83.9199 15.9683 84.0469 15.4286 84.0469 14.819C84.0469 14.2222 83.9199 13.6889 83.6659 13.219C83.4247 12.7365 83.0882 12.3619 82.6564 12.0952C82.2247 11.8286 81.7231 11.6952 81.1517 11.6952C80.5929 11.6952 80.0913 11.8349 79.6469 12.1143C79.2025 12.381 78.8532 12.7492 78.5993 13.219C78.358 13.6762 78.2374 14.2095 78.2374 14.819C78.2374 15.4286 78.358 15.9683 78.5993 16.4381C78.8532 16.9079 79.2025 17.2762 79.6469 17.5429C80.0913 17.8095 80.5929 17.9429 81.1517 17.9429Z" fill="#1F1F1F"/>
</svg>
