<svg width="143" height="21" viewBox="0 0 143 21" fill="none" xmlns="http://www.w3.org/2000/svg">
<path d="M9.636 16.17H0V0.571999H9.636V3.036H2.64V7.172H8.976V9.57H2.64V13.706H9.636V16.17Z" fill="#0F0F0F"/>
<path d="M14.2567 9.878V16.17H11.7047V0.242H14.2567V6.49C14.946 5.59533 15.9654 5.148 17.3147 5.148C18.576 5.148 19.544 5.544 20.2187 6.336C20.8934 7.128 21.2307 8.14733 21.2307 9.394V16.17H18.6787V9.834C18.6787 9.11533 18.5027 8.54333 18.1507 8.118C17.7987 7.678 17.2414 7.458 16.4787 7.458C15.804 7.458 15.2687 7.68533 14.8727 8.14C14.4914 8.59467 14.286 9.174 14.2567 9.878Z" fill="#0F0F0F"/>
<path d="M25.9875 16.17H23.4575V5.456H25.9875V16.17ZM23.5455 2.86C23.2228 2.53733 23.0615 2.14867 23.0615 1.694C23.0615 1.23933 23.2228 0.850667 23.5455 0.528C23.8682 0.190666 24.2568 0.0219997 24.7115 0.0219997C25.1808 0.0219997 25.5768 0.183333 25.8995 0.506C26.2222 0.828666 26.3835 1.22467 26.3835 1.694C26.3835 2.14867 26.2222 2.53733 25.8995 2.86C25.5768 3.18267 25.1808 3.344 24.7115 3.344C24.2568 3.344 23.8682 3.18267 23.5455 2.86Z" fill="#0F0F0F"/>
<path d="M36.3418 16.17H27.5858V13.948L33.0198 7.7H27.6958V5.456H36.2318V7.612L30.7318 13.926H36.3418V16.17Z" fill="#0F0F0F"/>
<path d="M40.4707 13.31C41.0574 13.9113 41.7687 14.212 42.6047 14.212C43.4407 14.212 44.1447 13.9113 44.7167 13.31C45.3034 12.7087 45.5967 11.8727 45.5967 10.802C45.5967 9.746 45.3034 8.92467 44.7167 8.338C44.1447 7.73667 43.4407 7.436 42.6047 7.436C41.7687 7.436 41.0574 7.73667 40.4707 8.338C39.8987 8.92467 39.6127 9.746 39.6127 10.802C39.6127 11.858 39.8987 12.694 40.4707 13.31ZM42.6047 5.126C44.2181 5.126 45.5454 5.66133 46.5867 6.732C47.6427 7.80267 48.1707 9.15933 48.1707 10.802C48.1707 12.4447 47.6427 13.8087 46.5867 14.894C45.5454 15.9647 44.2181 16.5 42.6047 16.5C41.0061 16.5 39.6787 15.9647 38.6227 14.894C37.5814 13.8087 37.0607 12.4447 37.0607 10.802C37.0607 9.15933 37.5814 7.80267 38.6227 6.732C39.6787 5.66133 41.0061 5.126 42.6047 5.126Z" fill="#0F0F0F"/>
<path d="M49.757 17.05V5.456H52.309V17.248C52.309 18.26 52.0229 19.0813 51.451 19.712C50.879 20.3573 50.1016 20.68 49.1189 20.68C48.4736 20.68 47.9896 20.614 47.667 20.482V18.37C47.887 18.414 48.1436 18.436 48.437 18.436C49.317 18.436 49.757 17.974 49.757 17.05ZM49.845 2.838C49.5223 2.51533 49.361 2.12667 49.361 1.672C49.361 1.21733 49.5223 0.828666 49.845 0.506C50.1676 0.168667 50.5563 0 51.011 0C51.4803 0 51.8763 0.168667 52.199 0.506C52.5216 0.828666 52.683 1.21733 52.683 1.672C52.683 2.12667 52.5143 2.51533 52.177 2.838C51.8543 3.16067 51.4656 3.322 51.011 3.322C50.5563 3.322 50.1676 3.16067 49.845 2.838Z" fill="#0F0F0F"/>
<path d="M57.2507 16.17H54.7207V5.456H57.2507V16.17ZM54.8087 2.86C54.486 2.53733 54.3247 2.14867 54.3247 1.694C54.3247 1.23933 54.486 0.850667 54.8087 0.528C55.1314 0.190666 55.52 0.0219997 55.9747 0.0219997C56.444 0.0219997 56.84 0.183333 57.1627 0.506C57.4854 0.828666 57.6467 1.22467 57.6467 1.694C57.6467 2.14867 57.4854 2.53733 57.1627 2.86C56.84 3.18267 56.444 3.344 55.9747 3.344C55.52 3.344 55.1314 3.18267 54.8087 2.86Z" fill="#0F0F0F"/>
<path d="M61.445 9.636H66.703C66.6736 8.96133 66.4316 8.39667 65.977 7.942C65.537 7.48733 64.899 7.26 64.063 7.26C63.3003 7.26 62.6843 7.502 62.215 7.986C61.7456 8.45533 61.489 9.00533 61.445 9.636ZM66.989 12.43L69.145 13.112C68.837 14.0947 68.2576 14.9087 67.407 15.554C66.571 16.1847 65.537 16.5 64.305 16.5C62.7796 16.5 61.4816 15.9793 60.411 14.938C59.355 13.8967 58.827 12.5033 58.827 10.758C58.827 9.11533 59.3403 7.766 60.367 6.71C61.4083 5.654 62.633 5.126 64.041 5.126C65.6836 5.126 66.967 5.632 67.891 6.644C68.815 7.64133 69.277 8.99067 69.277 10.692C69.277 11.1467 69.255 11.418 69.211 11.506H61.379C61.4083 12.3127 61.7016 12.98 62.259 13.508C62.831 14.036 63.513 14.3 64.305 14.3C65.6836 14.3 66.5783 13.6767 66.989 12.43Z" fill="#0F0F0F"/>
<path d="M78.3167 16.17H75.6327V0.571999H78.3167V16.17Z" fill="#0F0F0F"/>
<path d="M83.5086 9.878V16.17H80.9566V0.242H83.5086V6.49C84.1979 5.59533 85.2172 5.148 86.5666 5.148C87.8279 5.148 88.7959 5.544 89.4706 6.336C90.1452 7.128 90.4826 8.14733 90.4826 9.394V16.17H87.9306V9.834C87.9306 9.11533 87.7546 8.54333 87.4026 8.118C87.0506 7.678 86.4932 7.458 85.7306 7.458C85.0559 7.458 84.5206 7.68533 84.1246 8.14C83.7432 8.59467 83.5379 9.174 83.5086 9.878Z" fill="#0F0F0F"/>
<path d="M92.0494 13.266C92.0494 12.3567 92.3427 11.6307 92.9294 11.088C93.5307 10.5307 94.3154 10.1787 95.2834 10.032L98.0334 9.614C98.5614 9.54067 98.8254 9.284 98.8254 8.844C98.8254 8.36 98.6567 7.97133 98.3194 7.678C97.982 7.37 97.476 7.216 96.8014 7.216C96.156 7.216 95.6427 7.39933 95.2614 7.766C94.88 8.118 94.66 8.58 94.6014 9.152L92.2694 8.624C92.372 7.656 92.834 6.83467 93.6554 6.16C94.4767 5.47067 95.518 5.126 96.7794 5.126C98.334 5.126 99.478 5.5 100.211 6.248C100.959 6.996 101.333 7.95667 101.333 9.13V14.454C101.333 15.158 101.377 15.73 101.465 16.17H99.0894C99.016 15.95 98.9794 15.4953 98.9794 14.806C98.2754 15.9353 97.1754 16.5 95.6794 16.5C94.594 16.5 93.714 16.1847 93.0394 15.554C92.3794 14.9087 92.0494 14.146 92.0494 13.266ZM96.1634 14.498C96.9554 14.498 97.5934 14.2853 98.0774 13.86C98.576 13.42 98.8254 12.7087 98.8254 11.726V11.242L96.0314 11.66C95.078 11.8213 94.6014 12.3053 94.6014 13.112C94.6014 13.4933 94.7407 13.8233 95.0194 14.102C95.298 14.366 95.6794 14.498 96.1634 14.498Z" fill="#0F0F0F"/>
<path d="M106.537 20.504H103.809L106.383 14.894L101.807 5.456H104.689L107.769 12.232L110.651 5.456H113.357L106.537 20.504Z" fill="#0F0F0F"/>
<path d="M115.634 9.636H120.892C120.862 8.96133 120.62 8.39667 120.166 7.942C119.726 7.48733 119.088 7.26 118.252 7.26C117.489 7.26 116.873 7.502 116.404 7.986C115.934 8.45533 115.678 9.00533 115.634 9.636ZM121.178 12.43L123.334 13.112C123.026 14.0947 122.446 14.9087 121.596 15.554C120.76 16.1847 119.726 16.5 118.494 16.5C116.968 16.5 115.67 15.9793 114.6 14.938C113.544 13.8967 113.016 12.5033 113.016 10.758C113.016 9.11533 113.529 7.766 114.556 6.71C115.597 5.654 116.822 5.126 118.23 5.126C119.872 5.126 121.156 5.632 122.08 6.644C123.004 7.64133 123.466 8.99067 123.466 10.692C123.466 11.1467 123.444 11.418 123.4 11.506H115.568C115.597 12.3127 115.89 12.98 116.448 13.508C117.02 14.036 117.702 14.3 118.494 14.3C119.872 14.3 120.767 13.6767 121.178 12.43Z" fill="#0F0F0F"/>
<path d="M131.294 5.39V7.986C131.001 7.942 130.722 7.92 130.458 7.92C128.537 7.92 127.576 8.96867 127.576 11.066V16.17H125.024V5.456H127.51V7.172C127.76 6.6 128.163 6.15267 128.72 5.83C129.278 5.49267 129.908 5.324 130.612 5.324C130.847 5.324 131.074 5.346 131.294 5.39Z" fill="#0F0F0F"/>
<path d="M134.219 9.636H139.477C139.448 8.96133 139.206 8.39667 138.751 7.942C138.311 7.48733 137.673 7.26 136.837 7.26C136.075 7.26 135.459 7.502 134.989 7.986C134.52 8.45533 134.263 9.00533 134.219 9.636ZM139.763 12.43L141.919 13.112C141.611 14.0947 141.032 14.9087 140.181 15.554C139.345 16.1847 138.311 16.5 137.079 16.5C135.554 16.5 134.256 15.9793 133.185 14.938C132.129 13.8967 131.601 12.5033 131.601 10.758C131.601 9.11533 132.115 7.766 133.141 6.71C134.183 5.654 135.407 5.126 136.815 5.126C138.458 5.126 139.741 5.632 140.665 6.644C141.589 7.64133 142.051 8.99067 142.051 10.692C142.051 11.1467 142.029 11.418 141.985 11.506H134.153C134.183 12.3127 134.476 12.98 135.033 13.508C135.605 14.036 136.287 14.3 137.079 14.3C138.458 14.3 139.353 13.6767 139.763 12.43Z" fill="#0F0F0F"/>
</svg>
