<svg width="136" height="28" viewBox="0 0 136 28" fill="none" xmlns="http://www.w3.org/2000/svg">
<path d="M2.42929 21.2048C2.11035 20.8859 1.85826 20.5063 1.68766 20.0875C1.5171 19.6689 1.43121 19.2191 1.43492 18.7645C1.43848 18.3097 1.53169 17.8582 1.70906 17.4366C1.88644 17.015 2.14449 16.631 2.46865 16.3068C4.81768 13.9578 10.4361 13.3707 13.2713 14.7338L13.2706 14.7386L5.81288 22.1964L5.81357 22.1916L4.86962 22.1992C4.41497 22.2029 3.96522 22.117 3.54656 21.9465C3.12787 21.7759 2.74822 21.5238 2.42929 21.2048Z" fill="#6DAF20"/>
<path d="M6.80116 25.575C7.12009 25.8939 7.49977 26.1461 7.91843 26.3166C8.33714 26.4872 8.78679 26.5731 9.24149 26.5694C9.69627 26.5658 10.1478 26.4726 10.5694 26.2952C10.9909 26.1179 11.3743 25.8591 11.6984 25.5349C14.0473 23.186 14.635 17.5682 13.2721 14.7329L13.2687 14.7335L5.81094 22.1914L5.81439 22.1907L5.8061 23.1339C5.80234 23.5886 5.8883 24.0383 6.05884 24.457C6.22945 24.8758 6.48216 25.256 6.80116 25.575Z" fill="#426F0D"/>
<path d="M2.43297 6.80103C2.11403 7.11998 1.86194 7.4996 1.69134 7.91832C1.52078 8.337 1.43489 8.78673 1.43861 9.24139C1.44216 9.69619 1.53537 10.1477 1.71275 10.5693C1.89012 10.9909 2.14817 11.3749 2.47233 11.699C4.82137 14.0481 10.4398 14.6352 13.275 13.2721L13.2743 13.2672L5.81656 5.80942L5.81725 5.81425L4.8733 5.80665C4.41866 5.80294 3.9689 5.88884 3.55025 6.05939C3.13155 6.23 2.75191 6.48209 2.43297 6.80103Z" fill="#E0643A"/>
<path d="M6.80263 2.43127C7.12159 2.11235 7.50119 1.86021 7.91991 1.68963C8.33863 1.51905 8.78826 1.43316 9.24296 1.43689C9.69775 1.44045 10.1493 1.53366 10.5709 1.71104C10.9924 1.88841 11.3764 2.14649 11.7006 2.47063C14.0495 4.81965 14.6366 10.4382 13.2736 13.2734L13.2687 13.2727L5.81103 5.81491L5.81587 5.8156L5.80758 4.87232C5.80381 4.41753 5.8904 3.96736 6.061 3.54856C6.23161 3.12993 6.48374 2.75017 6.80263 2.43127Z" fill="#E9983E"/>
<path d="M25.5739 21.2048C25.8928 20.8859 26.1449 20.5063 26.3155 20.0875C26.4861 19.6689 26.572 19.2191 26.5683 18.7645C26.5647 18.3097 26.4715 17.8582 26.2941 17.4366C26.1167 17.015 25.8587 16.631 25.5345 16.3068C23.1855 13.9578 17.5671 13.3707 14.7319 14.7338L14.7326 14.7386L22.1903 22.1964L22.1896 22.1916L23.1336 22.1992C23.5882 22.2029 24.038 22.117 24.4566 21.9465C24.8753 21.7759 25.255 21.5238 25.5739 21.2048Z" fill="#7F1810"/>
<path d="M21.202 25.575C20.8831 25.8939 20.5034 26.1461 20.0847 26.3166C19.666 26.4872 19.2164 26.5731 18.7617 26.5694C18.3069 26.5658 17.8554 26.4726 17.4338 26.2952C17.0123 26.1179 16.6289 25.8591 16.3048 25.5349C13.9559 23.186 13.3682 17.5682 14.7311 14.7329L14.7345 14.7335L22.1922 22.1914L22.1888 22.1907L22.1971 23.1339C22.2008 23.5886 22.1149 24.0383 21.9443 24.457C21.7737 24.8758 21.521 25.256 21.202 25.575Z" fill="#DA3832"/>
<path d="M25.5724 6.80103C25.8913 7.11998 26.1434 7.4996 26.314 7.91832C26.4846 8.337 26.5704 8.78673 26.5667 9.24139C26.5632 9.69619 26.47 10.1477 26.2926 10.5693C26.1152 10.9909 25.8572 11.3749 25.533 11.699C23.184 14.0481 17.5655 14.6352 14.7304 13.2721L14.7311 13.2672L22.1888 5.80942L22.1881 5.81425L23.132 5.80665C23.5867 5.80294 24.0364 5.88884 24.4551 6.05939C24.8738 6.23 25.2534 6.48209 25.5724 6.80103Z" fill="#1592E6"/>
<path d="M21.1988 2.43127C20.8798 2.11235 20.5002 1.86021 20.0815 1.68963C19.6628 1.51905 19.2132 1.43316 18.7585 1.43689C18.3037 1.44045 17.8522 1.53366 17.4306 1.71104C17.009 1.88841 16.625 2.14649 16.3009 2.47063C13.9519 4.81965 13.3649 10.4382 14.7278 13.2734L14.7327 13.2727L22.1904 5.81491L22.1856 5.8156L22.1938 4.87232C22.1976 4.41753 22.111 3.96736 21.9404 3.54856C21.7698 3.12993 21.5177 2.75017 21.1988 2.43127Z" fill="#1F72E6"/>
<path d="M47.0512 8.93802C47.0512 8.22098 46.824 7.68321 46.3697 7.32469C45.9154 6.94987 45.2746 6.76247 44.4471 6.76247H40.2856V11.0891H44.4228C45.2502 11.0891 45.8911 10.9099 46.3454 10.5514C46.8159 10.1765 47.0512 9.63876 47.0512 8.93802ZM37.0001 21.1114V4.00024H44.9095C46.0939 4.00024 47.0917 4.20395 47.9029 4.61136C48.7142 5.00247 49.3226 5.54024 49.7282 6.22469C50.15 6.89284 50.3609 7.65061 50.3609 8.49802C50.3609 9.24765 50.223 9.88321 49.9472 10.4047C49.6714 10.9262 49.2901 11.3417 48.8034 11.6514C48.3329 11.9447 47.7894 12.1484 47.1728 12.2625V12.458C47.9192 12.5558 48.56 12.7677 49.0954 13.0936C49.6308 13.4032 50.0446 13.8432 50.3366 14.4136C50.6286 14.9839 50.7747 15.6765 50.7747 16.4914C50.7747 17.3877 50.5556 18.1862 50.1176 18.8869C49.6795 19.5714 49.0387 20.1173 48.195 20.5247C47.3675 20.9158 46.3697 21.1114 45.2016 21.1114H37.0001ZM40.2856 18.3491H44.7635C45.6234 18.3491 46.2886 18.1617 46.7591 17.7869C47.2459 17.3958 47.4892 16.8336 47.4892 16.1002C47.4892 15.3343 47.2296 14.7558 46.7104 14.3647C46.2075 13.9736 45.5342 13.778 44.6905 13.778H40.2856V18.3491Z" fill="white"/>
<path d="M57.4359 21.2825C56.219 21.2825 55.1482 21.0136 54.2234 20.4758C53.2986 19.938 52.5767 19.1884 52.0575 18.2269C51.5545 17.2654 51.303 16.1573 51.303 14.9025C51.303 13.6965 51.5545 12.6291 52.0575 11.7002C52.5604 10.7714 53.2581 10.0462 54.1504 9.52469C55.059 8.98691 56.0892 8.71802 57.2412 8.71802C58.4093 8.71802 59.4396 8.97061 60.3319 9.4758C61.2243 9.98099 61.9138 10.6899 62.4005 11.6025C62.9035 12.4988 63.155 13.5499 63.155 14.7558C63.155 14.9351 63.1388 15.1388 63.1063 15.3669C63.0901 15.5788 63.0657 15.8069 63.0333 16.0514H54.6615C54.7264 16.5728 54.8886 17.021 55.1482 17.3958C55.424 17.7543 55.7566 18.0395 56.146 18.2514C56.5516 18.4469 57.0059 18.5447 57.5089 18.5447C58.1092 18.5447 58.6446 18.4225 59.1151 18.178C59.6018 17.9173 59.9507 17.5832 60.1616 17.1758L62.936 18.0069C62.4492 19.0499 61.7191 19.8565 60.7457 20.4269C59.7884 20.9973 58.6852 21.2825 57.4359 21.2825ZM59.7479 13.778C59.7316 13.3217 59.6099 12.9143 59.3828 12.5558C59.1557 12.181 58.8555 11.8958 58.4823 11.7002C58.1092 11.4884 57.6955 11.3825 57.2412 11.3825C56.8356 11.3825 56.4543 11.4884 56.0974 11.7002C55.7404 11.9121 55.4322 12.1973 55.1726 12.5558C54.9292 12.898 54.767 13.3054 54.6858 13.778H59.7479Z" fill="white"/>
<path d="M64.0693 8.88913H66.8924L67.1114 10.1358C67.5008 9.6958 67.9713 9.35358 68.5229 9.10913C69.0908 8.84839 69.6992 8.71802 70.3482 8.71802C71.3054 8.71802 72.1166 8.92173 72.7818 9.32913C73.4633 9.73654 73.9824 10.3314 74.3394 11.1136C74.7125 11.8795 74.8991 12.8328 74.8991 13.9736V21.1114H71.7597V14.3891C71.7597 13.4439 71.5731 12.7351 71.2 12.2625C70.8268 11.7899 70.267 11.5536 69.5207 11.5536C68.7582 11.5536 68.1741 11.798 67.7685 12.2869C67.3791 12.7595 67.1844 13.4684 67.1844 14.4136V21.1114H64.0693V8.88913Z" fill="white"/>
<path d="M83.4059 21.1114L83.1626 19.6202C82.7569 20.1254 82.2945 20.5247 81.7754 20.818C81.2724 21.1114 80.591 21.258 79.7311 21.258C78.9199 21.258 78.206 21.1195 77.5895 20.8425C76.9892 20.5491 76.5187 20.1499 76.1779 19.6447C75.8372 19.1232 75.6669 18.5121 75.6669 17.8114C75.6669 16.7847 76.0319 15.9373 76.762 15.2691C77.5083 14.5847 78.6278 14.1528 80.1205 13.9736L83.1626 13.6314V12.7758C83.1626 12.4336 83.0084 12.1158 82.7002 11.8225C82.3919 11.5291 81.9052 11.3825 81.24 11.3825C80.6559 11.3825 80.1448 11.5291 79.7067 11.8225C79.2849 12.0995 79.001 12.5232 78.855 13.0936L76.1779 12.1158C76.5024 11.0239 77.119 10.1847 78.0275 9.59802C78.9361 9.01136 80.0556 8.71802 81.386 8.71802C83.0084 8.71802 84.2253 9.12543 85.0365 9.94024C85.8639 10.7388 86.2776 11.798 86.2776 13.118V21.1114H83.4059ZM83.1626 15.8069L80.5342 16.1491C79.9988 16.2143 79.5932 16.3773 79.3174 16.638C79.0415 16.8825 78.9036 17.1839 78.9036 17.5425C78.9036 17.8847 79.0415 18.178 79.3174 18.4225C79.5932 18.6506 79.9826 18.7647 80.4855 18.7647C81.0534 18.7647 81.532 18.6588 81.9214 18.4469C82.327 18.2351 82.6353 17.9254 82.8462 17.518C83.0571 17.1106 83.1626 16.6054 83.1626 16.0025V15.8069Z" fill="white"/>
<path d="M96.4089 8.88913H99.232V19.3025C99.232 20.6877 98.8913 21.8773 98.2098 22.8714C97.5284 23.8817 96.5387 24.6558 95.2408 25.1936C93.959 25.7314 92.4177 26.0002 90.6168 26.0002L90.1301 23.3602C92.0932 23.3277 93.5777 22.9773 94.5837 22.3091C95.6058 21.641 96.1169 20.6795 96.1169 19.4247V19.3758L96.5306 19.2291C96.1412 19.7995 95.6058 20.2884 94.9244 20.6958C94.243 21.0869 93.4317 21.2825 92.4907 21.2825C91.4199 21.2825 90.4789 21.0217 89.6677 20.5002C88.8564 19.9788 88.2156 19.2536 87.7451 18.3247C87.2908 17.3795 87.0636 16.2714 87.0636 15.0002C87.0636 13.7291 87.2908 12.621 87.7451 11.6758C88.2156 10.7306 88.8564 10.0054 89.6677 9.50024C90.4789 8.97876 91.4199 8.71802 92.4907 8.71802C93.0423 8.71802 93.5534 8.7995 94.0239 8.96247C94.5107 9.10913 94.9325 9.31284 95.2894 9.57358C95.6626 9.81802 95.9709 10.0951 96.2142 10.4047L96.4089 8.88913ZM90.4221 15.0002C90.4221 16.0269 90.6817 16.858 91.2009 17.4936C91.7201 18.1128 92.4177 18.4225 93.2938 18.4225C93.7968 18.4225 94.2592 18.2921 94.681 18.0314C95.1029 17.7543 95.4436 17.3551 95.7032 16.8336C95.979 16.3121 96.1169 15.701 96.1169 15.0002C96.1169 14.2669 95.979 13.6477 95.7032 13.1425C95.4436 12.6373 95.0947 12.2543 94.6567 11.9936C94.2348 11.7165 93.7806 11.578 93.2938 11.578C92.4177 11.578 91.7201 11.8958 91.2009 12.5314C90.6817 13.1506 90.4221 13.9736 90.4221 15.0002Z" fill="white"/>
<path d="M106.281 21.2825C105.097 21.2825 104.042 21.0299 103.117 20.5247C102.193 20.0032 101.463 19.278 100.927 18.3491C100.408 17.4039 100.148 16.2958 100.148 15.0247C100.148 13.7373 100.416 12.621 100.951 11.6758C101.503 10.7306 102.249 10.0054 103.19 9.50024C104.131 8.97876 105.186 8.71802 106.354 8.71802C107.522 8.71802 108.577 8.97876 109.518 9.50024C110.459 10.0054 111.205 10.7306 111.757 11.6758C112.309 12.6047 112.584 13.7047 112.584 14.9758C112.584 16.2632 112.3 17.3795 111.733 18.3247C111.181 19.2699 110.427 20.0032 109.469 20.5247C108.528 21.0299 107.466 21.2825 106.281 21.2825ZM106.257 18.4714C106.76 18.4714 107.238 18.3491 107.693 18.1047C108.147 17.8439 108.52 17.461 108.812 16.9558C109.104 16.4343 109.25 15.7743 109.25 14.9758C109.25 14.2099 109.112 13.5743 108.837 13.0691C108.561 12.5477 108.196 12.1647 107.741 11.9202C107.303 11.6595 106.825 11.5291 106.306 11.5291C105.803 11.5291 105.332 11.6595 104.894 11.9202C104.472 12.1647 104.131 12.5477 103.872 13.0691C103.629 13.5743 103.507 14.2262 103.507 15.0247C103.507 15.7906 103.629 16.4343 103.872 16.9558C104.115 17.461 104.448 17.8439 104.87 18.1047C105.292 18.3491 105.754 18.4714 106.257 18.4714Z" fill="white"/>
<path d="M115.699 17.1269C115.796 17.5343 115.959 17.8439 116.186 18.0558C116.429 18.2677 116.697 18.4225 116.989 18.5202C117.297 18.6017 117.605 18.6425 117.914 18.6425C118.482 18.6425 118.928 18.5365 119.252 18.3247C119.577 18.0965 119.739 17.8114 119.739 17.4691C119.739 17.1758 119.625 16.9477 119.398 16.7847C119.171 16.6054 118.879 16.4751 118.522 16.3936C118.165 16.2958 117.8 16.198 117.427 16.1002C116.989 15.9862 116.518 15.8639 116.016 15.7336C115.529 15.5869 115.066 15.3832 114.628 15.1225C114.19 14.8617 113.825 14.5277 113.533 14.1202C113.241 13.6965 113.095 13.1669 113.095 12.5314C113.095 11.7817 113.298 11.1217 113.704 10.5514C114.125 9.98099 114.701 9.53284 115.431 9.20691C116.178 8.88098 117.038 8.71802 118.011 8.71802C119.163 8.71802 120.137 8.96247 120.932 9.45136C121.727 9.94024 122.302 10.641 122.659 11.5536L119.909 12.3358C119.828 12.1077 119.69 11.9202 119.496 11.7736C119.301 11.6269 119.066 11.521 118.79 11.4558C118.53 11.3906 118.263 11.358 117.987 11.358C117.516 11.358 117.127 11.4558 116.819 11.6514C116.51 11.8306 116.356 12.0832 116.356 12.4091C116.356 12.6047 116.413 12.7677 116.527 12.898C116.64 13.0121 116.794 13.1099 116.989 13.1914C117.2 13.2728 117.435 13.3462 117.695 13.4114C117.971 13.4765 118.271 13.5499 118.595 13.6314C119.098 13.7617 119.601 13.9165 120.104 14.0958C120.623 14.2588 121.094 14.4706 121.516 14.7314C121.954 14.9921 122.302 15.3425 122.562 15.7825C122.822 16.2225 122.968 16.7765 123 17.4447C123 18.1617 122.797 18.8136 122.392 19.4002C121.986 19.9706 121.402 20.4269 120.639 20.7691C119.877 21.1114 118.952 21.2825 117.865 21.2825C116.6 21.2825 115.521 21.0136 114.628 20.4758C113.752 19.938 113.176 19.0988 112.9 17.958L115.699 17.1269Z" fill="white"/>
<path d="M131.144 8.19224V4.00024H132.68L133.512 5.84024L134.344 4.00024H135.864V8.19224H134.856V5.02424L133.8 7.32824H133.208L132.152 5.02424V8.19224H131.144ZM128.36 8.19224V4.94424H127V4.00024H130.76V4.94424H129.384V8.19224H128.36Z" fill="white"/>
</svg>
