<?xml version="1.0" encoding="UTF-8"?>
<!DOCTYPE svg PUBLIC "-//W3C//DTD SVG 1.1//EN" "http://www.w3.org/Graphics/SVG/1.1/DTD/svg11.dtd">
<!-- Creator: CorelDRAW 2021 (64-Bit Evaluation Version) -->
<svg xmlns="http://www.w3.org/2000/svg" xml:space="preserve" width="8.5in" height="11in" version="1.1" style="shape-rendering:geometricPrecision; text-rendering:geometricPrecision; image-rendering:optimizeQuality; fill-rule:evenodd; clip-rule:evenodd"
viewBox="0 0 8500 11000"
 xmlns:xlink="http://www.w3.org/1999/xlink"
 xmlns:xodm="http://www.corel.com/coreldraw/odm/2003">
 <defs>
  <style type="text/css">
   <![CDATA[
    .fil1 {fill:#426F0D;fill-rule:nonzero}
    .fil0 {fill:#6DAF20;fill-rule:nonzero}
   ]]>
  </style>
 </defs>
 <g id="Layer_x0020_1">
  <metadata id="CorelCorpID_0Corel-Layer"/>
  <path class="fil0" d="M-2643.34 37448.78c824.02,-2558.66 2619.85,-8360.28 4036.7,-14528.26 1109.68,-4832.61 1773.06,-8940.52 1971.28,-12208.35 90.9,-1500.03 83.98,-2821.42 -20.72,-3960.46 -26.55,-290.22 -59.33,-568.5 -98.73,-834.93 -40.83,-278.75 -89.2,-544.8 -144.26,-797.68 -57.37,-264.81 -122.39,-514.74 -194.82,-750.41 -76.41,-248.2 -161.18,-480.02 -254.31,-695.79 -98.56,-229.15 -206.87,-440.16 -324.33,-632.41 -109.82,-180.56 -227.78,-344.94 -354.32,-493.19 -17.79,-20.59 -35.37,-40.95 -53.35,-61.38l-918.94 -1028.24c17.78,20.59 35.79,41.02 53.35,61.4 125.52,147.48 242.74,310.09 351.79,489.32l0.2 0.22c117.86,192.68 226.39,403.53 324.93,632.62 93.36,215.61 178.35,447.63 254.54,695.63 72.67,235.44 137.88,485.59 195.08,749.78 55.5,252.86 103.65,518.71 144.89,797.94 39.54,267.51 72.67,547.11 99.15,838.68 25.88,279.62 45.61,570.32 59.39,871.86 42.67,926.64 30.11,1956.66 -38.67,3088.54 -197.83,3268.36 -861.21,7376.2 -1971.5,12208.55 -1411.35,6145.96 -3199.65,11927.84 -4027.49,14500.76l910.14 1055.79 -0 0.01z"/>
  <path class="fil0" d="M-813.93 39570.65c816.06,-2529.89 2627.92,-8370.74 4054.54,-14583.42 1110.1,-4832.57 1773.26,-8940.25 1971.52,-12208.57 138.7,-2284.32 49.64,-4154.54 -264.38,-5596.6 -57.24,-263.28 -122.11,-512.13 -194.19,-746.43 -76.64,-247.94 -161.2,-479.98 -254.3,-696.24 -98.56,-229.08 -206.67,-439.87 -324.55,-632.19 -109.61,-180.34 -227.58,-344.72 -353.91,-493.13 -17.76,-20.59 -35.57,-40.79 -53.56,-61.22 -150.52,-168.52 -322.6,-328.04 -516.04,-479.18 117.45,192.25 225.56,403.04 324.31,632.39 92.95,215.57 177.7,447.81 253.91,695.76 72.65,235.44 137.86,486.06 195.45,750.67 54.71,251.52 102.52,516.04 143.43,793.51 193.84,1312.83 234.21,2915.24 119.88,4799.08 -198.06,3268.52 -861.22,7376.2 -1971.1,12209.04 -1421.93,6190.13 -3225.66,12011.03 -4045.72,14555.5l914.72 1061.04 -0.01 -0.01z"/>
  <path class="fil0" d="M1015.76 41693.8c807.08,-2499.5 2634.83,-8380.45 4072.56,-14638.97 1109.9,-4832.81 1773.28,-8940.72 1971.3,-12208.81 190.54,-3143.35 -49.57,-5502.81 -713.98,-7041.94l-0.18 -0.22c-98.65,-227.79 -205.96,-437.24 -322.83,-628.81 -110.02,-180.78 -227.98,-345.22 -354.52,-493.41 -17.36,-20.59 -35.15,-41.22 -53.35,-61.38l-896.74 -1002.98c8.79,10.19 17.58,20.39 26.33,31.04 126.36,147.99 244.55,312.14 353.96,492.24l0.2 0.26c117.65,192.46 225.94,403.92 324.91,633.04 92.55,215.15 176.97,445.6 253.26,692.25 468.77,1520.36 623.35,3643.34 459.44,6346.38 -198.08,3268.52 -861.24,7376.22 -1971.32,12208.77 -1432.58,6235.14 -3252.16,12095.96 -4063.96,14610.97l914.91 1061.59 0.01 -0.02z"/>
  <path class="fil0" d="M2840.67 43810.5c797.55,-2466.78 2642.35,-8388.69 4090.4,-14694.11 1110.04,-4832.55 1773.26,-8940.23 1971.28,-12208.75 245.7,-4046.07 -222.81,-6793.13 -1391.74,-8164.61 -17.16,-20.36 -35.31,-41.01 -53.37,-61.01 -149.53,-167.38 -320.56,-326.13 -512.96,-477.03 908.47,1486.89 1257.91,4063.14 1038.72,7674.36 -198.02,3268.58 -861.18,7376.22 -1970.85,12208.83 -1442.9,6281.98 -3279.06,12183.8 -4081.58,14666.67l910.11 1055.67 -0.01 -0.01z"/>
  <path class="fil1" d="M1405.97 2008.47c-109.05,-179.22 -226.26,-341.78 -351.79,-489.28 -17.58,-20.43 -35.59,-40.79 -53.35,-61.44 -1192.98,-1334.06 -3741.65,-2128.61 -7579.59,-2361.81 -3147.04,-191.28 -7151.98,-4.62 -11903.96,554.96 -6275.68,738.97 -12225.08,1944.2 -14623.78,2458.3l891.58 1034.29c2380.36,-510.63 8351.58,-1722.19 14651.33,-2464.13 4751.78,-559.8 8756.92,-746.2 11903.76,-555.18 3355.6,203.67 5726.09,836.82 7065.79,1884.29l0.01 0z"/>
  <path class="fil1" d="M1985.69 3336.88c-76.21,-248 -161.18,-480.02 -254.54,-695.63 -1398.48,-809.58 -3564.04,-1307.19 -6466.95,-1483.52 -3147.06,-191.31 -7152.21,-4.88 -11904.47,554.9 -6323.7,744.9 -12316.58,1963.06 -14678.46,2470.41l895.94 1039.37c2342.09,-503.7 8357.48,-1728.45 14706.48,-2476.18 4752,-559.58 8757.15,-746.43 11904.22,-555.18 2474.46,150.53 4413.19,534.3 5797.78,1145.83l-0 0z"/>
  <path class="fil1" d="M2325.7 4884.44c-41.22,-279.24 -89.38,-545.09 -144.87,-797.95 -1308.5,-448.09 -3002.11,-736.48 -5069.14,-861.74 -3146.84,-191.51 -7152.41,-4.68 -11903.98,554.9 -6374.25,750.62 -12412.23,1982.33 -14734.32,2482.17l896.14 1039.6c2301.46,-496.26 8362.16,-1734.71 14761.72,-2488.61 4751.78,-559.41 8757.14,-746.04 11904.2,-554.74 1678.4,102.28 3110.47,311.2 4290.25,626.36l-0 0.01z"/>
  <path class="fil1" d="M2484.06 6595.08c-13.78,-301.54 -33.5,-592.24 -59.37,-871.86 -1004.74,-208.19 -2160.59,-352.35 -3465.93,-431.49 -3146.84,-191.45 -7151.98,-4.62 -11904.2,555.16 -6425.49,756.53 -12509.14,2001.98 -14789.47,2493.81l891.8 1034.49c2258.61,-488.06 8365.65,-1740.44 14816.97,-2500.06 4751.83,-559.78 8757.2,-746.41 11904.26,-555.12 947.51,57.34 1816.22,149.27 2605.95,275.08l-0.01 -0.02z"/>
 </g>
</svg>
