<svg width="453" height="700" viewBox="0 0 453 700" fill="none" xmlns="http://www.w3.org/2000/svg">
<path d="M1158.74 710.58C1084.01 696.675 915.59 663.294 743.464 615.268C608.61 577.628 497.918 538.507 414.497 498.996C376.207 480.857 343.701 462.663 317.069 444.465C310.282 439.832 303.877 435.202 297.858 430.567C291.554 425.726 285.67 420.866 280.206 416.016C274.479 410.944 269.227 405.881 264.432 400.823C259.383 395.493 254.857 390.174 250.842 384.859C246.576 379.226 242.893 373.591 239.803 367.978C236.892 362.72 234.496 357.474 232.62 352.231C232.362 351.497 232.106 350.772 231.855 350.035L219.416 312.615C219.674 313.349 219.925 314.086 220.18 314.811C222.053 320.019 224.415 325.22 227.303 330.441L227.306 330.449C230.402 336.078 234.077 341.716 238.343 347.349C242.349 352.667 246.878 357.994 251.924 363.316C256.711 368.377 261.966 373.449 267.679 378.507C273.138 383.368 279.019 388.219 285.329 393.077C291.373 397.731 297.806 402.388 304.627 407.037C311.162 411.509 318.057 415.975 325.303 420.438C347.567 434.16 373.159 447.885 402.055 461.568C485.481 501.096 596.173 540.217 731.029 577.837C902.533 625.702 1070.36 659.005 1145.49 673.008L1158.74 710.58Z" fill="#DA3832"/>
<path d="M1185.36 786.102C1111.45 772.381 941.834 738.874 768.468 690.488C633.609 652.86 522.925 613.736 439.493 574.219C381.178 546.603 336.286 518.834 305.124 491.175C299.433 486.127 294.206 481.082 289.439 476.052C284.398 470.719 279.864 465.402 275.838 460.083C271.572 454.449 267.892 448.822 264.807 443.199C261.899 437.948 259.503 432.703 257.619 427.462C257.36 426.729 257.113 426 256.862 425.263C254.822 419.133 253.307 412.575 252.3 405.589C255.391 411.202 259.071 416.829 263.34 422.47C267.351 427.777 271.889 433.101 276.935 438.423C281.722 443.483 286.988 448.561 292.707 453.636C298.142 458.458 303.995 463.282 310.266 468.107C339.933 490.945 378.901 513.823 426.992 536.599C510.426 576.124 621.11 615.248 755.973 652.884C928.716 701.082 1097.72 734.524 1172.05 748.34L1185.36 786.102Z" fill="#DA3832"/>
<path d="M1211.98 861.633C1138.96 848.102 968.135 814.456 793.48 765.727C658.618 728.091 547.926 688.969 464.503 649.45C384.263 611.44 329.425 573.153 300.796 535.248L300.794 535.239C296.561 529.622 292.904 524.033 289.822 518.446C286.909 513.179 284.513 507.933 282.637 502.69C282.373 501.967 282.114 501.234 281.872 500.494L269.743 463.984C269.871 464.347 269.999 464.71 270.138 465.078C272.011 470.313 274.399 475.561 277.304 480.803L277.307 480.812C280.4 486.432 284.094 492.073 288.355 497.718C292.361 503.007 296.859 508.299 301.871 513.605C332.788 546.273 382.995 579.157 451.996 611.84C535.43 651.366 646.114 690.489 780.974 728.118C954.978 776.659 1125.19 810.241 1198.67 823.864L1211.98 861.633Z" fill="#DA3832"/>
<path d="M1238.54 936.967C1166.45 923.641 994.373 889.864 818.418 840.759C683.559 803.131 572.875 764.007 489.44 724.482C386.15 675.568 324.962 626.18 307.572 577.714C307.31 577 307.057 576.255 306.818 575.524C304.792 569.434 303.281 562.913 302.266 555.957C326.169 599.365 384.819 643.391 477.006 687.051C560.44 726.576 671.124 765.7 805.978 803.339C981.283 852.257 1152.74 885.975 1225.29 899.395L1238.54 936.967Z" fill="#DA3832"/>
<path d="M227.301 330.44C224.413 325.219 222.051 320.018 220.179 314.81C219.923 314.085 219.672 313.348 219.414 312.614C203.285 264.046 219.543 188.313 267.796 87.4069C307.36 4.66311 368.321 -94.7718 448.996 -208.145C555.539 -357.871 668.994 -492.931 715.432 -546.999L728.406 -510.194C682.312 -456.543 568.392 -321.014 461.439 -170.718C380.761 -57.3521 319.803 42.091 280.235 124.827C238.041 213.049 220.308 282.044 227.301 330.44Z" fill="#7F1810"/>
<path d="M251.922 363.315C246.876 357.993 242.347 352.665 238.34 347.348C238.043 300.698 256.238 238.77 292.736 162.446C332.301 79.7026 393.258 -19.7405 473.942 -133.117C581.306 -283.984 695.693 -419.976 741.446 -473.2L754.484 -436.213C709.099 -383.443 594.234 -246.969 486.444 -95.4966C405.768 17.877 344.799 117.315 305.235 200.059C274.129 265.12 256.317 319.72 251.922 363.315Z" fill="#7F1810"/>
<path d="M285.327 393.076C279.017 388.219 273.136 383.368 267.677 378.507C275.033 339.077 291.749 292.019 317.745 237.677C357.301 154.936 418.275 55.4873 498.945 -57.8752C607.162 -209.952 722.517 -346.905 767.525 -399.218L780.566 -362.223C735.937 -310.387 620.095 -172.947 511.441 -20.2713C430.773 93.0995 369.808 192.546 330.243 275.289C309.149 319.422 294.152 358.737 285.327 393.076Z" fill="#7F1810"/>
<path d="M325.301 420.436C318.055 415.973 311.16 411.508 304.625 407.035C313.626 378.613 326.334 347.215 342.75 312.897C382.306 230.156 443.275 130.719 523.959 17.342C633.042 -135.958 749.378 -273.887 793.601 -325.246L806.578 -288.433C762.753 -237.576 645.916 -99.1454 536.393 54.7728C455.715 168.138 394.749 267.584 355.184 350.328C343.266 375.237 333.31 398.611 325.301 420.436Z" fill="#7F1810"/>
</svg>
