<svg width="450" height="700" viewBox="0 0 450 700" fill="none" xmlns="http://www.w3.org/2000/svg">
<path d="M-709.198 710.58C-634.47 696.675 -466.052 663.294 -293.925 615.268C-159.071 577.629 -48.3791 538.508 35.0412 498.996C73.3311 480.857 105.838 462.663 132.469 444.466C139.256 439.832 145.662 435.203 151.68 430.567C157.984 425.726 163.868 420.867 169.332 416.017C175.06 410.945 180.311 405.881 185.107 400.823C190.156 395.493 194.682 390.174 198.696 384.86C202.962 379.226 206.645 373.591 209.736 367.979C212.646 362.72 215.042 357.474 216.918 352.231C217.177 351.497 217.433 350.772 217.683 350.035L230.123 312.616C229.864 313.349 229.614 314.086 229.358 314.812C227.485 320.019 225.123 325.221 222.236 330.441L222.233 330.449C219.136 336.078 215.462 341.716 211.196 347.35C207.189 352.667 202.66 357.995 197.614 363.316C192.827 368.377 187.573 373.449 181.859 378.507C176.401 383.368 170.52 388.219 164.21 393.077C158.166 397.732 151.732 402.388 144.912 407.038C138.376 411.51 131.481 415.976 124.235 420.438C101.972 434.16 76.3796 447.886 47.4839 461.568C-35.9422 501.096 -146.634 540.217 -281.491 577.837C-452.995 625.703 -620.821 659.005 -695.954 673.008L-709.198 710.58Z" fill="#6DAF20"/>
<path d="M-735.82 786.102C-661.908 772.381 -492.295 738.875 -318.93 690.488C-184.07 652.86 -73.3862 613.736 10.0453 574.219C68.3608 546.603 113.253 518.834 144.415 491.175C150.106 486.127 155.332 481.082 160.1 476.052C165.14 470.719 169.675 465.403 173.7 460.083C177.967 454.449 181.646 448.822 184.732 443.199C187.639 437.948 190.035 432.703 191.919 427.463C192.178 426.729 192.426 426 192.676 425.264C194.717 419.133 196.231 412.576 197.238 405.59C194.148 411.202 190.468 416.829 186.199 422.471C182.187 427.777 177.65 433.102 172.604 438.423C167.817 443.484 162.551 448.561 156.832 453.636C151.396 458.459 145.543 463.283 139.272 468.108C109.606 490.945 70.6375 513.823 22.5466 536.599C-60.8878 576.124 -171.572 615.248 -306.434 652.884C-479.177 701.082 -648.183 734.525 -722.508 748.34L-735.82 786.102Z" fill="#6DAF20"/>
<path d="M-762.446 861.634C-689.416 848.103 -518.596 814.456 -343.942 765.727C-209.079 728.091 -98.3871 688.97 -14.9639 649.45C65.2759 611.441 120.114 573.153 148.742 535.248L148.745 535.24C152.978 529.622 156.635 524.033 159.717 518.446C162.63 513.179 165.026 507.934 166.902 502.69C167.166 501.968 167.425 501.234 167.667 500.494L179.795 463.984C179.667 464.347 179.539 464.71 179.4 465.078C177.527 470.313 175.14 475.561 172.235 480.804L172.232 480.812C169.139 486.432 165.445 492.073 161.184 497.718C157.178 503.007 152.68 508.3 147.667 513.605C116.751 546.273 66.5431 579.157 -2.45725 611.841C-85.8916 651.366 -196.576 690.49 -331.435 728.118C-505.439 776.659 -675.653 810.241 -749.132 823.864L-762.446 861.634Z" fill="#6DAF20"/>
<path d="M-789.001 936.967C-716.915 923.641 -544.834 889.865 -368.88 840.759C-234.02 803.131 -123.336 764.007 -39.9018 724.482C63.388 675.568 124.576 626.181 141.967 577.714C142.228 577 142.481 576.255 142.721 575.524C144.747 569.434 146.258 562.913 147.273 555.957C123.369 599.365 64.7198 643.391 -27.4673 687.052C-110.902 726.577 -221.586 765.7 -356.44 803.34C-531.744 852.257 -703.202 885.975 -775.756 899.396L-789.001 936.967Z" fill="#6DAF20"/>
<path d="M222.238 330.44C225.125 325.219 227.487 320.018 229.36 314.81C229.616 314.085 229.866 313.348 230.125 312.614C246.254 264.046 229.996 188.313 181.743 87.4069C142.178 4.66305 81.2179 -94.7718 0.542222 -208.146C-106 -357.871 -219.455 -492.931 -265.893 -546.999L-278.867 -510.194C-232.773 -456.543 -118.854 -321.014 -11.9005 -170.718C68.7781 -57.3522 129.736 42.091 169.303 124.827C211.497 213.049 229.231 282.044 222.238 330.44Z" fill="#426F0D"/>
<path d="M197.617 363.314C202.663 357.993 207.192 352.665 211.198 347.348C211.495 300.698 193.3 238.77 156.803 162.446C117.238 79.7026 56.2803 -19.7405 -24.4037 -133.117C-131.767 -283.984 -246.154 -419.976 -291.907 -473.2L-304.945 -436.213C-259.561 -383.443 -144.695 -246.969 -36.905 -95.4967C43.7707 17.877 104.74 117.315 144.304 200.059C175.41 265.12 193.222 319.719 197.617 363.314Z" fill="#426F0D"/>
<path d="M164.212 393.076C170.522 388.219 176.403 383.368 181.861 378.506C174.506 339.077 157.789 292.019 131.794 237.677C92.2378 154.936 31.2636 55.4872 -49.4067 -57.8753C-157.623 -209.952 -272.978 -346.905 -317.986 -399.218L-331.027 -362.223C-286.398 -310.387 -170.556 -172.947 -61.9022 -20.2713C18.7652 93.0994 79.7311 192.545 119.296 275.289C140.39 319.422 155.387 358.737 164.212 393.076Z" fill="#426F0D"/>
<path d="M124.238 420.436C131.483 415.973 138.378 411.508 144.914 407.035C135.912 378.613 123.204 347.215 106.789 312.897C67.2327 230.156 6.26385 130.719 -74.4201 17.3419C-183.503 -135.958 -299.84 -273.887 -344.062 -325.246L-357.039 -288.433C-313.214 -237.576 -196.378 -99.1454 -86.8546 54.7727C-6.17598 168.138 54.7899 267.584 94.3545 350.328C106.272 375.237 116.229 398.611 124.238 420.436Z" fill="#426F0D"/>
</svg>
