<?xml version="1.0" encoding="UTF-8"?>
<!DOCTYPE svg PUBLIC "-//W3C//DTD SVG 1.1//EN" "http://www.w3.org/Graphics/SVG/1.1/DTD/svg11.dtd">
<!-- Creator: CorelDRAW 2021 (64-Bit Evaluation Version) -->
<svg xmlns="http://www.w3.org/2000/svg" xml:space="preserve" width="0.44in" height="0.177in" version="1.1" style="shape-rendering:geometricPrecision; text-rendering:geometricPrecision; image-rendering:optimizeQuality; fill-rule:evenodd; clip-rule:evenodd"
viewBox="0 0 440 177"
 xmlns:xlink="http://www.w3.org/1999/xlink"
 xmlns:xodm="http://www.corel.com/coreldraw/odm/2003">
 <defs>
  <style type="text/css">
   <![CDATA[
    .fil0 {fill:black;fill-rule:nonzero}
   ]]>
  </style>
 </defs>
 <g id="Layer_x0020_1">
  <metadata id="CorelCorpID_0Corel-Layer"/>
  <g id="zozo.svg">
   <polygon class="fil0" points="3.43,93.78 64.32,30.68 64.32,30.24 5.63,30.24 5.63,6.72 101.92,6.72 101.92,29.14 41.02,92.24 41.02,92.68 101.92,92.68 101.92,116.2 3.43,116.2 "/>
   <path class="fil0" d="M108.55 93.33l0 -63.76 22.65 -22.86 62.87 0 22.65 22.86 0 63.76 -22.65 22.87 -62.87 0 -22.65 -22.87zm71.45 -1.32l7.7 -7.69 0 -45.73 -7.7 -7.7 -34.73 0 -7.7 7.7 0 45.73 7.7 7.69 34.73 0z"/>
   <polygon class="fil0" points="223.29,93.78 284.19,30.68 284.19,30.24 225.49,30.24 225.49,6.72 321.78,6.72 321.78,29.14 260.88,92.24 260.88,92.68 321.78,92.68 321.78,116.2 223.29,116.2 "/>
   <path class="fil0" d="M328.41 93.33l0 -63.76 22.65 -22.86 62.88 0 22.64 22.86 0 63.76 -22.64 22.87 -62.88 0 -22.65 -22.87zm71.45 -1.32l7.69 -7.69 0 -45.73 -7.69 -7.7 -34.74 0 -7.7 7.7 0 45.73 7.7 7.69 34.74 0z"/>
   <polygon class="fil0" points="3.43,139.34 10.02,139.34 10.02,173.28 3.43,173.28 "/>
   <polygon class="fil0" points="30.17,139.34 36.08,139.34 51.2,162.37 51.3,162.37 51.3,139.34 57.66,139.34 57.66,173.28 51.74,173.28 36.61,150.3 36.52,150.3 36.52,173.28 30.17,173.28 "/>
   <polygon class="fil0" points="85.26,144.92 75.12,144.92 75.12,139.34 101.99,139.34 101.99,144.92 91.85,144.92 91.85,173.28 85.26,173.28 "/>
   <polygon class="fil0" points="119.44,139.34 143.98,139.34 143.98,144.92 126.04,144.92 126.04,153.5 142.57,153.5 142.57,158.98 126.04,158.98 126.04,167.71 143.98,167.71 143.98,173.28 119.44,173.28 "/>
   <path class="fil0" d="M189.09 162.04l0 11.25 -6.59 0 0 -9.74 -2.91 -3.25 -10.57 0 0 13 -6.59 0 0 -33.94 21.29 0 5.19 5.24 0 10.28 -3.3 3.35 3.49 3.83zm-20.07 -7.18l11.69 0 1.7 -1.7 0 -6.59 -1.7 -1.7 -11.69 0 0 9.99z"/>
   <path class="fil0" d="M218.23 139.34l6.01 0 12.41 33.94 -6.69 0 -2.76 -7.52 -11.93 0 -2.77 7.52 -6.69 0 12.41 -33.94zm7.51 21l-4.51 -12.9 -0.1 0 -4.36 12.9 8.97 0z"/>
   <polygon class="fil0" points="252.45,167.71 252.45,144.92 258.03,139.34 274.61,139.34 280.09,144.82 280.09,150.01 273.5,150.01 273.5,147.25 271.22,144.97 261.52,144.97 259.05,147.44 259.05,165.19 261.52,167.66 271.22,167.66 273.5,165.38 273.5,162.62 280.09,162.62 280.09,167.8 274.61,173.28 258.03,173.28 "/>
   <polygon class="fil0" points="305.76,144.92 295.63,144.92 295.63,139.34 322.49,139.34 322.49,144.92 312.35,144.92 312.35,173.28 305.76,173.28 "/>
   <polygon class="fil0" points="340.19,139.34 346.78,139.34 346.78,173.28 340.19,173.28 "/>
   <polygon class="fil0" points="364.26,139.34 371.04,139.34 379.48,165.43 379.58,165.43 388.02,139.34 394.8,139.34 382.73,173.28 376.33,173.28 "/>
   <polygon class="fil0" points="412.04,139.34 436.57,139.34 436.57,144.92 418.63,144.92 418.63,153.5 435.17,153.5 435.17,158.98 418.63,158.98 418.63,167.71 436.57,167.71 436.57,173.28 412.04,173.28 "/>
  </g>
 </g>
</svg>
